SplineFontDB: 3.0
FontName: DavidCLM-Bold
FullName: David CLM Bold
FamilyName: David CLM
Weight: Bold
Copyright: Copyright 2002-2018 by Maxim Iorsh (iorsh@users.sourceforge.net).\nDistributed under the terms of GNU General Public License version 2(http://www.gnu.org/licenses/gpl.html). \nLatin glyphs and part of punctuation copyright 1990 as an unpublished work by Bitstream Inc. \nAll rights reserved.
UComments: "2002-9-22: Created." 
Version: 0.133
ItalicAngle: 0
UnderlinePosition: -100
UnderlineWidth: 50
Ascent: 960
Descent: 240
LayerCount: 2
Layer: 0 0 "Back"  1
Layer: 1 0 "Fore"  0
FSType: 0
OS2Version: 0
OS2_WeightWidthSlopeOnly: 0
OS2_UseTypoMetrics: 0
CreationTime: 1163025784
ModificationTime: 1537994772
PfmFamily: 17
TTFWeight: 700
TTFWidth: 5
LineGap: 90
VLineGap: 0
Panose: 2 0 6 3 0 0 0 0 0 0
OS2TypoAscent: 0
OS2TypoAOffset: 1
OS2TypoDescent: 0
OS2TypoDOffset: 1
OS2TypoLinegap: 0
OS2WinAscent: 0
OS2WinAOffset: 1
OS2WinDescent: 0
OS2WinDOffset: 1
HheadAscent: 0
HheadAOffset: 1
HheadDescent: 0
HheadDOffset: 1
OS2Vendor: 'PfEd'
Lookup: 1 1 0 "AltAyin"  {"AltAyin subtable"  } []
Lookup: 6 1 0 "ccmpAltAyin"  {"ccmpAltAyin contextual 0"  "ccmpAltAyin contextual 1"  "ccmpAltAyin contextual 2"  } ['ccmp' ('hebr' <'dflt' > ) ]
Lookup: 6 1 0 "ccmpVavHolam"  {"ccmpVavHolam subtable"  } ['ccmp' ('hebr' <'dflt' > ) ]
Lookup: 4 1 0 "Ligature Substitution lookup 3"  {"Ligature Substitution lookup 3 subtable"  } []
Lookup: 4 1 0 "ccmpCustomPrecomp"  {"ccmpCustomPrecomp subtable"  } ['ccmp' ('hebr' <'dflt' > ) ]
Lookup: 4 1 0 "ccmpDagesh"  {"ccmpDagesh subtable"  } ['ccmp' ('hebr' <'dflt' > ) ]
Lookup: 4 1 0 "ccmpSinShin"  {"ccmpSinShin subtable"  } ['ccmp' ('hebr' <'dflt' > ) ]
Lookup: 1 1 0 "jaltWideLetters"  {"jaltWideLetters subtable"  } ['jalt' ('hebr' <'dflt' > ) ]
Lookup: 1 1 0 "ccmpYiddish1"  {"ccmpYiddish1 subtable"  } ['ccmp' ('hebr' <'JII ' > ) ]
Lookup: 4 1 0 "ccmpYiddish_dflt"  {"ccmpYiddish_dflt subtable"  } ['ccmp' ('hebr' <'dflt' > ) ]

StartChar: exclam
Encoding: 33 33 0
Width: 358
VWidth: 1000
Flags: W
VStem: 104 160<644.001 752>
LayerCount: 2
Back
SplineSet
139 212 m 1
 195 180 227 147 257 94 c 1
 232 44 195 5 152 -20 c 1
 97 5 56 45 29 96 c 1
 56 147 97 193 139 212 c 1
67 646 m 1
 111 703 174 747 227 752 c 1
 214 452 253 307 97 273 c 1
 72 407 64 516 67 646 c 1
EndSplineSet
Fore
SplineSet
180 212 m 1
 230.979 178.627 263.395 145.741 298 94 c 1
 268.087 48.2041 231.569 8.79102 193 -20 c 1
 143.499 8.70215 102.126 48.4512 70 96 c 1
 99.1406 141.499 139.994 187.876 180 212 c 1
104 646 m 1
 146.646 689.36 209.688 733.796 264 752 c 1
 255.073 545.994 258.199 426 245 355 c 1
 225.199 326 186 287 158 273 c 1
 107 363 101 516 104 646 c 1
EndSplineSet
Validated: 33
EndChar

StartChar: quotedbl
Encoding: 34 34 1
Width: 485
VWidth: 1000
Flags: W
HStem: 370.998 429.502<66.75 451.875>
VStem: 30 421.875<388.96 800.5>
LayerCount: 2
Back
SplineSet
59.125 686.997 m 1
 88 734.9 134.5 774.229 192.375 800 c 1
 267.5 687.146 212.875 472.992 57.75 370.998 c 1
 46.875 367.607 26.125 380.265 21 388.96 c 1
 59.75 488.071 92 572.006 59.125 686.997 c 1
309.625 687.498 m 1
 338.5 735.4 385 774.729 442.875 800.5 c 1
 518 687.646 463.375 473.492 308.25 371.498 c 1
 297.375 368.107 276.625 380.766 271.625 389.461 c 1
 310.25 488.572 342.5 572.506 309.625 687.498 c 1
EndSplineSet
Fore
SplineSet
68.125 686.997 m 1
 101.6 733.482 149.485 772.386 201.375 800 c 1
 276.5 687.146 221.875 472.992 66.75 370.998 c 1
 57.1621 370.781 36.4707 383.582 30 388.96 c 1
 68.75 488.071 101 572.006 68.125 686.997 c 1
318.625 687.498 m 1
 350.895 731.863 398.559 769.979 451.875 800.5 c 1
 527 687.646 472.375 473.492 317.25 371.498 c 1
 307.622 370.146 287.071 383.132 280.625 389.461 c 1
 319.25 488.572 351.5 572.506 318.625 687.498 c 1
EndSplineSet
Validated: 33
EndChar

StartChar: numbersign
Encoding: 35 35 2
Width: 736
VWidth: 1000
Flags: W
HStem: 169.2 117.6<87.3754 159.178 307.202 402.366 550.391 624.075> 419.2 117.6<147.376 228.24 376.934 471.428 620.122 684.075>
VStem: 87.4736 149.799<-35.9826 33.8072> 293.331 151.199<659.454 728.657> 330.661 149.8<-35.9826 33.8072> 536.519 151.2<659.454 728.657>
LayerCount: 2
Back
SplineSet
91.0039 286.8 m 1
 661.004 286.8 l 1
 651.259 242.158 637.713 202.67 620 169.2 c 1
 50 169.2 l 1
 58.9023 210.855 71.1865 250.725 91.0039 286.8 c 1
151.004 536.8 m 1
 721.004 536.8 l 1
 711.259 492.158 697.713 452.67 680 419.2 c 1
 110 419.2 l 1
 118.902 460.855 131.187 500.725 151.004 536.8 c 1
536.519 727.503 m 1
 580.605 736.207 636.604 736.109 687.719 727.503 c 1
 572.96 425.503 546.898 277 480.461 -35 c 1
 431.392 -42.2578 386.789 -43.8184 330.661 -35 c 1
 438.471 247 481.557 446.503 536.519 727.503 c 1
293.331 727.503 m 1
 337.415 736.207 393.413 736.109 444.53 727.503 c 1
 329.771 425.503 303.709 277 237.273 -35 c 1
 188.204 -42.2578 143.601 -43.8184 87.4736 -35 c 1
 195.283 247 238.369 446.503 293.331 727.503 c 1
EndSplineSet
Fore
SplineSet
293.331 727.503 m 1xf4
 337.415 736.207 393.413 736.109 444.53 727.503 c 1xf4
 417.699 656.895 395.717 594.678 376.934 536.8 c 1
 497.897 536.8 l 1
 510.794 597.179 523.314 659.989 536.519 727.503 c 1
 580.605 736.207 636.604 736.109 687.719 727.503 c 1
 660.888 656.895 638.906 594.678 620.122 536.8 c 1
 721.004 536.8 l 1
 711.259 492.158 697.713 452.67 680 419.2 c 1
 584.52 419.2 l 1
 572.068 374.82 561 331.446 550.391 286.8 c 1
 661.004 286.8 l 1
 651.259 242.158 637.713 202.67 620 169.2 c 1
 523.846 169.2 l 1
 510.541 107.82 496.708 41.2991 480.461 -35 c 1
 431.392 -42.2578 386.789 -43.8184 330.661 -35 c 1xec
 358.417 37.6019 381.883 104.736 402.366 169.2 c 1
 280.658 169.2 l 1
 267.352 107.82 253.52 41.2991 237.273 -35 c 1
 188.204 -42.2578 143.601 -43.8184 87.4736 -35 c 1
 115.23 37.6019 138.695 104.736 159.178 169.2 c 1
 50 169.2 l 1
 58.9023 210.855 71.1865 250.725 91.0039 286.8 c 1
 194.179 286.8 l 1
 206.475 331.07 217.672 374.867 228.24 419.2 c 1
 110 419.2 l 1
 118.902 460.855 131.187 500.725 151.004 536.8 c 1
 254.709 536.8 l 1
 267.606 597.179 280.126 659.989 293.331 727.503 c 1xf4
471.428 419.2 m 1
 341.331 419.2 l 1
 328.879 374.82 317.811 331.446 307.202 286.8 c 1
 437.366 286.8 l 1
 449.663 331.07 460.86 374.867 471.428 419.2 c 1
EndSplineSet
Validated: 33
EndChar

StartChar: dollar
Encoding: 36 36 3
Width: 656
VWidth: 1000
Flags: W
HStem: 566.3 141.7<378.168 473.334>
VStem: 302.788 80.92<-79 -10.4873 140.261 268.779 445.077 561.792 706.408 772>
LayerCount: 2
Back
SplineSet
119 338 m 0
 213 286 321.475 276.589 381.952 248.587 c 0
 411.472 234.919 435.192 205.187 417.593 180.337 c 0
 395.853 149.643 306.713 133.023 242.032 133.023 c 0
 192.312 133.023 133.35 144.822 110.5 152.274 c 1
 74.5 114 42 68 18.627 19.3027 c 1
 49.3877 6.39551 122.975 -13.1406 182.577 -13.1924 c 0
 277.539 -14.7996 360.071 11.455 427 60.7796 c 0
 506 119 525 186 525 240 c 0
 525 300 495.397 342.3 446 370 c 0
 377.346 408.499 248.689 437.358 183.842 466.9 c 0
 153.106 480.902 126.202 503.65 143.802 520.8 c 0
 187.903 563.772 257.437 566.3 342.122 566.3 c 0
 376.562 566.3 408.683 562.45 434.202 554.4 c 1
 449.162 575.05 497.728 647.5 506.527 681.5 c 1
 461.336 700.672 419.728 708 360 708 c 0
 270.028 708 199.628 681.998 138 637.944 c 0
 59 581.47 40 516.479 40 464.1 c 0
 40 405.899 68.2192 366.091 119 338 c 0
241.415 772 m 1
 241.415 -106.33 l 1
 270.61 -103 296.316 -94 322.335 -79 c 1
 322.335 799.33 l 1
 292.985 795.83 265.852 786.33 241.415 772 c 1
EndSplineSet
Fore
SplineSet
383.708 706.408 m 1
 395.879 707.461 408.423 708 421.373 708 c 0
 481.101 708 522.709 700.672 567.9 681.5 c 1
 559.101 647.5 510.535 575.05 495.575 554.4 c 1
 470.056 562.45 437.935 566.3 403.495 566.3 c 0
 396.803 566.3 390.206 566.284 383.708 566.234 c 1
 383.708 418.952 l 1
 429.613 404.049 475.116 388.088 507.373 370 c 0
 556.77 342.3 586.373 300 586.373 240 c 0
 586.373 186 567.373 119 488.373 60.7793 c 0
 456.838 37.5391 421.839 19.4209 383.708 6.9248 c 1
 383.708 -79 l 1
 357.689 -94 331.983 -103 302.788 -106.33 c 1
 302.788 -10.4873 l 1
 283.757 -12.6172 264.134 -13.5342 243.95 -13.1924 c 0
 184.348 -13.1406 110.761 6.39551 80 19.3027 c 1
 103.373 68 135.873 114 171.873 152.274 c 1
 194.629 144.853 253.198 133.12 302.788 133.024 c 1
 302.788 290.218 l 1
 262.548 301.608 220.164 315.988 180.373 338 c 0
 129.593 366.091 101.373 405.899 101.373 464.1 c 0
 101.373 516.479 120.373 581.47 199.373 637.944 c 0
 231.04 660.581 265.023 678.451 302.788 690.477 c 1
 302.788 772 l 1
 327.225 786.33 354.358 795.83 383.708 799.33 c 1
 383.708 706.408 l 1
302.788 561.792 m 1
 263.33 556.517 230.168 545.153 205.175 520.8 c 0
 187.575 503.65 214.479 480.902 245.215 466.9 c 0
 261.161 459.636 280.966 452.412 302.788 445.077 c 1
 302.788 561.792 l 1
383.708 140.261 m 1
 426.711 147.899 465.592 161.455 478.966 180.337 c 0
 496.565 205.187 472.845 234.919 443.325 248.587 c 0
 426.661 256.303 406.353 262.607 383.708 268.779 c 1
 383.708 140.261 l 1
EndSplineSet
Validated: 33
EndChar

StartChar: percent
Encoding: 37 37 4
Width: 797
VWidth: 1000
Flags: W
VStem: 245.967 87.932<393.797 509.105> 649.229 87.932<85.4032 200.712>
LayerCount: 2
Back
SplineSet
479.871 334.882 m 1
 456.822 297.051 455.003 268.538 455.003 224.39 c 16
 455.003 168.544 470.772 110.896 495.036 84.4746 c 0
 525.091 51.7432 555.828 63.9609 570.25 83.873 c 0
 593.3 115.699 595.726 160.137 594.513 203.973 c 8
 593.186 251.947 581.774 297.051 556.299 321.07 c 0
 535.17 340.992 506.561 343.89 479.871 334.882 c 1
495.534 419.973 m 1
 575.729 432.757 635.536 395.078 652.526 306.265 c 0
 661.951 256.998 669.536 176.126 642.332 100.38 c 16
 620.585 39.8252 573.689 -14 520 -14 c 0
 490.776 -14 448.154 5.55859 424.174 41.1709 c 16
 396.988 81.541 384.479 158.271 392.231 232.927 c 0
 399.706 304.919 426.892 371.529 495.534 419.973 c 1
124.905 622.909 m 1
 101.856 585.078 100.037 556.565 100.037 512.417 c 16
 100.037 456.571 115.807 398.923 140.07 372.502 c 0
 170.125 339.771 200.862 351.988 215.284 371.9 c 0
 238.334 403.727 240.76 448.164 239.547 492 c 8
 238.22 539.975 226.809 585.078 201.333 609.098 c 0
 180.204 629.02 151.595 631.917 124.905 622.909 c 1
140.568 708 m 1
 220.764 720.784 280.57 683.105 297.561 594.292 c 0
 306.985 545.025 314.57 464.153 287.366 388.407 c 16
 265.619 327.853 218.724 274.027 165.034 274.027 c 0
 135.811 274.027 93.1885 293.586 69.208 329.198 c 16
 42.0225 369.568 29.5127 446.298 37.2656 520.954 c 0
 44.7402 592.946 71.9258 659.557 140.568 708 c 1
515.433 712.711 m 1
 547.132 718.367 587.438 714.351 616.745 702.862 c 1
 422.939 418.549 347.088 276.852 180.245 -20.1211 c 1
 145.93 -24.0703 112.261 -22.3643 79.8291 -10.3594 c 1
 261.217 255.085 368.287 444.941 515.433 712.711 c 1
EndSplineSet
Fore
SplineSet
555.295 279.351 m 1
 551.795 255.549 561.464 201.983 581.331 147.941 c 0
 590.793 122.204 605.291 95.5723 619.94 84.0391 c 0
 641.447 67.1045 647.446 89.4287 649.229 102.847 c 0
 653.658 136.17 647.42 163.199 636.322 202.795 c 0
 612.837 286.593 572.515 286.064 555.295 279.351 c 1
576.203 402.606 m 1
 653.725 415.089 742.791 389.892 737.161 200.712 c 0
 733.876 90.3418 683.898 -24.999 593.941 -22 c 0
 495.396 -18.7148 457.948 68.0049 463.861 181.66 c 0
 471.106 320.92 515.762 357.071 576.203 402.606 c 1
152.033 587.744 m 1
 148.534 563.942 158.202 510.377 178.069 456.335 c 0
 187.531 430.598 202.029 403.966 216.678 392.433 c 0
 238.186 375.498 244.184 397.822 245.967 411.24 c 0
 250.396 444.562 244.158 471.593 233.061 511.188 c 0
 209.576 594.986 169.253 594.458 152.033 587.744 c 1
172.941 711 m 1
 250.463 723.482 339.529 698.285 333.899 509.105 c 0
 330.614 398.735 280.636 283.395 190.679 286.394 c 0
 92.1348 289.679 54.6865 376.398 60.5996 490.054 c 0
 67.8447 629.312 112.501 665.465 172.941 711 c 1
541.888 710.938 m 1
 596.133 719.119 651.854 719.212 700.888 710.938 c 1
 500.771 424.037 424.058 282.96 254.545 -13.4404 c 1
 203.963 -22.8174 149.808 -21.9482 96.5449 -13.4404 c 1
 283.874 254.46 392.698 443.987 541.888 710.938 c 1
EndSplineSet
Validated: 33
EndChar

StartChar: ampersand
Encoding: 38 38 5
Width: 741
VWidth: 1000
Flags: W
HStem: -12 81<212.9 361.8> 0 48<681.314 719.966> 627 57<244.2 370.3>
VStem: 53 126<104.1 274.4> 101 122<480.6 606.7> 388 116<453.4 606.8>
LayerCount: 2
Fore
SplineSet
317 396 m 1x2c
 366 433 388 469 388 521 c 0
 388 587 355 627 304 627 c 0
 258 627 223 592 223 543 c 0
 223 495 257 452 317 396 c 1x2c
355 361 m 1
 512 196 l 1
 540 232 558 270 567 309 c 1
 555 326 l 1
 502 335 l 1
 502 381 l 1
 711 381 l 1
 711 335 l 1
 641 322 l 1
 619 256 589 201 550 155 c 1
 641 55 l 1
 724 48 l 1
 724 0 l 1
 514 0 l 1x6c
 514 24 l 1
 472 72 l 1
 408 16 339 -12 263 -12 c 0
 139 -12 53 73 53 185 c 0xb4
 53 269 99 327 192 357 c 1
 131 406 101 457 101 515 c 0
 101 612 185 684 311 684 c 0
 430 684 504 618 504 530 c 0
 504 448 456 394 355 361 c 1
233 324 m 1
 198 297 179 263 179 225 c 0
 179 132 239 69 326 69 c 0xb4
 365 69 400 83 433 112 c 1
 233 324 l 1
EndSplineSet
Validated: 1
EndChar

StartChar: quotesingle
Encoding: 39 39 6
Width: 234
VWidth: 1000
Flags: W
VStem: 68.0742 133.278<486.407 695.905>
LayerCount: 2
Back
SplineSet
68.0742 687.498 m 1
 107.072 733 148.184 767.677 201.352 800.5 c 1
 276.408 687.646 221.805 473.492 66.7012 371.498 c 1
 58.4736 370.745 37.7139 383.457 30 389.461 c 1
 68.7363 488.572 100.935 572.506 68.0742 687.498 c 1
EndSplineSet
Fore
SplineSet
68.0742 687.498 m 1
 107.072 733 148.184 767.677 201.352 800.5 c 1
 276.408 687.646 221.805 473.492 66.7012 371.498 c 1
 58.4736 370.745 37.7139 383.457 30 389.461 c 1
 68.7363 488.572 100.935 572.506 68.0742 687.498 c 1
EndSplineSet
Validated: 33
EndChar

StartChar: parenleft
Encoding: 40 40 7
Width: 434
VWidth: 1000
Flags: W
VStem: 243.154 166.399<700.709 745.259>
LayerCount: 2
Back
SplineSet
171 700 m 5
 214.219 722.522 262.44 737.195 313 746 c 5
 129 423 105 296 300 28 c 1
 284.628 -25.9357 255.684 -80.1027 220 -124 c 1
 -41 120 -5 398 171 700 c 5
EndSplineSet
Fore
SplineSet
243.154 700.709 m 1
 286.569 722.854 358.917 736.896 409.553 745.259 c 1
 222.739 423.877 173.635 297.301 366.287 27.6094 c 1
 350.444 -26.1904 321.028 -80.1025 284.965 -123.687 c 1
 26.1045 122.582 64.5293 400.257 243.154 700.709 c 1
EndSplineSet
Validated: 37
EndChar

StartChar: parenright
Encoding: 41 41 8
Width: 417
VWidth: 1000
Flags: W
VStem: 40 165.172<-125.382 -76.4922>
LayerCount: 2
Back
SplineSet
142.002 -77.9961 m 1
 98.6413 -101.377 50.6619 -116.836 0.00195312 -123.996 c 1
 184.002 199.004 208.002 326.004 13.002 594.004 c 1
 31.9766 650.606 60.5115 704.737 93.002 746.004 c 1
 354.002 502.004 318.002 224.004 142.002 -77.9961 c 1
EndSplineSet
Fore
SplineSet
205.172 -76.4922 m 1
 162.353 -99.7646 90.3984 -115.696 40 -125.382 c 1
 218.335 200.779 264.111 328.598 64.4639 593.154 c 1
 78.8916 647.35 106.887 702.014 141.799 746.527 c 1
 407.018 507.119 375.874 228.533 205.172 -76.4922 c 1
EndSplineSet
Validated: 33
EndChar

StartChar: asterisk
Encoding: 42 42 9
Width: 571
VWidth: 980
Flags: W
HStem: 126.047 472.858<220.4 371.731>
VStem: 50.5928 485.102<355.612 434.967 355.612 355.612>
LayerCount: 2
Back
SplineSet
455.628 487.009 m 5
 482.52 460.992 500.858 426.421 494.499 367.151 c 5
 309.456 351.884 l 5
 446.212 225.972 l 5
 423.167 190.165 389.112 165.369 344.169 151.465 c 5
 271.754 312.098 l 5
 200.474 149.818 l 5
 156.682 165.416 121.668 189.794 98.4316 225.947 c 5
 236.752 351.994 l 5
 51.2568 367.151 l 5
 47.1719 424.146 63.085 461.144 90.1299 487.009 c 5
 249.054 400 l 5
 209.849 580.981 l 5
 251.979 602.776 294.092 603.764 336.187 580.981 c 5
 297.127 401.516 l 5
 455.628 487.009 l 5
EndSplineSet
Fore
SplineSet
491.657 504.391 m 1
 520.103 476.873 542.422 418.302 535.695 355.612 c 1
 368.002 335.85 l 1
 487.154 213.845 l 1
 462.78 175.972 412.136 142.47 364.595 127.762 c 1
 291.32 267.5 l 1
 220.4 126.047 l 1
 174.08 142.546 122.572 175.605 97.9932 213.845 c 1
 218.752 336.009 l 1
 50.5928 355.612 l 1
 46.2734 415.897 66.0254 476.954 94.6338 504.312 c 1
 240.922 438.728 l 1
 214.844 598.827 l 1
 259.406 621.88 327.206 623.002 371.731 598.905 c 1
 345.788 441.027 l 1
 491.657 504.391 l 1
EndSplineSet
Validated: 33
EndChar

StartChar: plus
Encoding: 43 43 10
Width: 718
VWidth: 1068
Flags: W
HStem: 265.37 129.359<134.781 296.9 420.1 581.219>
VStem: 296.9 123.2<112.281 265.37 394.729 548.719>
LayerCount: 2
Back
SplineSet
406 91 m 1
 380.232 73.9453 355.754 64.7129 326 59 c 1
 326 278 l 1
 100 278 l 1
 105.713 307.754 114.945 336.232 132 362 c 1
 326 362 l 1
 326 549 l 1
 349.906 564.15 374.113 574.672 406 581 c 1
 406 362 l 1
 632 362 l 1
 625.672 330.113 615.15 301.906 600 278 c 1
 406 278 l 1
 406 91 l 1
EndSplineSet
Fore
SplineSet
420.1 112.281 m 5
 380.417 86.0166 342.721 77.2979 296.9 68.5 c 5
 296.9 265.37 l 5
 92 265.37 l 5
 100.799 311.191 108.517 355.047 134.781 394.729 c 5
 296.9 394.729 l 5
 296.9 548.719 l 5
 333.716 572.05 370.994 582.255 420.1 592 c 5
 420.1 394.729 l 5
 625.5 394.729 l 5
 615.755 345.624 604.551 302.185 581.219 265.37 c 5
 420.1 265.37 l 5
 420.1 112.281 l 5
EndSplineSet
Validated: 1
Substitution2: "saltMiscSAlt subtable" uniFB29
EndChar

StartChar: comma
Encoding: 44 44 11
Width: 282
VWidth: 1000
Flags: W
HStem: -222.105 439.105<91.1279 187.875>
VStem: 53 134.875<-207.409 217>
LayerCount: 2
Back
SplineSet
18.7227 41.998 m 1
 57.7207 87.5 98.832 122.177 152 155 c 1
 227.057 42.1465 172.453 -172.008 17.3496 -274.002 c 1
 9.12305 -274.755 -11.6377 -262.043 -19.3516 -256.039 c 1
 19.3848 -156.928 51.583 -72.9941 18.7227 41.998 c 1
EndSplineSet
Fore
SplineSet
64.9541 92.8115 m 1
 99.8379 141.539 137.771 179.668 187.875 217 c 1
 272.482 111.117 236.75 -106.981 91.1279 -222.105 c 1
 82.998 -223.572 61.208 -212.719 53 -207.409 c 1
 82.9512 -105.3 107.712 -18.8789 64.9541 92.8115 c 1
EndSplineSet
Validated: 33
EndChar

StartChar: hyphen
Encoding: 45 45 12
Width: 498
VWidth: 1000
Flags: W
HStem: 217.4 160.2<122.406 389>
VStem: 60 393.406<217.4 377.6>
LayerCount: 2
Back
SplineSet
25 208.5 m 1
 36.2227 269.886 56.3662 325.095 93 386.5 c 1
 419 386.5 l 1
 406.022 319.671 381.595 256.335 349 208.5 c 1
 25 208.5 l 1
EndSplineSet
Fore
SplineSet
60 217.4 m 1
 69.2939 272.647 87.7021 322.335 122.406 377.6 c 1
 453.406 377.6 l 5
 442.528 317.454 420.092 260.451 389 217.4 c 5
 60 217.4 l 1
EndSplineSet
Validated: 1
EndChar

StartChar: period
Encoding: 46 46 13
Width: 333
VWidth: 1000
Flags: W
HStem: -20 232<165 178>
VStem: 55 228<94 96>
LayerCount: 2
Back
SplineSet
140 212 m 5
 190.979 178.627 223.395 145.741 258 94 c 5
 228.087 48.2041 191.569 8.79102 153 -20 c 5
 103.499 8.70215 62.126 48.4512 30 96 c 5
 59.1406 141.499 99.9941 187.876 140 212 c 5
EndSplineSet
Fore
SplineSet
165 212 m 5
 215.979 178.627 248.395 145.741 283 94 c 5
 253.087 48.2041 216.569 8.79102 178 -20 c 5
 128.499 8.70215 87.126 48.4512 55 96 c 5
 84.1406 141.499 124.994 187.876 165 212 c 5
EndSplineSet
Validated: 1
EndChar

StartChar: slash
Encoding: 47 47 14
Width: 543
VWidth: 1000
Flags: W
VStem: 22 498<-35 727.503>
LayerCount: 2
Fore
SplineSet
361 727.503 m 1
 414.044 736.115 469.75 736.213 520 727.503 c 1
 362 425.503 306 277 180 -35 c 1
 130.796 -44.8701 76.5137 -43.9561 22 -35 c 1
 170 247 251 446.503 361 727.503 c 1
EndSplineSet
Validated: 33
EndChar

StartChar: zero
Encoding: 48 48 15
Width: 587
VWidth: 1000
Flags: W
VStem: 66.0332 471.204<246.179 426.097 336.139 368.987>
LayerCount: 2
Back
SplineSet
215.029 552.76 m 1
 188.977 505.188 181.163 389.749 202.569 268.451 c 0
 212.764 210.684 236.947 148.661 271.664 117.802 c 4
 322.636 72.4932 354.939 115.814 369.077 142.721 c 4
 404.19 209.551 404.19 268.451 398.527 355.67 c 0
 386.541 540.259 269.399 558.424 215.029 552.76 c 1
249.01 708.294 m 1
 382.67 729.815 536.23 686.371 526.523 360.2 c 0
 520.859 169.906 434.692 -28.957 279.594 -23.7871 c 0
 109.688 -18.123 45.123 131.394 55.3174 327.352 c 0
 67.8086 567.455 144.802 629.784 249.01 708.294 c 1
EndSplineSet
Fore
SplineSet
225.744 561.547 m 1
 199.692 513.975 191.879 398.536 213.284 277.238 c 0
 223.479 219.471 243.586 172.228 278.303 141.368 c 0
 329.274 96.0596 361.831 139.248 375.716 166.287 c 0
 404.216 221.787 414.216 290.787 409.242 364.457 c 0
 396.784 549.016 280.113 567.211 225.744 561.547 c 1
259.726 717.081 m 1
 393.386 738.604 546.944 695.158 537.237 368.987 c 0
 531.573 178.693 445.406 -20.1699 290.31 -15 c 0
 120.403 -9.33594 55.8389 140.181 66.0332 336.139 c 0
 78.5244 576.242 155.518 638.571 259.726 717.081 c 1
EndSplineSet
Validated: 33
EndChar

StartChar: one
Encoding: 49 49 16
Width: 535
VWidth: 1000
Flags: W
HStem: 0 178<131.555 230.1 354.697 416.996>
VStem: 230.1 124.597<178 488.002>
LayerCount: 2
Back
SplineSet
348.484 717.003 m 1
 348.484 717.003 348.484 411.172 348.484 176.702 c 1
 494.604 176.702 l 1
 486.675 127.996 451.561 45.3086 410.783 0 c 1
 43.7871 0 l 1
 52.8486 66.8301 86.8301 133.659 125.342 176.702 c 1
 223.887 176.702 l 1
 223.887 322.821 223.887 327.352 223.887 449.684 c 0
 223.887 478.002 213.692 494.992 188.773 507.452 c 8
 137.529 533.074 101.555 547.097 50.583 557.291 c 1
 127.607 630.917 243.143 692.083 348.484 717.003 c 1
EndSplineSet
Fore
SplineSet
354.697 727.003 m 5
 354.697 727.003 354.697 412.47 354.697 178 c 5
 500.817 178 l 5
 483.213 115 455.213 53 416.996 0 c 5
 50 0 l 5
 66.2129 60 98.2129 127 131.555 178 c 5
 230.1 178 l 5
 230.1 324.119 230.1 337.352 230.1 459.684 c 4
 230.1 488.002 219.905 504.992 194.986 517.452 c 12
 143.743 543.075 107.768 557.097 56.7959 567.291 c 5
 133.82 640.917 249.355 702.083 354.697 727.003 c 5
EndSplineSet
Validated: 1
EndChar

StartChar: two
Encoding: 50 50 17
Width: 509
VWidth: 1000
Flags: W
HStem: 0 178<205.649 399.886>
VStem: 55 419.643<0 178>
LayerCount: 2
Back
SplineSet
139.066 700.613 m 1
 225.152 736.86 361.108 732.753 422.845 651.907 c 0
 470.419 589.608 480.878 489.062 407.253 392.783 c 0
 340.665 305.708 237.612 249.361 204.764 178 c 1
 473.757 178 l 1
 463.941 120.431 435.941 51 399 0 c 1
 54.1143 0 l 1
 56 61 60.7686 106.001 85.8301 167.641 c 16
 127.739 270.717 219.294 328.17 268 395 c 0
 323.196 470.734 287.786 535.268 254.265 553.146 c 0
 203.293 580.331 136.229 575.186 66 548 c 1
 80 606 104 654.994 139.066 700.613 c 1
EndSplineSet
Fore
SplineSet
139.952 700.613 m 1
 226.038 736.86 361.994 732.753 423.73 651.907 c 0
 471.305 589.608 481.764 489.062 408.139 392.783 c 0
 341.551 305.708 238.498 249.361 205.649 178 c 1
 474.643 178 l 1
 464.827 120.431 436.827 51 399.886 0 c 1
 55 0 l 1
 56.8857 61 61.6543 106.001 86.7158 167.641 c 16
 128.625 270.717 220.18 328.17 268.886 395 c 0
 324.082 470.734 288.672 535.268 255.15 553.146 c 0
 204.179 580.331 137.114 575.186 66.8857 548 c 1
 80.8857 606 104.886 654.994 139.952 700.613 c 1
EndSplineSet
Validated: 33
EndChar

StartChar: three
Encoding: 51 51 18
Width: 529
VWidth: 1000
Flags: W
HStem: 293.831 132.526<151.005 275.647>
VStem: 40 442.888<35.5742 335.741>
LayerCount: 2
Back
SplineSet
148.863 709.533 m 5
 196.438 740.117 330.096 735.586 392.396 678.951 c 4
 431.582 643.326 441.986 590.495 432.039 540.761 c 0
 424.11 501.116 394.66 467.135 360.679 437.685 c 1
 407.12 437.685 461.167 393.859 475.082 335.741 c 16
 494.338 255.319 474.408 171.348 412.783 97.873 c 16
 353.883 27.6455 288.187 -8.60156 193.038 -12 c 0
 143.181 -13.7803 66.1758 8.38867 32.1943 35.5742 c 1
 50.3174 100.139 89.9619 156.773 143.199 196.418 c 1
 162.455 187.356 247.408 121.659 316.503 156.773 c 0
 363.021 180.413 370.873 236.062 327.83 270.044 c 0
 290.312 299.664 240.612 299.494 143.199 293.831 c 1
 138.669 341.404 149.996 393.509 172.649 426.357 c 1
 255.337 434.286 300.646 486.391 273.461 528.301 c 0
 234.823 587.867 135.271 564.548 67.3086 544.159 c 1
 76.3701 597.396 111.483 675.553 148.863 709.533 c 5
EndSplineSet
Fore
SplineSet
154.669 705.533 m 1
 202.244 736.117 335.901 731.586 398.202 674.951 c 0
 437.388 639.326 447.792 588.495 437.845 538.761 c 0
 429.916 499.116 402.466 467.135 368.484 437.685 c 1
 414.926 437.685 468.972 393.859 482.888 335.741 c 16
 502.144 255.319 482.213 171.349 420.589 97.873 c 16
 361.688 27.6455 295.993 -8.60156 200.844 -12 c 0
 150.986 -13.7803 73.9814 8.38867 40 35.5742 c 1
 66.8057 97 104.806 152 151.005 196.418 c 1
 170.261 187.356 255.214 121.659 324.309 156.773 c 0
 370.827 180.413 378.679 236.062 335.636 270.044 c 0
 298.118 299.664 248.418 299.494 151.005 293.831 c 1
 151.806 341 160.806 388 180.455 426.357 c 1
 263.143 434.286 308.452 486.391 281.267 528.301 c 0
 242.629 587.867 143.077 564.548 75.1143 544.159 c 1
 94.8057 610 120.806 665 154.669 705.533 c 1
EndSplineSet
Validated: 33
EndChar

StartChar: four
Encoding: 52 52 19
Width: 578
VWidth: 1000
Flags: W
HStem: 139.569 168.774<160.271 312.991 439.855 498.258>
VStem: 312.991 126.864<90.8633 139.569 308.343 552>
LayerCount: 2
Back
SplineSet
291.734 549.608 m 5
 215.844 504.301 143.351 408.021 149.014 308.343 c 5
 291.734 308.343 l 5
 291.734 549.608 l 5
431.058 705.922 m 5
 435.588 653.817 418.598 601.713 418.598 579.059 c 4
 418.598 308.343 l 5
 538.664 308.343 l 5
 536.399 256.238 508.081 182.612 472.968 139.569 c 5
 415.199 139.569 l 5
 415.199 90.8633 l 5
 395.943 37.626 346.104 -17.877 294 -36 c 5
 292.867 139.569 l 5
 57.2646 139.569 l 5
 45.9375 172.418 47.0703 235.85 53.8662 304.944 c 5
 66.1055 406.548 95.667 470.727 129.758 520.158 c 4
 205.937 630.618 322.317 713.851 431.058 705.922 c 5
EndSplineSet
Fore
SplineSet
312.991 552 m 1
 233.258 512 154.608 408.021 160.271 308.343 c 1
 312.991 308.343 l 1
 312.991 552 l 1
452.315 721.922 m 1
 456.846 669.817 439.855 617.713 439.855 595.059 c 0
 439.855 308.343 l 1
 563.953 308.343 l 1
 555.289 251 532.289 193 498.258 139.569 c 1
 436.456 139.569 l 1
 436.456 90.8633 l 1
 410.258 45 364.258 3 315.258 -25 c 1
 314.124 139.569 l 1
 68.5225 139.569 l 1
 57.1953 172.418 58.3281 235.85 65.124 304.944 c 1
 77.3633 406.548 111.925 486.727 146.016 536.158 c 0
 222.194 646.618 343.574 729.851 452.315 721.922 c 1
EndSplineSet
Validated: 33
EndChar

StartChar: five
Encoding: 53 53 20
Width: 527
VWidth: 1000
Flags: W
HStem: -13.5 155.261<204.745 324.153> 543.5 157.622<223.175 408.508>
VStem: 50 442.855<22.7471 701.123>
LayerCount: 2
Back
SplineSet
195.437 756.82 m 5
 203.365 729.635 193.171 710.379 218.091 691.123 c 5
 476.348 691.123 l 5
 465.021 626.559 436 575.5 392 533.5 c 5
 195.437 533.5 l 5
 184.108 510.846 181.844 472.511 193.171 445.326 c 5
 260.001 447.592 367.535 451.177 425.376 380.762 c 4
 477.48 317.33 474.572 220.157 419.712 122.505 c 4
 363.077 21.6943 286.804 -12.2822 204 -13.5 c 4
 126.977 -14.6328 66.9434 9.1543 37.4922 22.7471 c 5
 48.8193 85.0459 83.2988 134.965 126.342 172.344 c 5
 152.394 162.149 205.522 140.355 249.807 141.761 c 4
 321.167 144.026 349.484 180.159 349.484 208.5 c 4
 349.484 237.95 323.434 265.908 275.858 279.5 c 4
 215.562 296.728 158.059 290.827 107.086 290.827 c 5
 86.6973 380.311 68.5732 456.653 79.9004 555.198 c 5
 82.166 641.284 156.925 723.972 195.437 756.82 c 5
EndSplineSet
Fore
SplineSet
199.508 748.5 m 5
 205.008 728 211.508 715.667 223.175 701.122 c 5
 492.855 701.123 l 5
 475.508 640 445.508 586 408.508 543.5 c 5
 207.944 543.5 l 5
 194.508 514 194.508 477 205.679 445.326 c 5
 272.509 447.592 380.043 451.177 437.884 380.762 c 4
 489.988 317.33 487.08 220.157 432.22 122.505 c 4
 375.585 21.6943 299.312 -12.2822 216.508 -13.5 c 4
 139.484 -14.6328 79.4512 9.1543 50 22.7471 c 5
 68.5078 78 97.5078 131 138.85 172.344 c 5
 164.901 162.149 218.03 140.355 262.314 141.761 c 4
 333.675 144.026 361.992 180.159 361.992 208.5 c 4
 361.992 237.95 335.941 265.908 288.366 279.5 c 4
 228.069 296.728 170.566 290.827 119.594 290.827 c 5
 99.2051 380.311 81.0811 456.653 92.4082 555.198 c 5
 99.5078 645.5 155.008 709 199.508 748.5 c 5
EndSplineSet
Validated: 33
EndChar

StartChar: six
Encoding: 54 54 21
Width: 585
VWidth: 1000
Flags: W
VStem: 75.7314 453.081<109.5 203.515>
LayerCount: 2
Back
SplineSet
212.896 320.556 m 1
 192.508 288.84 169.851 225.98 211.764 163.109 c 0
 243.479 115.536 308.044 99.6777 365.812 122.332 c 1
 385.067 160.844 400.926 223.143 359.016 278.646 c 8
 323.291 325.957 248.01 340.944 212.896 320.556 c 1
227.621 658.102 m 1
 292.186 693.216 376.006 715.87 449.632 718.135 c 1
 399.793 629.784 317.105 516.514 266.134 427.03 c 1
 296.717 444.021 359.029 469.98 397.527 468.94 c 0
 439.438 467.808 475.252 435.225 500.604 391.916 c 16
 527.788 345.476 531.188 262.788 513.062 197.091 c 0
 486.664 101.394 426.978 36.2461 342.024 -11.3271 c 1
 186.844 -40.7773 90.5645 19.2559 59.9814 103.076 c 0
 26.9463 193.618 50.9199 305.83 86.0332 377.19 c 0
 111.321 428.583 227.621 658.102 227.621 658.102 c 1
EndSplineSet
Fore
SplineSet
210.75 328.924 m 5
 184.75 285.424 183.75 228.424 227.514 169.533 c 4
 261.617 123.642 323.794 106.102 381.562 128.756 c 5
 400.817 167.268 416.676 229.567 374.766 285.07 c 12
 334.866 337.911 245.864 349.312 210.75 328.924 c 5
243.371 664.526 m 5
 308.75 696 388.75 718 465.382 724.559 c 5
 415.543 636.208 327.75 528.424 263.988 435.398 c 5
 316.75 459.424 374.779 476.404 413.277 475.364 c 4
 455.188 474.232 491.003 441.65 516.354 398.34 c 20
 543.538 351.9 546.938 269.212 528.812 203.515 c 4
 502.414 107.818 442.728 42.6699 357.773 -4.90332 c 5
 202.594 -34.3535 106.314 25.6797 75.7314 109.5 c 4
 42.6963 200.042 66.6699 312.254 101.783 383.614 c 4
 127.071 435.007 243.371 664.526 243.371 664.526 c 5
EndSplineSet
Validated: 33
EndChar

StartChar: seven
Encoding: 55 55 22
Width: 537
VWidth: 1000
Flags: W
HStem: 532.127 168.773<176.745 367>
VStem: 40 482.447<532.127 700.9>
LayerCount: 2
Back
SplineSet
158.972 758.669 m 5
 169.166 731.483 166.901 700.9 194.086 700.9 c 14
 504.447 700.9 l 5
 504.447 577.436 421.76 472.094 354.93 356.559 c 12
 305.102 270.411 272.242 161.732 282.438 111.894 c 5
 239.395 50.7275 177.096 4.28711 108 -19.5 c 5
 88.7441 21.2773 96.2666 112.211 123.858 188.918 c 20
 157.677 282.933 241.659 390.539 337.939 532.127 c 5
 28.7109 532.127 l 5
 44.5693 597.824 92.1426 700.9 158.972 758.669 c 5
EndSplineSet
Fore
SplineSet
176.972 758.669 m 1
 187.166 731.483 184.901 700.9 212.086 700.9 c 10
 522.447 700.9 l 1
 522.447 577.436 439.76 472.094 372.93 356.559 c 8
 322.455 269.298 290 167 302 108 c 1
 252 51 196 10 126 -19.5 c 1
 106.744 21.2773 114.266 112.212 141.858 188.918 c 16
 175.677 282.933 270.72 390.539 367 532.127 c 1
 40 532.127 l 1
 74.2891 618 119 692 176.972 758.669 c 1
EndSplineSet
Validated: 33
EndChar

StartChar: eight
Encoding: 56 56 23
Width: 553
VWidth: 1000
Flags: W
VStem: 60.0156 448.549<114.016 291.301 166.636 207.251>
LayerCount: 2
Fore
SplineSet
226.523 302.018 m 1
 198.205 270.428 184.612 216.275 206.135 176.79 c 0
 229.598 133.742 266.097 107.53 306.944 101.203 c 0
 357.917 93.3047 398.234 122.829 393.03 163.253 c 0
 387.367 207.251 294.485 255.763 226.523 302.018 c 1
323.938 437.398 m 1
 363.58 474.628 370.377 503.961 364.714 529.909 c 0
 352.68 585.042 285.424 621.291 242.382 615.65 c 1
 218.595 598.727 199.339 572.78 214.063 533.294 c 0
 224.544 505.192 270.698 466.73 323.938 437.398 c 1
261.638 719.442 m 1
 376.041 730.724 477.965 697.812 496.107 594.214 c 0
 513.098 497.191 439.473 424.988 395.297 388.888 c 1
 447.4 357.298 513.568 306.925 508.565 207.251 c 0
 502.902 94.4326 419.083 -11.6152 260.505 -15 c 0
 157.451 -17.1992 58.5898 45.9092 60.0156 166.636 c 0
 61.1484 262.532 116.65 298.633 159.693 347.146 c 1
 112.119 394.527 77.0068 424.988 79.2715 510.73 c 0
 81.5254 596.003 141.569 677.699 261.638 719.442 c 1
EndSplineSet
Validated: 33
EndChar

StartChar: nine
Encoding: 57 57 24
Width: 587
VWidth: 1000
Flags: W
VStem: 76.3643 455.348<527.566 598.926>
LayerCount: 2
Back
SplineSet
205.437 579.945 m 1
 170.322 530.106 174.854 455.348 216.764 408.906 c 0
 253.887 367.771 313.044 355.67 359.484 374.926 c 1
 383.271 421.366 396.869 492.517 357.219 540.301 c 0
 313.044 593.537 243.948 592.405 205.437 579.945 c 1
221.295 706.809 m 1
 330.034 731.729 458.342 720.036 514.665 594.67 c 0
 549.779 516.514 520.329 394.182 478.419 306.963 c 0
 438.912 224.747 408.19 158.579 336.83 37.3789 c 1
 276.797 0 199.773 -20.3887 119.351 -19.2559 c 1
 151.066 45.3086 234.887 158.579 303.982 265.053 c 1
 271.134 254.858 232.621 240.134 171.455 223.143 c 1
 46.8574 248.062 15.1426 407.773 59.3174 523.31 c 0
 93.2236 611.987 146.536 662.633 221.295 706.809 c 1
EndSplineSet
Fore
SplineSet
222.484 584.201 m 1
 187.368 534.362 191.901 459.604 233.811 413.162 c 0
 270.934 372.027 335.109 348.873 381.549 368.129 c 1
 411.047 426.256 413.915 496.772 374.266 544.557 c 0
 330.091 597.793 260.994 596.661 222.484 584.201 c 1
238.342 711.064 m 1
 347.08 735.985 475.389 724.292 531.712 598.926 c 0
 566.825 520.77 537.375 398.438 495.466 311.219 c 0
 455.958 229.003 425.236 162.835 353.876 41.6348 c 1
 289.047 7.5 215.547 -13 135.047 -19.5 c 1
 166.761 45.0645 263.951 159.782 333.047 266.256 c 1
 294.047 254.256 256.047 245.256 203.047 232.256 c 1
 78.4492 257.175 32.1895 412.029 76.3643 527.566 c 0
 110.271 616.243 163.582 666.889 238.342 711.064 c 1
EndSplineSet
Validated: 33
EndChar

StartChar: colon
Encoding: 58 58 25
Width: 335
VWidth: 1000
Flags: W
HStem: -22 588<167 178>
VStem: 55 230<94 448>
LayerCount: 2
Back
SplineSet
143 566 m 1
 199 534 231 501 261 448 c 1
 236 398 199 359 156 334 c 1
 101 359 60 399 33 450 c 1
 60 501 101 547 143 566 c 1
141 210 m 1
 197 178 229 145 259 92 c 1
 234 42 197 3 154 -22 c 1
 99 3 58 43 31 94 c 1
 58 145 99 191 141 210 c 1
EndSplineSet
Fore
SplineSet
167 566 m 1
 219.095 527.859 252.165 496.54 285 448 c 1
 255.324 403 217.711 364.656 180 334 c 1
 127.554 365.131 86.7402 405.58 57 450 c 1
 87.5146 495.667 128.515 541.667 167 566 c 1
165 210 m 1
 218.653 170.559 251.156 139.155 283 92 c 1
 254.588 48.2324 217.141 10.0498 178 -22 c 1
 126.86 7.86426 86.1416 48.2197 55 94 c 1
 86.9014 140.877 127.565 187.16 165 210 c 1
EndSplineSet
Validated: 1
EndChar

StartChar: semicolon
Encoding: 59 59 26
Width: 331
VWidth: 1000
Flags: W
VStem: 53 228<447 449>
LayerCount: 2
Back
SplineSet
64.7227 42 m 1
 93.5791 89.9023 140.091 129.23 198 155.002 c 1
 273.057 42.1484 218.453 -172.006 63.3496 -274 c 1
 52.499 -277.391 31.6865 -264.732 26.6484 -256.037 c 1
 65.3848 -156.926 97.583 -72.9922 64.7227 42 c 1
123 566 m 1
 179 534 211 501 241 448 c 1
 216 398 179 359 136 334 c 1
 81 359 40 399 13 450 c 1
 40 501 81 547 123 566 c 1
EndSplineSet
Fore
SplineSet
86.0791 92.8115 m 1
 120.963 141.539 158.896 179.668 209 217 c 1
 293.607 111.117 257.876 -106.981 112.253 -222.105 c 1
 104.123 -223.572 82.333 -212.719 74.125 -207.409 c 1
 104.076 -105.3 128.837 -18.8789 86.0791 92.8115 c 1
163 565 m 1
 213.979 531.627 246.395 498.741 281 447 c 1
 251.087 401.204 214.569 361.791 176 333 c 1
 126.499 361.702 85.126 401.451 53 449 c 1
 82.1406 494.499 122.994 540.876 163 565 c 1
EndSplineSet
Validated: 33
EndChar

StartChar: less
Encoding: 60 60 27
Width: 501
VWidth: 1000
Flags: W
HStem: 49 581<398 457>
VStem: 30 436.076<170 273.053>
LayerCount: 2
Back
SplineSet
13 273.053 m 17
 17.1963 306.989 26.1963 339.989 43.1963 372.989 c 9
 446.196 633.989 l 17
 443.196 593.989 435.196 563.989 419.049 531.232 c 9
 106.466 332.22 l 25
 451.196 129.989 l 17
 440.344 93.4043 424.547 67.4287 397.924 39 c 9
 13 273.053 l 17
EndSplineSet
Fore
SplineSet
30 273.053 m 17
 34.1963 306.988 43.1963 339.988 60.1963 372.988 c 9
 457 630 l 17
 458 583 451 535 429 484 c 9
 192.934 332.791 l 25
 466.076 170 l 17
 455.076 124 430.076 81 398 49 c 9
 30 273.053 l 17
EndSplineSet
Validated: 33
EndChar

StartChar: equal
Encoding: 61 61 28
Width: 767
VWidth: 1000
Flags: W
HStem: 160.2 117.6<154.004 613> 374 117.6<154.004 613>
VStem: 113 541.004<160.2 277.8>
LayerCount: 2
Back
SplineSet
159 261 m 1
 659 261 l 1
 652.673 229.113 642.15 200.907 627 177 c 1
 127 177 l 1
 132.713 206.754 141.945 235.232 159 261 c 1
159 447 m 1
 659 447 l 1
 652.673 415.113 642.15 386.907 627 363 c 1
 127 363 l 1
 132.713 392.754 141.945 421.232 159 447 c 1
EndSplineSet
Fore
SplineSet
154.004 277.8 m 1
 654.004 277.8 l 1
 644.259 233.158 630.713 193.67 613 160.2 c 1
 113 160.2 l 1
 121.902 201.855 134.187 241.725 154.004 277.8 c 1
154.004 491.6 m 1
 654.004 491.6 l 1
 644.259 446.958 630.713 407.47 613 374 c 1
 113 374 l 1
 121.902 415.655 134.187 455.524 154.004 491.6 c 1
EndSplineSet
Validated: 1
EndChar

StartChar: greater
Encoding: 62 62 29
Width: 501
VWidth: 1000
Flags: W
HStem: 25 581<59.0762 118.076>
VStem: 50 436.076<381.947 485>
LayerCount: 2
Back
SplineSet
490 381.947 m 17
 485.804 348.011 476.804 315.011 459.804 282.011 c 9
 63 25 l 17
 62 72 69 120 91 171 c 9
 327.066 322.209 l 25
 53.9238 485 l 17
 64.9238 531 89.9238 574 122 606 c 9
 490 381.947 l 17
EndSplineSet
Fore
SplineSet
486.076 381.947 m 17
 481.88 348.011 472.88 315.011 455.88 282.011 c 9
 59.0762 25 l 17
 58.0762 72 62.0762 112 84.0762 163 c 9
 328.076 319 l 25
 50 485 l 17
 61 531 86 574 118.076 606 c 9
 486.076 381.947 l 17
EndSplineSet
Validated: 33
EndChar

StartChar: question
Encoding: 63 63 30
Width: 491
VWidth: 1000
Flags: W
VStem: 55 391.301<593 606>
LayerCount: 2
Back
SplineSet
11 593 m 1
 41 669 88 729 157 763 c 1
 245.5 754.5 312.5 690.5 312 606 c 0
 311.373 500.002 235.776 480.806 228 416 c 0
 225 391 238.856 364 244.999 352 c 1
 231 316 208 284.5 174 260 c 1
 134 280 112.396 314.484 111.5 362 c 0
 110 441.5 195 474.5 167.5 534.5 c 8
 140.351 593.734 88 606.5 11 593 c 1
183 212 m 5
 239 180 271 147 301 94 c 1
 276 44 239 5 196 -20 c 1
 141 5 100 45 73 96 c 5
 100 147 141 193 183 212 c 5
EndSplineSet
Fore
SplineSet
55 593 m 1
 84.1504 663 114.15 712 167.15 764 c 1
 205.15 764 246.618 763.174 288.15 756 c 0
 398.15 737 446.742 663.385 446.301 606 c 0
 445.485 500.002 347.209 480.806 337.101 416 c 0
 333.2 391 351.213 364 359.199 352 c 1
 336.716 318.45 306.08 287.371 266.9 260 c 1
 214 287 187 329 191 375 c 0
 197.889 454.225 309 499 285 555 c 0
 263.507 605.15 155.101 606.5 55 593 c 1
256 212 m 1
 306.979 175.832 339.393 143.176 374 94 c 1
 344.016 46.8955 307.828 7.42285 269 -20 c 1
 219.715 10.1748 177.968 49.498 146 96 c 1
 179.499 146.979 218.899 192.984 256 212 c 1
EndSplineSet
Validated: 33
EndChar

StartChar: at
Encoding: 64 64 31
Width: 917
VWidth: 1000
Flags: W
HStem: -153 55<466 496> 57 70<390 442> 444 47<506 525> 468 20G<623 691> 643 49<493 540>
VStem: 75 76<230 264> 266 104<212 236> 802 51<358 392>
LayerCount: 2
Fore
SplineSet
533 442 m 1xef
 527 443 520 444 514 444 c 0
 435 444 370 356 370 233 c 0
 370 163 395 127 442 127 c 0
 473 127 503 149 533 190 c 1
 569 389 l 1
 533 442 l 1xef
530 134 m 1
 480 83 435 57 390 57 c 0
 319 57 266 118 266 217 c 0
 266 281 285 340 321 388 c 0
 369 454 441 491 510 491 c 0xef
 542 491 573 482 606 465 c 1
 623 488 l 1
 691 488 l 1xdf
 678 454 672 419 664 384 c 1
 628 214 l 2
 623 190 620 170 620 152 c 0
 620 133 634 118 654 118 c 0
 680 118 711 135 737 169 c 0
 778 221 802 295 802 369 c 0
 802 533 693 643 523 643 c 0
 423 643 337 609 270 545 c 0
 190 469 151 375 151 259 c 0
 151 43 289 -98 494 -98 c 0
 580 -98 666 -73 748 -25 c 1
 766 -65 l 1
 662 -124 559 -153 468 -153 c 0
 359 -153 261 -114 185 -40 c 0
 112 31 75 127 75 245 c 0
 75 378 123 491 217 578 c 0
 296 651 404 692 523 692 c 0
 722 692 853 563 853 373 c 0
 853 299 835 232 799 176 c 0
 750 99 673 54 609 54 c 0
 556 54 530 81 530 134 c 1
EndSplineSet
Validated: 1
EndChar

StartChar: A
Encoding: 65 65 32
Width: 651
VWidth: 1000
Flags: W
HStem: 0 21G<-11 204 399 669> 238 56<210 386> 658 20G<275 380>
LayerCount: 2
Fore
SplineSet
275 678 m 1
 380 678 l 1
 610 59 l 1
 669 49 l 1
 669 0 l 1
 399 0 l 1
 399 49 l 1
 462 55 l 1
 469 68 l 1
 409 238 l 1
 191 238 l 1
 131 69 l 1
 141 56 l 1
 204 49 l 1
 204 0 l 1
 -11 0 l 1
 -11 49 l 1
 49 58 l 1
 275 678 l 1
297 541 m 1
 210 294 l 1
 386 294 l 1
 297 541 l 1
EndSplineSet
Validated: 1
EndChar

StartChar: B
Encoding: 66 66 33
Width: 628
VWidth: 1000
Flags: W
HStem: 0 55<252 302> 316.116 56.8836<233 286> 617 54<252 300>
VStem: 104 130<69 315 372 603> 413 138<495 517> 450 140<175 209>
LayerCount: 2
Fore
SplineSet
29 671 m 1xf4
 329 671 l 2
 477 671 551 618 551 514 c 0xf8
 551 436 503 382 408 357 c 1
 525 355 590 294 590 196 c 0
 590 70 502 0 338 0 c 2
 29 0 l 1
 29 49 l 1
 88 54 l 1
 104 70 l 1
 104 603 l 1
 88 617 l 1
 29 622 l 1
 29 671 l 1xf4
234 373 m 1
 243 372 252 372 261 372 c 0
 365 372 413 412 413 502 c 0
 413 580 368 617 274 617 c 0
 261 617 248 616 234 615 c 1
 234 373 l 1
234 57 m 1
 251 56 267 55 282 55 c 0
 398 55 450 94 450 190 c 0xf4
 450 275 400 317 300 317 c 0
 284 317 262 317 234 315 c 1
 234 57 l 1
EndSplineSet
Validated: 1
EndChar

StartChar: C
Encoding: 67 67 34
Width: 638
VWidth: 1000
Flags: W
HStem: -12 63<390 428> 618 65<392 430>
VStem: 41 147<307 357>
LayerCount: 2
Fore
SplineSet
601 24 m 1
 534 0 464 -12 391 -12 c 0
 319 -12 256 4 207 33 c 0
 103 95 41 207 41 335 c 0
 41 437 77 526 145 591 c 0
 208 652 293 683 397 683 c 0
 466 683 534 670 601 646 c 1
 601 479 l 1
 527 479 l 1
 508 586 l 1
 494 603 l 1
 467 613 441 618 415 618 c 0
 278 618 188 513 188 336 c 0
 188 157 279 51 428 51 c 0
 445 51 465 54 489 60 c 1
 504 75 l 1
 529 196 l 1
 601 196 l 1
 601 24 l 1
EndSplineSet
Validated: 1
EndChar

StartChar: D
Encoding: 68 68 35
Width: 716
VWidth: 1000
Flags: W
HStem: 0 56<238 323> 615 56<238 323>
VStem: 106 132<69 601> 532 149<319 353>
LayerCount: 2
Fore
SplineSet
321 671 m 2
 553 671 681 545 681 335 c 0
 681 217 639 125 558 63 c 0
 496 15 421 0 321 0 c 2
 29 0 l 1
 29 49 l 1
 90 54 l 1
 106 70 l 1
 106 601 l 1
 90 617 l 1
 29 622 l 1
 29 671 l 1
 321 671 l 2
238 615 m 1
 238 56 l 1
 296 56 l 2
 455 56 532 148 532 336 c 0
 532 524 455 615 296 615 c 2
 238 615 l 1
EndSplineSet
Validated: 1
EndChar

StartChar: E
Encoding: 69 69 36
Width: 596
VWidth: 1000
Flags: W
HStem: 0 57<236 468> 317 60<236 366> 615 56<236 435>
VStem: 106 130<69 317 377 604>
LayerCount: 2
Fore
SplineSet
29 0 m 1
 29 49 l 1
 90 54 l 1
 106 70 l 1
 106 603 l 1
 90 617 l 1
 29 622 l 1
 29 671 l 1
 533 671 l 1
 533 514 l 1
 463 514 l 1
 448 602 l 1
 435 615 l 1
 236 615 l 1
 236 377 l 1
 366 377 l 1
 380 391 l 1
 390 463 l 1
 449 463 l 1
 449 231 l 1
 390 231 l 1
 380 303 l 1
 366 317 l 1
 236 317 l 1
 236 57 l 1
 468 57 l 1
 481 73 l 1
 498 179 l 1
 566 179 l 1
 566 0 l 1
 29 0 l 1
EndSplineSet
Validated: 1
EndChar

StartChar: F
Encoding: 70 70 37
Width: 552
VWidth: 1000
Flags: W
HStem: 0 21G<30 325> 303 61<238 372> 613 58<238 431>
VStem: 106 132<69 303 364 604>
LayerCount: 2
Fore
SplineSet
30 0 m 1
 30 49 l 1
 90 54 l 1
 106 70 l 1
 106 603 l 1
 90 617 l 1
 26 622 l 1
 26 671 l 1
 528 671 l 1
 528 503 l 1
 459 503 l 1
 444 600 l 1
 431 613 l 1
 238 613 l 1
 238 364 l 1
 372 364 l 1
 386 377 l 1
 396 450 l 1
 455 450 l 1
 455 217 l 1
 396 217 l 1
 386 290 l 1
 372 303 l 1
 238 303 l 1
 238 70 l 1
 255 54 l 1
 325 49 l 1
 325 0 l 1
 30 0 l 1
EndSplineSet
Validated: 1
EndChar

StartChar: G
Encoding: 71 71 38
Width: 710
VWidth: 1000
Flags: W
HStem: -12 67<391 433> 619 63<403 435>
VStem: 40 145<323 357> 488 128<57 263>
LayerCount: 2
Fore
SplineSet
398 330 m 1
 690 330 l 1
 690 281 l 1
 632 276 l 1
 616 262 l 1
 616 29 l 1
 539 2 465 -12 392 -12 c 0
 182 -12 40 132 40 340 c 0
 40 545 183 682 405 682 c 0
 471 682 542 671 616 649 c 1
 616 479 l 1
 543 479 l 1
 524 585 l 1
 509 603 l 1
 482 614 455 619 426 619 c 0
 277 619 185 515 185 340 c 0
 185 160 279 55 433 55 c 0
 443 55 462 56 488 58 c 1
 488 262 l 1
 472 276 l 1
 398 281 l 1
 398 330 l 1
EndSplineSet
Validated: 1
EndChar

StartChar: H
Encoding: 72 72 39
Width: 760
VWidth: 1000
Flags: W
HStem: 0 21G<30 313 451 733> 322 60<237 526> 651 20G<30 313 451 733>
VStem: 104 133<69 321 382 601> 526 133<69 321 382 601>
LayerCount: 2
Fore
SplineSet
30 671 m 1
 313 671 l 1
 313 622 l 1
 253 617 l 1
 237 601 l 1
 237 382 l 1
 526 382 l 1
 526 601 l 1
 511 617 l 1
 451 622 l 1
 451 671 l 1
 733 671 l 1
 733 622 l 1
 675 617 l 1
 659 601 l 1
 659 70 l 1
 675 54 l 1
 733 49 l 1
 733 0 l 1
 451 0 l 1
 451 49 l 1
 511 54 l 1
 526 70 l 1
 526 322 l 1
 237 322 l 1
 237 70 l 1
 253 54 l 1
 313 49 l 1
 313 0 l 1
 30 0 l 1
 30 49 l 1
 88 54 l 1
 104 70 l 1
 104 601 l 1
 88 617 l 1
 30 622 l 1
 30 671 l 1
EndSplineSet
Validated: 1
EndChar

StartChar: I
Encoding: 73 73 40
Width: 354
VWidth: 1000
Flags: W
HStem: 0 21G<30 329> 651 20G<30 329>
VStem: 112 134<69 603>
LayerCount: 2
Fore
SplineSet
30 0 m 1
 30 49 l 1
 96 54 l 1
 112 70 l 1
 112 603 l 1
 96 617 l 1
 30 622 l 1
 30 671 l 1
 329 671 l 1
 329 622 l 1
 262 617 l 1
 246 603 l 1
 246 70 l 1
 262 54 l 1
 329 49 l 1
 329 0 l 1
 30 0 l 1
EndSplineSet
Validated: 1
EndChar

StartChar: J
Encoding: 74 74 41
Width: 465
VWidth: 1000
Flags: W
HStem: -12 58<136 157> 651 20G<170 464>
VStem: 256 131<227 603>
LayerCount: 2
Fore
SplineSet
256 603 m 1
 240 617 l 1
 170 622 l 1
 170 671 l 1
 464 671 l 1
 464 622 l 1
 403 617 l 1
 387 603 l 1
 387 262 l 2
 387 75 318 -12 155 -12 c 0
 108 -12 61 -4 12 12 c 1
 12 192 l 1
 85 192 l 1
 108 60 l 1
 122 47 l 1
 127 47 133 46 138 46 c 0
 229 46 256 115 256 261 c 2
 256 603 l 1
EndSplineSet
Validated: 1
EndChar

StartChar: K
Encoding: 75 75 42
Width: 650
VWidth: 1000
Flags: W
HStem: 0 21G<30 314 465 672> 651 20G<30 314 422 647>
VStem: 106 133<69 294 341 603>
LayerCount: 2
Fore
SplineSet
30 0 m 1
 30 49 l 1
 91 54 l 1
 106 70 l 1
 106 603 l 1
 91 617 l 1
 30 622 l 1
 30 671 l 1
 314 671 l 1
 314 622 l 1
 255 617 l 1
 239 603 l 1
 239 341 l 1
 267 341 l 1
 484 604 l 1
 478 617 l 1
 422 622 l 1
 422 671 l 1
 647 671 l 1
 647 622 l 1
 577 615 l 1
 387 388 l 1
 600 55 l 1
 672 49 l 1
 672 0 l 1
 465 0 l 1
 465 35 l 1
 297 294 l 1
 239 294 l 1
 239 70 l 1
 255 54 l 1
 314 49 l 1
 314 0 l 1
 30 0 l 1
EndSplineSet
Validated: 1
EndChar

StartChar: L
Encoding: 76 76 43
Width: 543
VWidth: 1000
Flags: W
HStem: 0 58<238 430> 651 20G<27 315>
VStem: 105 133<69 603>
LayerCount: 2
Fore
SplineSet
27 0 m 1
 27 49 l 1
 88 54 l 1
 105 70 l 1
 105 603 l 1
 91 617 l 1
 27 622 l 1
 27 671 l 1
 315 671 l 1
 315 622 l 1
 254 617 l 1
 238 603 l 1
 238 58 l 1
 430 58 l 1
 443 74 l 1
 458 196 l 1
 532 196 l 1
 532 0 l 1
 27 0 l 1
EndSplineSet
Validated: 1
EndChar

StartChar: M
Encoding: 77 77 44
Width: 883
VWidth: 1000
Flags: W
HStem: 0 21G<25 252 378 450 586 863> 651 20G<25 287 598 863>
VStem: 103 72<73 602> 658 126<69 604>
LayerCount: 2
Fore
SplineSet
25 0 m 1
 25 49 l 1
 89 56 l 1
 103 74 l 1
 103 604 l 1
 91 617 l 1
 25 623 l 1
 25 671 l 1
 287 671 l 1
 287 643 l 1
 443 184 l 1
 598 642 l 1
 598 671 l 1
 863 671 l 1
 863 623 l 1
 795 617 l 1
 784 603 l 1
 784 70 l 1
 795 54 l 1
 863 49 l 1
 863 0 l 1
 586 0 l 1
 586 49 l 1
 648 54 l 1
 658 70 l 1
 658 607 l 1
 450 0 l 1
 378 0 l 1
 175 602 l 1
 175 74 l 1
 190 56 l 1
 252 49 l 1
 252 0 l 1
 25 0 l 1
EndSplineSet
Validated: 1
EndChar

StartChar: N
Encoding: 78 78 45
Width: 727
VWidth: 1000
Flags: W
HStem: 0 21G<26 254 522 634> 651 20G<25 255 482 710>
VStem: 103 73<73 537> 561 73<169 597>
LayerCount: 2
Fore
SplineSet
26 0 m 1
 26 48 l 1
 85 56 l 1
 103 74 l 1
 103 603 l 1
 89 617 l 1
 25 622 l 1
 25 671 l 1
 255 671 l 1
 255 644 l 1
 561 169 l 1
 561 597 l 1
 543 616 l 1
 482 624 l 1
 482 671 l 1
 710 671 l 1
 710 624 l 1
 651 616 l 1
 634 597 l 1
 634 0 l 1
 522 0 l 1
 176 537 l 1
 176 74 l 1
 192 56 l 1
 254 48 l 1
 254 0 l 1
 26 0 l 1
EndSplineSet
Validated: 1
EndChar

StartChar: O
Encoding: 79 79 46
Width: 752
VWidth: 1000
Flags: W
HStem: -16 61<360 394> 622 64<361.36 394>
VStem: 41 149<319 369> 567 150<303 353>
LayerCount: 2
Fore
SplineSet
41 339 m 0
 41 448 76 536 144 599 c 0
 207 657 285 686 378 686 c 0
 464 686 537 660 598 608 c 0
 675 542 717 446 717 333 c 0
 717 227 680 137 610 72 c 0
 549 15 469 -16 385 -16 c 0
 178 -16 41 126 41 339 c 0
380 622 m 0
 269 622 190 516 190 337 c 0
 190 153 271 45 378 45 c 0
 488 45 567 153 567 330 c 0
 567 515 489 622 380 622 c 0
EndSplineSet
Validated: 1
EndChar

StartChar: P
Encoding: 80 80 47
Width: 587
VWidth: 1000
Flags: W
HStem: 0 21G<29 324> 247.962 57.0379<272 297> 613 58<238 308>
VStem: 106 132<69 249 306 603> 430 138<447 481>
LayerCount: 2
Fore
SplineSet
29 0 m 1
 29 49 l 1
 88 54 l 1
 106 70 l 1
 106 603 l 1
 91 617 l 1
 25 622 l 1
 25 671 l 1
 295 671 l 2
 480 671 568 613 568 469 c 0
 568 331 474 247 306 247 c 0
 291 247 268 248 238 250 c 1
 238 70 l 1
 253 54 l 1
 324 49 l 1
 324 0 l 1
 29 0 l 1
238 307 m 1
 251 306 263 305 274 305 c 0
 378 305 430 359 430 465 c 0
 430 560 381 613 290 613 c 2
 238 613 l 1
 238 307 l 1
EndSplineSet
Validated: 1
EndChar

StartChar: Q
Encoding: 81 81 48
Width: 752
VWidth: 1000
Flags: W
HStem: 622 65<358 392>
VStem: 39 151<317 351> 568 152<317 351>
LayerCount: 2
Fore
SplineSet
454 -2 m 1
 457 -82 500 -118 589 -118 c 0
 617 -118 648 -114 681 -106 c 1
 681 -157 l 1
 617 -171 563 -178 516 -178 c 0
 378 -178 313 -125 313 -9 c 0
 313 -6 l 1
 146 20 39 153 39 336 c 0
 39 414 59 483 97 543 c 0
 154 631 257 687 374 687 c 0
 464 687 538 662 598 610 c 0
 676 543 720 446 720 332 c 0
 720 158 615 26 454 -2 c 1
190 339 m 0
 190 158 273 50 383 50 c 0
 490 50 568 156 568 335 c 0
 568 515 487 622 376 622 c 0
 268 622 190 517 190 339 c 0
EndSplineSet
Validated: 1
EndChar

StartChar: R
Encoding: 82 82 49
Width: 671
VWidth: 1000
Flags: W
HStem: 0 21G<31 313> 295 58<236 274> 614 57<236 304>
VStem: 106 130<69 295 352 604> 430 140<484 506>
LayerCount: 2
Fore
SplineSet
31 671 m 1
 335 671 l 2
 490 671 570 611 570 500 c 0
 570 408 511 350 398 329 c 1
 446 318 480 299 503 267 c 0
 534 223 542 169 561 119 c 0
 582 64 612 49 679 49 c 0
 683 49 687 49 692 49 c 1
 692 1 l 1
 657 -4 623 -7 592 -7 c 0
 549 -7 512 5 488 24 c 0
 436 64 427 109 411 157 c 0
 380 252 354 295 253 295 c 0
 248 295 242 295 236 295 c 1
 236 70 l 1
 252 54 l 1
 313 49 l 1
 313 0 l 1
 31 0 l 1
 31 49 l 1
 90 54 l 1
 106 70 l 1
 106 603 l 1
 90 617 l 1
 31 622 l 1
 31 671 l 1
236 614 m 1
 236 353 l 1
 249 352 261 352 272 352 c 0
 379 352 430 394 430 486 c 0
 430 568 379 614 282 614 c 2
 236 614 l 1
EndSplineSet
Validated: 1
EndChar

StartChar: S
Encoding: 83 83 50
Width: 568
VWidth: 1000
Flags: W
HStem: -11 65<234 274> 487 21G<425 497> 619 64<307 332>
VStem: 73 130<486 524> 381 136<149 194>
LayerCount: 2
Fore
SplineSet
59 22 m 1
 59 203 l 1
 135 203 l 1
 151 83 l 1
 164 68 l 1
 192 59 221 54 252 54 c 0
 333 54 381 94 381 149 c 0
 381 203 345 239 274 275 c 0
 234 295 187 312 143 349 c 0
 97 388 73 437 73 486 c 0
 73 597 166 683 309 683 c 0
 371 683 434 671 497 649 c 1
 497 487 l 1
 425 487 l 1
 408 591 l 1
 394 605 l 1
 376 614 353 619 321 619 c 0
 248 619 203 579 203 524 c 0
 203 478 231 448 284 416 c 0
 315 397 368 382 427 344 c 0
 485 307 517 253 517 194 c 0
 517 75 416 -11 252 -11 c 0
 188 -11 121 0 59 22 c 1
EndSplineSet
Validated: 1
EndChar

StartChar: T
Encoding: 84 84 51
Width: 603
VWidth: 1000
Flags: W
HStem: 0 21G<155 454> 494 21G<16 85 524 593> 614 57<116 237 372 492>
VStem: 237 135<69 614>
LayerCount: 2
Fore
SplineSet
16 671 m 1
 593 671 l 1
 593 494 l 1
 524 494 l 1
 507 601 l 1
 492 614 l 1
 372 614 l 1
 372 70 l 1
 389 54 l 1
 454 49 l 1
 454 0 l 1
 155 0 l 1
 155 49 l 1
 220 54 l 1
 237 70 l 1
 237 614 l 1
 117 614 l 1
 101 601 l 1
 85 494 l 1
 16 494 l 1
 16 671 l 1
EndSplineSet
Validated: 1
EndChar

StartChar: U
Encoding: 85 85 52
Width: 705
VWidth: 1000
Flags: W
HStem: -12 79<354 394> 651 20G<20 307 467 694>
VStem: 97 134<227 603> 546 73<243 599>
LayerCount: 2
Fore
SplineSet
20 671 m 1
 307 671 l 1
 307 622 l 1
 245 617 l 1
 231 603 l 1
 231 253 l 2
 231 124 274 67 394 67 c 0
 505 67 546 129 546 262 c 2
 546 599 l 1
 531 616 l 1
 467 622 l 1
 467 671 l 1
 694 671 l 1
 694 622 l 1
 633 616 l 1
 619 599 l 1
 619 252 l 2
 619 69 543 -12 355 -12 c 0
 256 -12 182 18 141 70 c 0
 102 121 97 180 97 257 c 2
 97 603 l 1
 83 617 l 1
 20 622 l 1
 20 671 l 1
EndSplineSet
Validated: 1
EndChar

StartChar: V
Encoding: 86 86 53
Width: 635
VWidth: 1000
Flags: W
HStem: -2 21G<272 373> 651 20G<-21 254 441 660>
LayerCount: 2
Fore
SplineSet
-21 671 m 1
 254 671 l 1
 254 622 l 1
 196 617 l 1
 185 602 l 1
 351 146 l 1
 512 602 l 1
 501 617 l 1
 441 622 l 1
 441 671 l 1
 660 671 l 1
 660 622 l 1
 595 609 l 1
 373 -2 l 1
 272 -2 l 1
 45 610 l 1
 -21 622 l 1
 -21 671 l 1
EndSplineSet
Validated: 1
EndChar

StartChar: W
Encoding: 87 87 54
Width: 946
VWidth: 1000
Flags: W
HStem: 0 21G<227 324 631 728> 651 20G<2 264 450 551 726 944>
LayerCount: 2
Fore
SplineSet
227 0 m 1
 65 608 l 1
 2 622 l 1
 2 671 l 1
 264 671 l 1
 264 623 l 1
 202 616 l 1
 194 602 l 1
 306 187 l 1
 450 671 l 1
 551 671 l 1
 699 176 l 1
 804 596 l 1
 792 610 l 1
 726 622 l 1
 726 671 l 1
 944 671 l 1
 944 622 l 1
 881 608 l 1
 728 0 l 1
 631 0 l 1
 476 512 l 1
 324 0 l 1
 227 0 l 1
EndSplineSet
Validated: 1
EndChar

StartChar: X
Encoding: 88 88 55
Width: 637
VWidth: 1000
Flags: W
HStem: 0 21G<0 231 354 644> 651 20G<14 297 409 633>
LayerCount: 2
Fore
SplineSet
14 671 m 1
 297 671 l 1
 297 623 l 1
 237 618 l 1
 229 605 l 1
 343 419 l 1
 473 602 l 1
 464 616 l 1
 409 623 l 1
 409 671 l 1
 633 671 l 1
 633 623 l 1
 571 615 l 1
 385 363 l 1
 577 61 l 1
 644 48 l 1
 644 0 l 1
 354 0 l 1
 354 48 l 1
 417 56 l 1
 424 69 l 1
 302 269 l 1
 160 71 l 1
 166 54 l 1
 231 48 l 1
 231 0 l 1
 0 0 l 1
 0 48 l 1
 64 58 l 1
 259 325 l 1
 77 613 l 1
 14 623 l 1
 14 671 l 1
EndSplineSet
Validated: 1
EndChar

StartChar: Y
Encoding: 89 89 56
Width: 610
VWidth: 1000
Flags: W
HStem: 0 21G<162 462> 651 20G<-11 262 409 627>
VStem: 245 133<68 264>
LayerCount: 2
Fore
SplineSet
-11 671 m 1
 262 671 l 1
 262 622 l 1
 206 617 l 1
 197 605 l 1
 334 351 l 1
 477 596 l 1
 469 612 l 1
 409 623 l 1
 409 671 l 1
 627 671 l 1
 627 622 l 1
 568 611 l 1
 378 288 l 1
 378 69 l 1
 394 55 l 1
 462 50 l 1
 462 0 l 1
 162 0 l 1
 162 50 l 1
 229 55 l 1
 245 69 l 1
 245 264 l 1
 53 612 l 1
 -11 622 l 1
 -11 671 l 1
EndSplineSet
Validated: 1
EndChar

StartChar: Z
Encoding: 90 90 57
Width: 592
VWidth: 1000
Flags: W
HStem: 0 59<194 450> 494 21G<62 133> 613 58<167 394>
LayerCount: 2
Fore
SplineSet
62 671 m 1
 544 671 l 1
 544 616 l 1
 194 59 l 1
 450 59 l 1
 460 73 l 1
 478 194 l 1
 550 194 l 1
 550 0 l 1
 44 0 l 1
 44 55 l 1
 394 613 l 1
 168 613 l 1
 149 601 l 1
 133 494 l 1
 62 494 l 1
 62 671 l 1
EndSplineSet
Validated: 1
EndChar

StartChar: bracketleft
Encoding: 91 91 58
Width: 499
VWidth: 1000
Flags: W
HStem: -170 145.07<243.1 365.81> 657.409 145.07<243.1 387>
VStem: 129 114.1<-24.9297 646>
LayerCount: 2
Back
SplineSet
209 661 m 1
 209 -45 l 1
 405 -45 l 1
 397 -79 380 -107 359 -134 c 1
 139 -134 l 1
 139 654 l 1
 153 693 166 719 190 750 c 1
 420 750 l 1
 412 717 395 687 372 661 c 1
 209 661 l 1
EndSplineSet
Fore
SplineSet
243.1 657.409 m 1
 243.1 -24.9297 l 1
 440.79 -24.9297 l 1
 427.75 -80.3496 400.04 -125.99 365.81 -170 c 1
 129 -170 l 1
 129 646 l 1
 151.819 709.569 173.01 751.949 212.13 802.479 c 1
 465.238 802.479 l 1
 452.199 748.689 424.488 699.789 387 657.409 c 1
 243.1 657.409 l 1
EndSplineSet
Validated: 1
EndChar

StartChar: backslash
Encoding: 92 92 59
Width: 543
VWidth: 1000
Flags: W
VStem: 22 498<-35 727.503>
LayerCount: 2
Fore
SplineSet
181 727.503 m 1
 291 446.503 372 247 520 -35 c 1
 465.486 -43.9561 411.204 -44.8701 362 -35 c 1
 236 277 180 425.503 22 727.503 c 1
 72.25 736.213 127.956 736.115 181 727.503 c 1
EndSplineSet
Validated: 33
EndChar

StartChar: bracketright
Encoding: 93 93 60
Width: 499
VWidth: 1000
Flags: W
HStem: -170 145.07<112.239 256.139> 657.408 145.071<133.429 256.139>
VStem: 256.139 114.099<-13.5215 657.408>
LayerCount: 2
Back
SplineSet
254.1 657.409 m 1
 254.1 -24.9297 l 1
 451.79 -24.9297 l 1
 438.75 -80.3496 411.04 -125.99 376.81 -170 c 1
 140 -170 l 1
 140 646 l 1
 162.819 709.569 184.01 751.949 223.13 802.479 c 1
 476.239 802.479 l 1
 463.199 748.689 435.489 699.789 398 657.409 c 1
 254.1 657.409 l 1
EndSplineSet
Fore
SplineSet
256.139 -24.9297 m 1
 256.139 657.408 l 1
 58.4492 657.408 l 1
 71.4893 712.828 99.1992 758.469 133.429 802.479 c 1
 370.238 802.479 l 1
 370.238 -13.5215 l 1
 347.42 -77.0898 326.229 -119.47 287.109 -170 c 1
 34 -170 l 1
 47.04 -116.21 74.75 -67.3096 112.239 -24.9297 c 1
 256.139 -24.9297 l 1
EndSplineSet
Validated: 1
EndChar

StartChar: asciicircum
Encoding: 94 94 61
Width: 1000
VWidth: 1000
Flags: W
HStem: 694 20G<447 552>
LayerCount: 2
Fore
SplineSet
552 714 m 1
 797 438 l 1
 746 438 l 1
 499 632 l 1
 252 438 l 1
 201 438 l 1
 447 714 l 1
 552 714 l 1
EndSplineSet
Validated: 1
EndChar

StartChar: underscore
Encoding: 95 95 62
Width: 500
VWidth: 1000
Flags: W
HStem: -236 84<0 500>
LayerCount: 2
Fore
SplineSet
500 -152 m 1
 500 -236 l 1
 0 -236 l 1
 0 -152 l 1
 500 -152 l 1
EndSplineSet
Validated: 1
EndChar

StartChar: grave
Encoding: 96 96 63
Width: 500
VWidth: 1000
Flags: W
HStem: 722 20G<86 210>
LayerCount: 2
Fore
SplineSet
86 742 m 1
 210 742 l 1
 307 552 l 1
 239 552 l 1
 86 742 l 1
EndSplineSet
Validated: 1
EndChar

StartChar: a
Encoding: 97 97 64
Width: 544
VWidth: 1000
Flags: W
HStem: -9 77<132.5 274.836> 0 44<481 534> 261 51<254.779 343> 446 53<201.619 319.605>
VStem: 40 132<83.2539 202.944> 63 138<347.984 437.6> 343 125<85.5854 261 307.643 423.543>
LayerCount: 2
Fore
SplineSet
343 57 m 1x76
 279 14 225 -9 171 -9 c 0
 94 -9 40 45 40 121 c 0xba
 40 236 135 265 344 312 c 1
 344 342 l 2
 344 414 315 446 249 446 c 0
 234 446 219 444 201 440 c 1
 201 346 l 1
 109 346 l 2
 79 346 63 356 63 383 c 0
 63 440 149 499 281 499 c 0
 421 499 468 450 468 322 c 2
 468 63 l 1
 481 49 l 1
 534 44 l 1
 534 0 l 1
 356 0 l 1
 343 57 l 1x76
343 98 m 1
 343 261 l 1
 225 235 172 209 172 143 c 0
 172 97 200 68 246 68 c 0
 272 68 304 78 343 98 c 1
EndSplineSet
Validated: 1
EndChar

StartChar: b
Encoding: 98 98 65
Width: 577
VWidth: 1000
Flags: W
HStem: -1 55<205 250> 719 20G<157 205>
VStem: 81 124<53 412 453 653> 413 134<244 271>
LayerCount: 2
Fore
SplineSet
157 739 m 1
 205 739 l 1
 205 453 l 1
 259 483 306 498 350 498 c 0
 464 498 547 406 547 271 c 0
 547 155 492 69 389 23 c 0
 352 7 296 -1 219 -1 c 0
 192 -1 l 2
 81 1 l 1
 81 653 l 1
 9 653 l 1
 9 692 l 1
 157 739 l 1
205 54 m 1
 216 53 227 53 237 53 c 0
 358 53 413 114 413 245 c 0
 413 359 360 420 268 420 c 0
 250 420 229 417 205 412 c 1
 205 54 l 1
EndSplineSet
Validated: 1
EndChar

StartChar: c
Encoding: 99 99 66
Width: 476
VWidth: 1000
Flags: W
HStem: -8 79<275 325> 448 49<290 308>
VStem: 35 136<236 264> 327 131<375 393>
LayerCount: 2
Fore
SplineSet
464 45 m 1
 400 10 339 -8 275 -8 c 0
 130 -8 35 93 35 238 c 0
 35 390 143 497 293 497 c 0
 396 497 458 449 458 388 c 0
 458 349 429 320 386 320 c 0
 364 320 345 326 327 339 c 1
 327 445 l 1
 317 447 309 448 302 448 c 0
 232 448 171 376 171 262 c 0
 171 142 232 71 325 71 c 0
 368 71 415 86 464 116 c 1
 464 45 l 1
EndSplineSet
Validated: 1
EndChar

StartChar: d
Encoding: 100 100 67
Width: 596
VWidth: 1000
Flags: W
HStem: -9 85<231 305> 0 21G<389 576> 444 56<294 317> 719 20G<465 511>
VStem: 37 134<230 255> 389 122<94 429 490 652>
LayerCount: 2
Fore
SplineSet
389 652 m 1xbc
 316 652 l 1
 316 692 l 1
 465 739 l 1
 511 739 l 1
 511 64 l 1
 525 48 l 1
 576 44 l 1
 576 0 l 1
 389 0 l 1x7c
 389 56 l 1
 332 14 282 -9 231 -9 c 0
 119 -9 37 88 37 232 c 0
 37 393 143 500 295 500 c 0
 322 500 353 497 389 490 c 1
 389 652 l 1xbc
389 95 m 1
 389 429 l 1
 360 439 336 444 315 444 c 0
 230 444 171 372 171 253 c 0
 171 141 222 76 305 76 c 0xbc
 329 76 357 83 389 95 c 1
EndSplineSet
Validated: 1
EndChar

StartChar: e
Encoding: 101 101 68
Width: 524
VWidth: 1000
Flags: W
HStem: -9 78<283 326> 255 53<170 361> 445 55<260 286>
VStem: 37 128<230 256>
LayerCount: 2
Fore
SplineSet
491 124 m 1
 491 50 l 1
 424 11 354 -9 284 -9 c 0
 135 -9 37 91 37 242 c 0
 37 395 140 500 284 500 c 0
 415 500 492 418 492 274 c 0
 492 268 492 261 492 255 c 1
 165 255 l 1
 165 252 l 0
 165 137 227 69 326 69 c 0
 379 69 433 87 491 124 c 1
361 308 m 1
 361 312 361 315 361 319 c 0
 361 402 329 445 274 445 c 0
 214 445 173 395 170 308 c 1
 361 308 l 1
EndSplineSet
Validated: 1
EndChar

StartChar: f
Encoding: 102 102 69
Width: 341
VWidth: 1000
Flags: W
HStem: 0 21G<31 301> 414 60<218 351>
VStem: 95 123<66 414 482.125 510.167>
LayerCount: 2
Fore
SplineSet
31 0 m 1
 31 46 l 1
 81 51 l 1
 95 67 l 1
 95 414 l 1
 30 414 l 1
 30 452 l 1
 95 482 l 1
 95 578 128 650 197 701 c 0
 234 729 277 743 318 743 c 0
 376 743 412 713 412 670 c 0
 412 643 392 621 354 608 c 1
 257 694 l 1
 231 667 218 616 218 542 c 0
 218 540 218 537 218 534 c 2
 218 474 l 1
 352 474 l 1
 352 414 l 1
 218 414 l 1
 218 66 l 1
 234 51 l 1
 301 46 l 1
 301 0 l 1
 31 0 l 1
EndSplineSet
Validated: 1
EndChar

StartChar: g
Encoding: 103 103 70
Width: 551
VWidth: 1000
Flags: W
HStem: -217 53<240 272> 168 45<255 275> 411 57<447 555> 450 47<255 275>
VStem: 34 122<-81 -64> 55 128<323 344> 346 123<323 344> 391 119<-70 -40>
LayerCount: 2
Fore
SplineSet
407 468 m 1xe4
 555 468 l 1
 555 411 l 1
 447 411 l 1
 462 385 469 360 469 334 c 0xe6
 469 238 389 168 257 168 c 0
 248 168 238 168 228 169 c 1
 223 156 220 144 220 132 c 0
 220 124 221 115 223 105 c 1
 291 96 l 2
 436 75 510 45 510 -40 c 0
 510 -134 402 -217 241 -217 c 0
 109 -217 34 -162 34 -80 c 0xe9
 34 -18 73 24 137 30 c 1
 128 49 124 66 124 80 c 0
 124 113 142 142 179 175 c 1
 98 198 55 253 55 325 c 0
 55 427 136 497 269 497 c 0xd4
 312 497 358 488 407 468 c 1xe4
267 450 m 0xd6
 217 450 183 407 183 334 c 0
 183 258 217 213 265 213 c 0
 312 213 346 259 346 335 c 0
 346 407 311 450 267 450 c 0xd6
198 19 m 1
 170 -4 156 -32 156 -64 c 0
 156 -118 205 -164 272 -164 c 0
 344 -164 391 -121 391 -70 c 0xc9
 391 -21 354 -7 283 5 c 2
 198 19 l 1
EndSplineSet
Validated: 1
EndChar

StartChar: h
Encoding: 104 104 71
Width: 597
VWidth: 1000
Flags: W
HStem: 0 21G<24 271 341 586> 411 87<308 383> 719 20G<164 212>
VStem: 89 123<63 394 437 653> 398 122<63 321>
LayerCount: 2
Fore
SplineSet
164 739 m 1
 212 739 l 1
 212 437 l 1
 284 476 338 498 383 498 c 0
 475 498 520 443 520 332 c 2
 520 64 l 1
 533 49 l 1
 586 45 l 1
 586 0 l 1
 341 0 l 1
 341 45 l 1
 384 49 l 1
 398 64 l 1
 398 303 l 2
 398 377 370 411 308 411 c 0
 282 411 250 405 212 394 c 1
 212 64 l 1
 227 49 l 1
 271 45 l 1
 271 0 l 1
 24 0 l 1
 24 45 l 1
 75 49 l 1
 89 64 l 1
 89 653 l 1
 16 653 l 1
 16 692 l 1
 164 739 l 1
EndSplineSet
Validated: 1
EndChar

StartChar: i
Encoding: 105 105 72
Width: 305
VWidth: 1000
Flags: W
HStem: 0 21G<30 292> 476 20G<173 221> 575 149<157 175>
VStem: 98 123<63 409>
LayerCount: 2
Fore
SplineSet
162 724 m 0
 207 724 237 692 237 651 c 0
 237 606 205 575 163 575 c 0
 123 575 90 605 90 649 c 0
 90 692 121 724 162 724 c 0
173 496 m 1
 221 496 l 1
 221 64 l 1
 236 49 l 1
 292 45 l 1
 292 0 l 1
 30 0 l 1
 30 45 l 1
 84 49 l 1
 98 64 l 1
 98 409 l 1
 32 409 l 1
 32 449 l 1
 173 496 l 1
EndSplineSet
Validated: 1
EndChar

StartChar: j
Encoding: 106 106 73
Width: 297
VWidth: 1000
Flags: W
HStem: 476 20G<189 231> 575 149<159 179>
VStem: 109 122<57 409>
LayerCount: 2
Fore
SplineSet
109 409 m 1
 38 409 l 1
 38 448 l 1
 189 496 l 1
 231 496 l 1
 231 98 l 2
 231 -2 222 -76 177 -134 c 0
 138 -184 75 -214 11 -214 c 0
 -45 -214 -80 -184 -80 -144 c 0
 -80 -112 -58 -85 -22 -78 c 1
 76 -169 l 1
 101 -135 109 -69 109 29 c 2
 109 409 l 1
94 649 m 0
 94 693 124 724 169 724 c 0
 210 724 242 692 242 648 c 0
 242 607 208 575 167 575 c 0
 127 575 94 605 94 649 c 0
EndSplineSet
Validated: 1
EndChar

StartChar: k
Encoding: 107 107 74
Width: 553
VWidth: 1000
Flags: W
HStem: 0 21G<25 277 379 571> 466 20G<328 532> 719 20G<172 214>
VStem: 91 123<63 225 259 653>
LayerCount: 2
Fore
SplineSet
25 0 m 1
 25 44 l 1
 77 49 l 1
 91 64 l 1
 91 653 l 1
 18 653 l 1
 18 692 l 1
 172 739 l 1
 214 739 l 1
 214 259 l 1
 236 259 l 1
 379 426 l 1
 372 437 l 1
 328 442 l 1
 328 486 l 1
 532 486 l 1
 532 442 l 1
 467 434 l 1
 353 307 l 1
 512 49 l 1
 571 44 l 1
 571 0 l 1
 379 0 l 1
 379 39 l 1
 263 226 l 1
 214 226 l 1
 214 62 l 1
 227 48 l 1
 277 44 l 1
 277 0 l 1
 25 0 l 1
EndSplineSet
Validated: 1
EndChar

StartChar: l
Encoding: 108 108 75
Width: 304
VWidth: 1000
Flags: W
HStem: 0 21G<23 291> 719 20G<174 218>
VStem: 95 123<65 652>
LayerCount: 2
Fore
SplineSet
23 0 m 1
 23 44 l 1
 81 50 l 1
 95 64 l 1
 95 652 l 1
 23 652 l 1
 23 691 l 1
 174 739 l 1
 218 739 l 1
 218 66 l 1
 233 50 l 1
 291 44 l 1
 291 0 l 1
 23 0 l 1
EndSplineSet
Validated: 1
EndChar

StartChar: m
Encoding: 109 109 76
Width: 892
VWidth: 1000
Flags: W
HStem: 0 21G<31 276 339 575 637 883> 412 88<304 384 602 678> 476 20G<172 220>
VStem: 96 124<63 394> 394 122<65 332> 694 123<63 321>
LayerCount: 2
Fore
SplineSet
501 430 m 1xdc
 581 476 641 498 678 498 c 0
 771 498 817 443 817 332 c 2
 817 64 l 1
 830 49 l 1
 883 45 l 1
 883 0 l 1
 637 0 l 1
 637 45 l 1
 680 49 l 1
 694 64 l 1
 694 303 l 2
 694 378 668 411 602 411 c 0
 577 411 549 404 516 392 c 1
 516 64 l 1
 530 49 l 1
 575 44 l 1
 575 0 l 1
 339 0 l 1
 339 45 l 1
 380 49 l 1
 394 66 l 1
 394 309 l 2
 394 379 368 412 304 412 c 0xdc
 280 412 252 406 220 394 c 1
 220 64 l 1
 234 49 l 1
 276 45 l 1
 276 0 l 1
 31 0 l 1
 31 45 l 1
 82 49 l 1
 96 64 l 1
 96 409 l 1
 31 409 l 1
 31 449 l 1
 172 496 l 1
 220 496 l 1xbc
 220 437 l 1
 288 477 340 500 384 500 c 0
 434 500 474 476 501 430 c 1xdc
EndSplineSet
Validated: 1
EndChar

StartChar: n
Encoding: 110 110 77
Width: 605
VWidth: 1000
Flags: W
HStem: 0 21G<31 278 348 593> 411 87<315 391> 476 20G<172 220>
VStem: 96 124<63 394> 405 122<63 321>
LayerCount: 2
Fore
SplineSet
31 0 m 1xd8
 31 45 l 1
 82 49 l 1
 96 64 l 1
 96 409 l 1
 28 409 l 1
 28 449 l 1
 172 496 l 1
 220 496 l 1xb8
 220 437 l 1
 291 476 347 498 391 498 c 0
 483 498 527 443 527 332 c 2
 527 64 l 1
 540 49 l 1
 593 45 l 1
 593 0 l 1
 348 0 l 1
 348 45 l 1
 391 49 l 1
 405 64 l 1
 405 303 l 2
 405 377 378 411 315 411 c 0
 290 411 258 405 220 394 c 1
 220 64 l 1
 234 49 l 1
 278 45 l 1
 278 0 l 1
 31 0 l 1xd8
EndSplineSet
Validated: 1
EndChar

StartChar: o
Encoding: 111 111 78
Width: 577
VWidth: 1000
Flags: W
HStem: -8 53<276 298> 446 53<286 298>
VStem: 37 139<231 265> 409 138<215 265>
LayerCount: 2
Fore
SplineSet
296 499 m 0
 449 499 547 400 547 241 c 0
 547 93 446 -8 288 -8 c 0
 138 -8 37 92 37 243 c 0
 37 397 139 499 296 499 c 0
292 446 m 0
 221 446 176 376 176 247 c 0
 176 116 221 45 291 45 c 0
 365 45 409 114 409 244 c 0
 409 375 363 446 292 446 c 0
EndSplineSet
Validated: 1
EndChar

StartChar: p
Encoding: 112 112 79
Width: 591
VWidth: 1000
Flags: W
HStem: -219 21G<23 290> -1 54<275 294> 413 86<292 371> 476 20G<168 213>
VStem: 91 122<-154 5 59 394> 424 136<244 266>
LayerCount: 2
Fore
SplineSet
23 -219 m 1xec
 23 -173 l 1
 77 -168 l 1
 91 -153 l 1
 91 409 l 1
 22 409 l 1
 22 449 l 1
 168 496 l 1
 213 496 l 1xdc
 213 436 l 1
 272 477 322 499 371 499 c 0
 477 499 560 403 560 263 c 0
 560 103 457 -1 295 -1 c 0
 273 -1 246 1 213 5 c 1
 213 -155 l 1
 228 -169 l 1
 291 -173 l 1
 290 -219 l 1
 23 -219 l 1xec
213 60 m 1
 236 55 257 53 277 53 c 0
 365 53 424 126 424 246 c 0
 424 353 373 413 292 413 c 0xec
 269 413 243 406 213 394 c 1
 213 60 l 1
EndSplineSet
Validated: 1
EndChar

StartChar: q
Encoding: 113 113 80
Width: 575
VWidth: 1000
Flags: W
HStem: -218 21G<304 571> -4 79<234 313> 444 55<324 353>
VStem: 37 135<227 252> 383 123<-155 43 81 439>
LayerCount: 2
Fore
SplineSet
509 486 m 1
 507 452 506 433 506 428 c 2
 506 -155 l 1
 521 -169 l 1
 571 -173 l 1
 571 -218 l 1
 304 -218 l 1
 304 -172 l 1
 368 -168 l 1
 383 -154 l 1
 383 43 l 1
 327 12 278 -4 234 -4 c 0
 121 -4 37 90 37 229 c 0
 37 398 150 499 353 499 c 0
 398 499 449 494 509 486 c 1
383 439 m 1
 365 442 349 444 333 444 c 0
 229 444 172 375 172 250 c 0
 172 137 226 75 313 75 c 0
 332 75 356 77 383 82 c 1
 383 439 l 1
EndSplineSet
Validated: 1
EndChar

StartChar: r
Encoding: 114 114 81
Width: 421
VWidth: 1000
Flags: W
HStem: 0 21G<29 305> 343 155<355 369.663> 476 20G<171 219>
VStem: 96 123<63 351>
LayerCount: 2
Fore
SplineSet
29 0 m 1xd0
 29 45 l 1
 82 49 l 1
 96 64 l 1
 96 409 l 1
 24 409 l 1
 24 449 l 1
 171 496 l 1
 219 496 l 1
 215 394 l 1
 251 433 291 467 332 496 c 1xb0
 339 497 347 498 354 498 c 0
 376 498 398 492 420 481 c 1
 407 343 l 1
 355 343 l 1
 340 368 319 379 290 379 c 0
 274 379 250 370 219 351 c 1
 219 64 l 1
 234 49 l 1
 305 45 l 1
 305 0 l 1
 29 0 l 1xd0
EndSplineSet
Validated: 1
EndChar

StartChar: s
Encoding: 115 115 82
Width: 447
VWidth: 1000
Flags: W
HStem: -11 55<200 218> 444 56<232 264>
VStem: 48 123<351 384> 292 118<116 154>
LayerCount: 2
Fore
SplineSet
395 475 m 1
 395 342 l 1
 335 342 l 1
 325 417 l 1
 313 428 l 1
 292 438 270 444 247 444 c 0
 198 444 171 421 171 384 c 0
 171 342 205 325 264 296 c 0
 353 253 410 226 410 154 c 0
 410 53 335 -11 206 -11 c 0
 158 -11 103 -3 41 14 c 1
 41 162 l 1
 102 162 l 1
 113 76 l 1
 123 65 l 1
 149 51 177 44 207 44 c 0
 261 44 292 72 292 116 c 0
 292 170 238 180 160 219 c 0
 86 256 48 291 48 351 c 0
 48 437 121 500 244 500 c 0
 294 500 344 492 395 475 c 1
EndSplineSet
Validated: 1
EndChar

StartChar: t
Encoding: 116 116 83
Width: 358
VWidth: 1000
Flags: W
HStem: 414 60<208 356>
VStem: 84 124<138 414>
LayerCount: 2
Fore
SplineSet
84 414 m 1
 19 414 l 1
 19 452 l 1
 93 494 l 1
 145 598 l 1
 208 598 l 1
 208 474 l 1
 356 474 l 1
 356 414 l 1
 208 414 l 1
 208 165 l 2
 208 94 225 68 291 68 c 0
 315 68 336 70 356 75 c 1
 356 27 l 1
 296 5 244 -5 203 -5 c 0
 170 -5 143 1 120 17 c 0
 85 40 84 72 84 123 c 2
 84 414 l 1
EndSplineSet
Validated: 1
EndChar

StartChar: u
Encoding: 117 117 84
Width: 600
VWidth: 1000
Flags: W
HStem: -9 86<225 307> 0 21G<393 582> 479 20G<164 212 470 516>
VStem: 88 124<166 412> 393 123<92 412>
LayerCount: 2
Fore
SplineSet
164 499 m 1xb8
 212 499 l 1
 212 189 l 2
 212 111 238 77 307 77 c 0xb8
 332 77 360 83 393 93 c 1
 393 412 l 1
 328 412 l 1
 328 451 l 1
 470 499 l 1
 516 499 l 1
 516 64 l 1
 530 49 l 1
 582 45 l 1
 582 0 l 1
 393 0 l 1x78
 393 55 l 1
 330 14 278 -9 225 -9 c 0
 132 -9 88 47 88 162 c 2
 88 412 l 1
 23 412 l 1
 23 451 l 1
 164 499 l 1xb8
EndSplineSet
Validated: 1
EndChar

StartChar: v
Encoding: 118 118 85
Width: 513
VWidth: 1000
Flags: W
HStem: 0 21G<214 304> 467 20G<-6 248 344 534>
LayerCount: 2
Fore
SplineSet
-6 487 m 1
 248 487 l 1
 248 441 l 1
 196 436 l 1
 185 423 l 1
 289 131 l 1
 403 422 l 1
 395 436 l 1
 344 441 l 1
 344 487 l 1
 534 487 l 1
 534 441 l 1
 476 434 l 1
 304 0 l 1
 214 0 l 1
 54 435 l 1
 -6 441 l 1
 -6 487 l 1
EndSplineSet
Validated: 1
EndChar

StartChar: w
Encoding: 119 119 86
Width: 799
VWidth: 1000
Flags: W
HStem: 0 21G<188 288 518 619> 467 20G<-1 247 385 485 622 811>
LayerCount: 2
Fore
SplineSet
-1 487 m 1
 247 487 l 1
 247 441 l 1
 198 434 l 1
 187 420 l 1
 268 132 l 1
 385 487 l 1
 485 487 l 1
 594 132 l 1
 682 421 l 1
 675 435 l 1
 622 441 l 1
 622 487 l 1
 811 487 l 1
 811 441 l 1
 755 434 l 1
 619 0 l 1
 518 0 l 1
 407 359 l 1
 288 0 l 1
 188 0 l 1
 59 435 l 1
 -1 441 l 1
 -1 487 l 1
EndSplineSet
Validated: 1
EndChar

StartChar: x
Encoding: 120 120 87
Width: 531
VWidth: 1000
Flags: W
HStem: 0 21G<11 205 297 531> 467 20G<14 255 328 512>
LayerCount: 2
Fore
SplineSet
14 487 m 1
 255 487 l 1
 255 445 l 1
 217 439 l 1
 212 428 l 1
 292 309 l 1
 379 434 l 1
 328 443 l 1
 328 487 l 1
 512 487 l 1
 512 441 l 1
 457 434 l 1
 329 268 l 1
 478 53 l 1
 531 44 l 1
 531 0 l 1
 297 0 l 1
 297 39 l 1
 332 48 l 1
 336 58 l 1
 248 192 l 1
 154 54 l 1
 205 44 l 1
 205 0 l 1
 11 0 l 1
 11 44 l 1
 70 55 l 1
 210 234 l 1
 71 433 l 1
 14 441 l 1
 14 487 l 1
EndSplineSet
Validated: 1
EndChar

StartChar: y
Encoding: 121 121 88
Width: 515
VWidth: 1000
Flags: W
HStem: 466 20G<-4 250 344 536>
LayerCount: 2
Fore
SplineSet
-4 486 m 1
 250 486 l 1
 250 443 l 1
 199 437 l 1
 189 423 l 1
 297 140 l 1
 406 422 l 1
 397 437 l 1
 344 443 l 1
 344 486 l 1
 536 486 l 1
 536 443 l 1
 482 434 l 1
 289 -35 l 2
 240 -153 169 -219 103 -219 c 0
 54 -219 17 -183 17 -145 c 0
 17 -116 36 -91 69 -74 c 1
 156 -134 l 1
 182 -113 209 -72 234 -12 c 1
 56 434 l 1
 -4 443 l 1
 -4 486 l 1
EndSplineSet
Validated: 1
EndChar

StartChar: z
Encoding: 122 122 89
Width: 495
VWidth: 1000
Flags: W
HStem: 0 56<185 370> 432 54<141 303>
LayerCount: 2
Fore
SplineSet
46 0 m 1
 46 62 l 1
 304 432 l 1
 142 432 l 1
 129 418 l 1
 119 335 l 1
 54 335 l 1
 54 486 l 1
 450 486 l 1
 450 434 l 1
 185 56 l 1
 370 56 l 1
 385 72 l 1
 397 164 l 1
 465 164 l 1
 465 0 l 1
 46 0 l 1
EndSplineSet
Validated: 1
EndChar

StartChar: braceleft
Encoding: 123 123 90
Width: 493
VWidth: 1000
Flags: W
HStem: -135 54<390 421> 685 20G<400 421>
VStem: 183 116<24 138 440 554>
LayerCount: 2
Fore
SplineSet
421 705 m 1
 421 654 l 1
 322 651 298 619 298 529 c 2
 298 466 l 2
 298 361 255 308 153 291 c 1
 253 275 299 221 299 119 c 2
 299 46 l 2
 299 -49 320 -80 421 -81 c 1
 421 -134 l 1
 411 -134 401 -135 391 -135 c 0
 238 -135 183 -88 183 51 c 2
 183 132 l 2
 183 229 154 263 66 263 c 0
 59 263 53 263 46 263 c 1
 46 320 l 1
 53 320 60 320 66 320 c 0
 156 320 183 354 183 448 c 2
 183 532 l 2
 183 660 245 705 400 705 c 0
 421 705 l 1
EndSplineSet
Validated: 1
EndChar

StartChar: bar
Encoding: 124 124 91
Width: 500
VWidth: 1000
Flags: W
VStem: 207 87<-236 764>
LayerCount: 2
Fore
SplineSet
294 764 m 1
 294 -236 l 1
 207 -236 l 1
 207 764 l 1
 294 764 l 1
EndSplineSet
Validated: 1
EndChar

StartChar: braceright
Encoding: 125 125 92
Width: 493
VWidth: 1000
Flags: W
HStem: -134 53<62.1253 87.0763> 263 56<397 437> 685 20G<62 83>
VStem: 185 115<24 138 440 554>
LayerCount: 2
Fore
SplineSet
62 705 m 1
 83 705 l 0
 240 705 301 661 301 532 c 2
 301 448 l 2
 301 355 328 319 415 319 c 0
 422 319 429 320 437 320 c 1
 437 263 l 1
 430 263 424 263 417 263 c 0
 329 263 300 229 300 132 c 2
 300 51 l 2
 300 -88 245 -135 92 -135 c 0
 82 -135 72 -134 62 -134 c 1
 62 -81 l 1
 164 -80 185 -48 185 46 c 2
 185 119 l 2
 185 221 230 275 330 291 c 1
 227 309 186 361 186 466 c 2
 186 529 l 2
 186 620 160 651 62 654 c 1
 62 705 l 1
EndSplineSet
Validated: 1
EndChar

StartChar: asciitilde
Encoding: 126 126 93
Width: 833
VWidth: 1000
Flags: W
LayerCount: 2
Fore
SplineSet
747 293 m 1
 682 248 621 224 561 224 c 0
 532 224 500 230 468 241 c 0
 399 264 339 290 275 290 c 0
 217 290 158 262 87 212 c 1
 87 303 l 1
 156 350 218 373 276 373 c 0
 333 373 378 358 419 344 c 0
 468 327 513 308 562 308 c 0
 620 308 679 334 747 383 c 1
 747 293 l 1
EndSplineSet
Validated: 1
EndChar

StartChar: sterling
Encoding: 163 163 95
Width: 647
VWidth: 1000
Flags: W
HStem: 0 178<145 166 285 504> 287 106.234<134 166 290.603 397>
VStem: 166 119<178 287>
LayerCount: 2
Back
SplineSet
94 393.24 m 1
 71 360 55.5 326 44 287 c 1
 357 287 l 1
 379.5 322 395 355.5 408.5 393.24 c 1
 94 393.24 l 1
105 178 m 1
 71 124 41 64 20 0 c 1
 454 0 l 1
 494 61 518 116 540 178 c 1
 105 178 l 1
126 32 m 25
 245 52 l 25
 245 309 l 2
 245 535 336 522 464 540 c 1
 505 607 534 673 552 740 c 1
 324 737 126 585.052 126 344 c 2
 126 32 l 25
EndSplineSet
Fore
SplineSet
166 178 m 1
 166 287 l 1
 84 287 l 1
 95.5 326 111 360 134 393.234 c 1
 168.846 393.234 l 1
 193.835 605.568 379.942 737.21 592 740 c 1
 574 673 545 607 504 540 c 1
 394.606 524.617 312.238 531.876 290.603 393.234 c 1
 448.5 393.234 l 1
 435 355.5 419.5 322 397 287 c 1
 285 287 l 1
 285 178 l 1
 580 178 l 1
 561 114 537 56 504 0 c 1
 70 0 l 1
 88 64 112 123 145 178 c 1
 166 178 l 1
EndSplineSet
Validated: 1
EndChar

StartChar: afii57800
Encoding: 1458 1458 96
Width: 0
VWidth: 1000
Flags: HMW
AnchorPoint: "ColumnToBaseMark" -275.643 -93.5 basemark 0
AnchorPoint: "DotToBaseMark" -260.643 -93.5 basemark 0
AnchorPoint: "2DotsToBaseMark" 227.643 -93.5 mark 0
AnchorPoint: "DiaToBase3" 0 0 mark 0
LayerCount: 2
Back
SplineSet
116.643 -88.998 m 1
 132.643 -60.998 152.643 -41.998 179.643 -24.998 c 1
 206.643 -41.998 226.643 -60.998 242.643 -88.998 c 1
 226.643 -115.998 206.643 -135.998 179.643 -151.998 c 1
 152.643 -135.998 132.643 -115.998 116.643 -88.998 c 1
116.643 -236.998 m 1
 132.643 -208.998 152.643 -189.998 179.643 -172.998 c 1
 206.643 -189.998 226.643 -208.998 242.643 -236.998 c 1
 226.643 -263.998 206.643 -283.998 179.643 -299.998 c 1
 152.643 -283.998 132.643 -263.998 116.643 -236.998 c 1
41.9688 -144.003 m 1
 -242.643 -144.003 l 1
 -238.342 -108.89 -228.646 -79.8057 -211.021 -49.1328 c 1
 73.5908 -49.1328 l 1
 69.2881 -84.2471 59.5938 -113.331 41.9688 -144.003 c 1
EndSplineSet
Fore
SplineSet
101.643 -88.998 m 1
 117.643 -60.998 137.643 -41.998 164.643 -24.998 c 1
 191.643 -41.998 211.643 -60.998 227.643 -88.998 c 1
 211.643 -115.998 191.643 -135.998 164.643 -151.998 c 1
 137.643 -135.998 117.643 -115.998 101.643 -88.998 c 1
101.643 -236.998 m 1
 117.643 -208.998 137.643 -189.998 164.643 -172.998 c 1
 191.643 -189.998 211.643 -208.998 227.643 -236.998 c 1
 211.643 -263.998 191.643 -283.998 164.643 -299.998 c 1
 137.643 -283.998 117.643 -263.998 101.643 -236.998 c 1
36.9688 -144.003 m 5
 -227.643 -144.003 l 5
 -223.342 -108.89 -213.646 -79.8057 -196.021 -49.1328 c 5
 68.5908 -49.1328 l 5
 64.2881 -84.2471 54.5938 -113.331 36.9688 -144.003 c 5
EndSplineSet
Validated: 1
Substitution2: "WideMarkToNarrow subtable" hatafpatah.narrow
EndChar

StartChar: afii57802
Encoding: 1459 1459 97
Width: 0
VWidth: 1000
Flags: HMW
AnchorPoint: "ColumnToBaseMark" -280.645 -93.5 basemark 0
AnchorPoint: "DotToBaseMark" -265.645 -93.5 basemark 0
AnchorPoint: "2DotsToBaseMark" 232.645 -93.5 mark 0
AnchorPoint: "DiaToBase3" 0 0 mark 0
LayerCount: 2
Back
SplineSet
-197.647 -128.235 m 5
 -194.062 -98.9736 -185.983 -74.7373 -171.294 -49.1768 c 5
 65.8818 -49.1768 l 5
 62.2969 -78.4385 54.2178 -102.675 39.5303 -128.235 c 13
 -26.3525 -128.235 l 5
 -26.3525 -220.471 l 5
 -40.1162 -222.781 -51.9268 -223.765 -65.8818 -223.765 c 4
 -79.8379 -223.765 -91.6494 -222.781 -105.412 -220.471 c 5
 -105.412 -128.235 l 5
 -197.647 -128.235 l 5
92.2354 -207.294 m 1
 105.767 -184.549 122.197 -168.12 144.941 -154.588 c 1
 167.686 -168.12 184.116 -184.549 197.647 -207.294 c 1
 184.116 -230.039 167.686 -246.469 144.941 -260 c 1
 122.197 -246.469 105.767 -230.039 92.2354 -207.294 c 1
92.2354 -88.7061 m 1
 105.767 -65.9609 122.197 -49.5322 144.941 -36 c 1
 167.686 -49.5322 184.116 -65.9609 197.647 -88.7061 c 1
 184.116 -111.451 167.686 -127.881 144.941 -141.412 c 1
 122.197 -127.881 105.767 -111.451 92.2354 -88.7061 c 1
EndSplineSet
Fore
SplineSet
-232.645 -144 m 1
 -228.343 -108.887 -218.647 -79.8027 -201.021 -49.1299 c 1
 73.5898 -49.1299 l 1
 69.2881 -84.2441 59.5938 -113.328 41.9688 -144 c 9
 -32.0908 -144 l 1
 -32.0908 -254.684 l 1
 -48.6074 -257.455 -62.7803 -258.636 -79.5264 -258.636 c 0
 -96.2734 -258.636 -110.447 -257.455 -126.963 -254.684 c 1
 -126.963 -144 l 1
 -232.645 -144 l 1
106.645 -88.998 m 1
 122.645 -60.998 142.645 -41.998 169.645 -24.998 c 1
 196.645 -41.998 216.645 -60.998 232.645 -88.998 c 1
 216.645 -115.998 196.645 -135.998 169.645 -151.998 c 1
 142.645 -135.998 122.645 -115.998 106.645 -88.998 c 1
106.645 -236.998 m 1
 122.645 -208.998 142.645 -189.998 169.645 -172.998 c 1
 196.645 -189.998 216.645 -208.998 232.645 -236.998 c 1
 216.645 -263.998 196.645 -283.998 169.645 -299.998 c 1
 142.645 -283.998 122.645 -263.998 106.645 -236.998 c 1
EndSplineSet
Validated: 1
Substitution2: "WideMarkToNarrow subtable" hatafqamats.narrow
EndChar

StartChar: afii57793
Encoding: 1460 1460 98
Width: 0
VWidth: 995
Flags: HMW
AnchorPoint: "CtxAnchors_M_D1" -81.9365 0 mark 0
AnchorPoint: "CtxAnchors_Yerushalam" 0 0 mark 0
AnchorPoint: "ColumnToBaseMark" -132 -93.5 basemark 0
AnchorPoint: "DotToBaseMark" -116 -93.5 basemark 0
AnchorPoint: "BarToBaseMark" -96 -93.5 basemark 0
AnchorPoint: "DotToBaseMark" 63 -93.5 mark 0
AnchorPoint: "DiaToBase1" 0 0 mark 0
LayerCount: 2
Back
SplineSet
-63 -88.998 m 1
 -47 -60.998 -27 -41.998 0 -24.998 c 1
 27 -41.998 47 -60.998 63 -88.998 c 1
 47 -115.998 27 -135.998 0 -151.998 c 1
 -27 -135.998 -47 -115.998 -63 -88.998 c 1
EndSplineSet
Fore
SplineSet
-63 -93.998 m 1
 -47 -65.998 -27 -46.998 0 -29.998 c 1
 27 -46.998 47 -65.998 63 -93.998 c 1
 47 -120.998 27 -140.998 0 -156.998 c 1
 -27 -140.998 -47 -120.998 -63 -93.998 c 1
EndSplineSet
Validated: 1
Comment: "+AAoA%BarToBaseMark+AD0A-33+AAoA%ColumnToBaseMark+AD0A-69+AAoA%DotToBaseMark+AD0A-53" 
EndChar

StartChar: afii57794
Encoding: 1461 1461 99
Width: 0
VWidth: 1000
Flags: HMW
AnchorPoint: "CtxAnchors_M_D2" -81.9365 0 mark 0
AnchorPoint: "ColumnToBaseMark" -221 -93.5 basemark 0
AnchorPoint: "DotToBaseMark" -205 -93.5 basemark 0
AnchorPoint: "BarToBaseMark" -185 -93.5 basemark 0
AnchorPoint: "DotToBaseMark" 152 -93.5 mark 0
AnchorPoint: "DiaToBase2" 0 0 mark 0
LayerCount: 2
Back
SplineSet
31 -89 m 1
 47 -61 67 -42 94 -25 c 1
 121 -42 141 -61 157 -89 c 1
 141 -116 121 -136 94 -152 c 1
 67 -136 47 -116 31 -89 c 1
-157 -89 m 1
 -141 -61 -121 -42 -94 -25 c 1
 -67 -42 -47 -61 -31 -89 c 1
 -47 -116 -67 -136 -94 -152 c 1
 -121 -136 -141 -116 -157 -89 c 1
EndSplineSet
Fore
SplineSet
26 -94 m 5
 42 -66 62 -47 89 -30 c 5
 116 -47 136 -66 152 -94 c 5
 136 -121 116 -141 89 -157 c 5
 62 -141 42 -121 26 -94 c 5
-152 -94 m 5
 -136 -66 -116 -47 -89 -30 c 5
 -62 -47 -42 -66 -26 -94 c 5
 -42 -121 -62 -141 -89 -157 c 5
 -116 -141 -136 -121 -152 -94 c 5
EndSplineSet
Validated: 1
Substitution2: "WideMarkToNarrow subtable" tsere.narrow
EndChar

StartChar: afii57795
Encoding: 1462 1462 100
Width: 0
VWidth: 1000
Flags: HMW
AnchorPoint: "CtxAnchors_M_D2" -81.9365 0 mark 0
AnchorPoint: "ColumnToBaseMark" -221 -93.5 basemark 0
AnchorPoint: "DotToBaseMark" -205 -93.5 basemark 0
AnchorPoint: "BarToBaseMark" -185 -93.5 basemark 0
AnchorPoint: "DotToBaseMark" 152 -93.5 mark 0
AnchorPoint: "DiaToBase2" 0 0 mark 0
LayerCount: 2
Back
SplineSet
-157 -89 m 1
 -141 -61 -121 -42 -94 -25 c 1
 -67 -42 -47 -61 -31 -89 c 1
 -47 -116 -67 -136 -94 -152 c 1
 -121 -136 -141 -116 -157 -89 c 1
31 -89 m 1
 47 -61 67 -42 94 -25 c 1
 121 -42 141 -61 157 -89 c 1
 141 -116 121 -136 94 -152 c 1
 67 -136 47 -116 31 -89 c 1
-63 -227 m 1
 -47 -199 -27 -180 0 -163 c 1
 27 -180 47 -199 63 -227 c 1
 47 -254 27 -274 0 -290 c 1
 -27 -274 -47 -254 -63 -227 c 1
EndSplineSet
Fore
SplineSet
-152 -94 m 5
 -136 -66 -116 -47 -89 -30 c 5
 -62 -47 -42 -66 -26 -94 c 5
 -42 -121 -62 -141 -89 -157 c 5
 -116 -141 -136 -121 -152 -94 c 5
26 -94 m 5
 42 -66 62 -47 89 -30 c 5
 116 -47 136 -66 152 -94 c 5
 136 -121 116 -141 89 -157 c 5
 62 -141 42 -121 26 -94 c 5
-63 -227 m 1
 -47 -199 -27 -180 0 -163 c 1
 27 -180 47 -199 63 -227 c 1
 47 -254 27 -274 0 -290 c 1
 -27 -274 -47 -254 -63 -227 c 1
EndSplineSet
Validated: 1
Substitution2: "WideMarkToNarrow subtable" segol.narrow
EndChar

StartChar: afii57798
Encoding: 1463 1463 101
Width: 0
VWidth: 1000
Flags: HMW
AnchorPoint: "CtxAnchors_M_D2" -71.4365 0 mark 0
AnchorPoint: "ColumnToBaseMark" -201.117 -93.5 basemark 0
AnchorPoint: "DotToBaseMark" -186.117 -93.5 basemark 0
AnchorPoint: "BarToBaseMark" 153.117 -93.5 mark 0
AnchorPoint: "DiaToBase2" 0 0 mark 0
LayerCount: 2
Back
SplineSet
126.494 -144.003 m 1
 -158.117 -144.003 l 1
 -153.816 -108.89 -144.119 -79.8057 -126.496 -49.1328 c 1
 158.117 -49.1328 l 1
 153.814 -84.2471 144.119 -113.331 126.494 -144.003 c 1
EndSplineSet
Fore
SplineSet
121.494 -144.003 m 1
 -153.117 -144.003 l 1
 -148.816 -108.89 -139.119 -79.8057 -121.496 -49.1328 c 1
 153.117 -49.1328 l 1
 148.814 -84.2471 139.119 -113.331 121.494 -144.003 c 1
EndSplineSet
Validated: 1
Substitution2: "WideMarkToNarrow subtable" patah.narrow
Comment: "+AAoA%ColumnToBaseMark+AD0A-48+AAoA%DotToBaseMark+AD0A-33" 
EndChar

StartChar: afii57797
Encoding: 1464 1464 102
Width: 0
VWidth: 1000
Flags: HMW
AnchorPoint: "CtxAnchors_M_D2" -71.4365 0 mark 0
AnchorPoint: "ColumnToBaseMark" -206.117 -93.5 basemark 0
AnchorPoint: "DotToBaseMark" -191.117 -93.5 basemark 0
AnchorPoint: "BarToBaseMark" 158.117 -93.5 mark 0
AnchorPoint: "DiaToBase2" 0 0 mark 0
LayerCount: 2
Back
SplineSet
-131.765 -128.235 m 1
 -128.18 -98.9736 -120.101 -74.7373 -105.411 -49.1768 c 1
 131.765 -49.1768 l 1
 128.18 -78.4385 120.101 -102.675 105.412 -128.235 c 9
 39.5293 -128.235 l 1
 39.5293 -220.471 l 1
 25.7666 -222.781 13.9551 -223.765 0 -223.765 c 0
 -13.9551 -223.765 -25.7666 -222.781 -39.5293 -220.471 c 1
 -39.5293 -128.235 l 1
 -131.765 -128.235 l 1
EndSplineSet
Fore
SplineSet
-158.117 -144 m 1
 -153.815 -108.887 -144.12 -79.8027 -126.493 -49.1299 c 1
 158.117 -49.1299 l 1
 153.815 -84.2441 144.121 -113.328 126.496 -144 c 9
 47.4365 -144 l 5
 47.4365 -254.684 l 5
 30.9199 -257.455 16.7471 -258.636 0.000976562 -258.636 c 4
 -16.7461 -258.636 -30.9199 -257.455 -47.4355 -254.684 c 5
 -47.4355 -144 l 5
 -158.117 -144 l 1
EndSplineSet
Validated: 1
Substitution2: "WideMarkToNarrow subtable" qamats.narrow
EndChar

StartChar: afii57806
Encoding: 1465 1465 103
Width: 0
VWidth: 1000
Flags: HMW
AnchorPoint: "DiaToBaseO" 0 0 mark 0
LayerCount: 2
Back
SplineSet
-52.7061 692.706 m 5
 -39.1738 715.451 -22.7441 731.881 0.000976562 745.412 c 5
 22.7441 731.881 39.1738 715.451 52.7061 692.706 c 5
 39.1738 669.962 22.7441 653.532 0.000976562 640 c 5
 -22.7441 653.532 -39.1738 669.962 -52.7061 692.706 c 5
EndSplineSet
Fore
SplineSet
-62.998 692.408 m 5
 -46.998 720.408 -26.998 739.408 0.00195312 756.408 c 5
 27.002 739.408 47.002 720.408 63.002 692.408 c 5
 47.002 665.408 27.002 645.408 0.00195312 629.408 c 5
 -26.998 645.408 -46.998 665.408 -62.998 692.408 c 5
EndSplineSet
Validated: 1
EndChar

StartChar: afii57796
Encoding: 1467 1467 104
Width: 0
VWidth: 1000
Flags: HMW
AnchorPoint: "CtxAnchors_M_D3Narrow" -62.9365 0 mark 0
AnchorPoint: "ColumnToBaseMark" -226 -93.5 basemark 0
AnchorPoint: "DotToBaseNarrowMark" -216 -93.5 basemark 0
AnchorPoint: "BarToBaseNarrowMark" -211 -93.5 basemark 0
AnchorPoint: "2DotsToBaseNarrowMark" 195 -93.5 mark 0
AnchorPoint: "DiaToBaseU" 0 0 mark 0
LayerCount: 2
Back
SplineSet
-184 4 m 29
 199 -211 l 29
52.707 -207.294 m 0
 66.2373 -184.55 82.668 -168.12 105.412 -154.589 c 0
 128.156 -168.12 144.587 -184.55 158.117 -207.294 c 0
 144.587 -230.039 128.156 -246.469 105.412 -260 c 0
 82.668 -246.469 66.2373 -230.039 52.707 -207.294 c 0
-52.7051 -148 m 0
 -39.1748 -125.256 -22.7441 -108.826 0.000976562 -95.2939 c 0
 22.7441 -108.826 39.1748 -125.256 52.707 -148 c 0
 39.1748 -170.745 22.7441 -187.175 0.000976562 -200.706 c 0
 -22.7441 -187.175 -39.1748 -170.745 -52.7051 -148 c 0
-158.117 -88.7061 m 0
 -144.585 -65.9609 -128.155 -49.5322 -105.411 -36 c 0
 -82.666 -49.5322 -66.2363 -65.9609 -52.7051 -88.7061 c 0
 -66.2363 -111.45 -82.666 -127.88 -105.411 -141.412 c 0
 -128.155 -127.88 -144.585 -111.45 -158.117 -88.7061 c 0
EndSplineSet
Fore
SplineSet
-63 -163 m 1
 -47 -135 -27 -116 0 -99 c 1
 27 -116 47 -135 63 -163 c 1
 47 -190 27 -210 0 -226 c 1
 -27 -210 -47 -190 -63 -163 c 1
-195 -89 m 1
 -179 -61 -159 -42 -132 -25 c 1
 -105 -42 -85 -61 -69 -89 c 1
 -85 -116 -105 -136 -132 -152 c 1
 -159 -136 -179 -116 -195 -89 c 1
69 -237 m 1
 85 -209 105 -190 132 -173 c 1
 159 -190 179 -209 195 -237 c 1
 179 -264 159 -284 132 -300 c 1
 105 -284 85 -264 69 -237 c 1
EndSplineSet
Validated: 1
EndChar

StartChar: afii57807
Encoding: 1468 1468 105
Width: 0
VWidth: 1000
Flags: HMW
AnchorPoint: "DiaToBaseD" 0 0 mark 0
LayerCount: 2
Back
SplineSet
-52.7051 300 m 1
 -39.1748 322.745 -22.7441 339.175 0 352.706 c 1
 22.7441 339.175 39.1748 322.745 52.7051 300 c 1
 39.1748 277.256 22.7441 260.826 0 247.294 c 1
 -22.7441 260.826 -39.1748 277.256 -52.7051 300 c 1
EndSplineSet
Fore
SplineSet
-66.0703 300 m 5
 -48.1504 327 -27 347.25 0 366.071 c 5
 28.3496 347.25 47.7002 327 66.0703 300 c 5
 45.9004 272.1 27 253.2 0 233.929 c 5
 -26.5498 251.85 -46.7998 272.55 -66.0703 300 c 5
EndSplineSet
Validated: 1
EndChar

StartChar: afii57839
Encoding: 1469 1469 106
Width: 0
VWidth: 1000
Flags: HMW
AnchorPoint: "CtxAnchors_D3Narrow_M" -217.677 0 mark 0
AnchorPoint: "CtxAnchors_D1_M" -97.5 0 mark 0
AnchorPoint: "CtxAnchors_D2_M" -171.809 0 mark 0
AnchorPoint: "CtxAnchors_D2Narrow_M" -151.617 0 mark 0
AnchorPoint: "2DotsToBaseNarrowMark" -78.4365 -93.5 basemark 0
AnchorPoint: "DotToBaseMark" -116.437 -93.5 basemark 0
AnchorPoint: "DotToBaseNarrowMark" -77.4365 -93.5 basemark 0
AnchorPoint: "2DotsToBaseMark" -116.437 -93.5 basemark 0
AnchorPoint: "BarToBaseNarrowMark" -79.4365 -93.5 basemark 0
AnchorPoint: "BarToBaseMark" -95.4365 -93.5 basemark 0
AnchorPoint: "ColumnToBaseMark" 47.4365 -93.5 mark 0
AnchorPoint: "DiaToBase1" 0 0 mark 0
LayerCount: 2
Back
SplineSet
47.4365 -256 m 1
 30.9199 -258.771 16.7471 -259.952 0.000976562 -259.952 c 0
 -16.7461 -259.952 -30.9199 -258.771 -47.4355 -256 c 1
 -47.4355 -54 l 1
 -30.9199 -51.2285 -16.7461 -50.0479 0.000976562 -50.0479 c 0
 16.7471 -50.0479 30.9199 -51.2285 47.4365 -54 c 1
 47.4365 -256 l 1
EndSplineSet
Fore
SplineSet
47.4365 -287 m 5
 30.9189 -289.771 16.7461 -290.952 0.000976562 -290.952 c 4
 -16.7461 -290.952 -30.9199 -289.771 -47.4365 -287 c 5
 -47.4365 -38 l 5
 -30.9199 -35.2285 -16.7461 -34.0479 0.000976562 -34.0479 c 4
 16.7461 -34.0479 30.9189 -35.2285 47.4365 -38 c 5
 47.4365 -287 l 5
EndSplineSet
Validated: 1
Comment: "+AAoA%2DotsToBaseMark+AD0A-69+AAoA%2DotsToBaseNarrowMark+AD0A-31+AAoA%BarToBaseMark+AD0A-48+AAoA%BarToBaseNarrowMark+AD0A-32+AAoA%DotToBaseMark+AD0A-69+AAoA%DotToBaseNarrowMark+AD0A-30" 
EndChar

StartChar: afii57645
Encoding: 1470 1470 107
Width: 494
VWidth: 1000
Flags: W
HStem: 422 178<123 379>
VStem: 55 394<422 600>
LayerCount: 2
Back
SplineSet
19 407 m 1
 25 472 50 543 93 600 c 1
 419 600 l 1
 416 541 386 463 343 407 c 1
 19 407 l 1
EndSplineSet
Fore
SplineSet
55 422 m 1
 66.2227 483.386 86.3662 538.595 123 600 c 1
 449 600 l 1
 436.022 533.171 411.595 469.835 379 422 c 1
 55 422 l 1
EndSplineSet
Validated: 1
EndChar

StartChar: afii57841
Encoding: 1471 1471 108
Width: 0
VWidth: 1000
Flags: HMW
AnchorPoint: "CtxAnchors_Rafe" 0 0 mark 0
AnchorPoint: "RafeToBase" 0 0 mark 0
LayerCount: 2
Back
SplineSet
128.494 679.994 m 1
 -158 679.986 l 5
 -153.883 711.986 -143 740.994 -126.496 769.864 c 5
 158.117 769.864 l 1
 153.814 734.75 145.5 708.494 128.494 679.994 c 1
EndSplineSet
Fore
SplineSet
113.436 679.994 m 5
 -143.059 679.986 l 5
 -138.941 711.986 -128.059 740.994 -111.555 769.864 c 5
 143.059 769.864 l 5
 138.756 734.75 130.441 708.494 113.436 679.994 c 5
EndSplineSet
Validated: 1
EndChar

StartChar: afii57842
Encoding: 1472 1472 109
Width: 212
VWidth: 1070
Flags: W
VStem: 47.3311 118.669<-57 635.67>
LayerCount: 2
Fore
SplineSet
47.3311 635.67 m 5
 85.5 653 125.5 661.5 166 663 c 5
 166 -57 l 5
 133.5 -72.5 92.5 -81 47.3311 -84.3301 c 5
 47.3311 635.67 l 5
EndSplineSet
Validated: 1
EndChar

StartChar: afii57804
Encoding: 1473 1473 110
Width: 0
VWidth: 1000
Flags: HMW
LayerCount: 2
Back
SplineSet
141 654.994 m 5
 193 612 231 440.526 251.5 332.886 c 5
 328.5 376.756 322.5 434 281.5 501 c 5
 313 558 352 608 404 654.996 c 5
 530 474 435 321.526 269 240.526 c 5
 276.548 202.785 282 170 321 170 c 4
 345 170 371.882 183.003 395.5 193.5 c 4
 440.5 213.5 488.439 244.107 522.5 277.5 c 4
 555.386 309.741 560.729 345.82 554 395 c 4
 547.5 442.5 531.5 469.5 513 498 c 5
 550 560 593 610 647 654.997 c 5
 680.751 597.723 700.675 531.02 700 463.5 c 4
 698.694 332.97 637.14 199.39 567 125 c 4
 488.892 42.1582 321.088 -15.6982 261 -12 c 4
 196 -8 176 78 161 141 c 12
 126.159 287.331 68 451 20 500 c 5
 49 559 99 617 141 654.994 c 5
EndSplineSet
Fore
SplineSet
498 684.997 m 5
 514 712.997 534 731.997 561 748.997 c 5
 588 731.997 608 712.997 624 684.997 c 5
 608 657.997 588 637.997 561 621.997 c 5
 534 637.997 514 657.997 498 684.997 c 5
EndSplineSet
Validated: 1
EndChar

StartChar: afii57803
Encoding: 1474 1474 111
Width: 0
VWidth: 1000
Flags: HMW
LayerCount: 2
Back
SplineSet
141 654.994 m 5
 193 612 231 440.526 251.5 332.886 c 5
 328.5 376.756 322.5 434 281.5 501 c 5
 313 558 352 608 404 654.996 c 5
 530 474 435 321.526 269 240.526 c 5
 276.548 202.785 282 170 321 170 c 4
 345 170 371.882 183.003 395.5 193.5 c 4
 440.5 213.5 488.439 244.107 522.5 277.5 c 4
 555.386 309.741 560.729 345.82 554 395 c 4
 547.5 442.5 531.5 469.5 513 498 c 5
 550 560 593 610 647 654.997 c 5
 680.751 597.723 700.675 531.02 700 463.5 c 4
 698.694 332.97 637.14 199.39 567 125 c 4
 488.892 42.1582 321.088 -15.6982 261 -12 c 4
 196 -8 176 78 161 141 c 12
 126.159 287.331 68 451 20 500 c 5
 49 559 99 617 141 654.994 c 5
EndSplineSet
Fore
SplineSet
168.5 684.994 m 1
 184.5 712.994 204.5 731.994 231.5 748.994 c 1
 258.5 731.994 278.5 712.994 294.5 684.994 c 1
 278.5 657.994 258.5 637.994 231.5 621.994 c 1
 204.5 637.994 184.5 657.994 168.5 684.994 c 1
EndSplineSet
Validated: 1
EndChar

StartChar: uni05C4
Encoding: 1476 1476 113
Width: 0
VWidth: 1000
Flags: HMW
LayerCount: 2
Fore
SplineSet
-62.998 692.408 m 1
 -46.998 720.408 -26.998 739.408 0.00195312 756.408 c 1
 27.002 739.408 47.002 720.408 63.002 692.408 c 1
 47.002 665.408 27.002 645.408 0.00195312 629.408 c 1
 -26.998 645.408 -46.998 665.408 -62.998 692.408 c 1
EndSplineSet
Validated: 1
EndChar

StartChar: afii57664
Encoding: 1488 1488 114
Width: 713
VWidth: 1000
Flags: W
HStem: 0 21G<35 271>
AnchorPoint: "CtxAnchors_D3Narrow_M" 360 0 basechar 0
AnchorPoint: "CtxAnchors_D1_M" 375 0 basechar 0
AnchorPoint: "CtxAnchors_D2_M" 355 0 basechar 0
AnchorPoint: "CtxAnchors_D2Narrow_M" 355 0 basechar 0
AnchorPoint: "CtxAnchors_M_D2" 355 0 basechar 0
AnchorPoint: "CtxAnchors_M_D1" 375 0 basechar 0
AnchorPoint: "CtxAnchors_M_D3Narrow" 360 0 basechar 0
AnchorPoint: "CtxAnchors_M_D2Narrow" 355 0 basechar 0
AnchorPoint: "DiaToBaseD" 394.5 -216 basechar 0
AnchorPoint: "DiaToBaseU" 360 0 basechar 0
AnchorPoint: "DiaToBase4" 360 0 basechar 0
AnchorPoint: "DiaToBase3" 355 0 basechar 0
AnchorPoint: "DiaToBase2" 375 0 basechar 0
AnchorPoint: "DiaToBase1" 380 0 basechar 0
AnchorPoint: "RafeToBase" 370 0 basechar 0
LayerCount: 2
Back
SplineSet
135 658 m 1
 245 575 380 455 485 361 c 1
 525 417 488 477 450 506 c 1
 473 574 521 642 564 679.997 c 1
 686 565 667.002 433 547 303 c 1
 602 246 639 213 692 154 c 1
 681 91 647 10 604 -36 c 1
 452 145 379 224 232 345 c 1
 207 317 184 260 184 234 c 0
 184 221 181 193 215 193 c 2
 314 193 l 1
 305 120 275 46 242 0 c 1
 24 0 l 1
 29 25 47 66 66 102 c 1
 78.1396 150.472 67.8662 184.35 83 234 c 24
 103.596 301.568 123 336 164 396 c 1
 101 444 59 467 29 490 c 1
 48 554 89 617 135 658 c 1
EndSplineSet
Fore
SplineSet
142 654.994 m 1
 264 562 374 467 497 349 c 1
 540 413 516 465 461 506 c 1
 491 568 531 617 574 654.997 c 1
 696 540 673.002 422 553 292 c 1
 608 235 653 190 703 130 c 1
 681 68 650.979 18.7979 615 -26 c 1
 492 119 379 236 250 349 c 1
 217 310 195 261 195 219 c 0
 195 206 192 178 226 178 c 2
 325 178 l 1
 310.517 113.748 289 57 253 0 c 1
 35 0 l 1
 40 25 58 66 77 102 c 1
 89.1396 150.472 82.2275 183.448 94 234 c 16
 111 307 140 352 182 402 c 1
 132.002 440.431 91.002 472.36 47 500 c 1
 69.5996 561.195 99.1953 611.504 142 654.994 c 1
EndSplineSet
Validated: 33
Substitution2: "jaltWideLetters subtable" uniFB21
Comment: "+AAoA%DiaToBase1+AD0A-380+AAoA%DiaToBase2+AD0A-375+AAoA%DiaToBase3+AD0A-355+AAoA%DiaToBase4+AD0A-360+AAoA%DiaToBaseU+AD0A-360+AAoA%RafeToBase+AD0A-370" 
EndChar

StartChar: afii57665
Encoding: 1489 1489 115
Width: 592
VWidth: 1000
Flags: W
HStem: 0 178<104.48 376 494.001 510.354> 422 178<196.407 357.705>
VStem: 376 118.001<178 406.107>
AnchorPoint: "CtxAnchors_D3Narrow_M" 290 0 basechar 0
AnchorPoint: "CtxAnchors_D1_M" 285 0 basechar 0
AnchorPoint: "CtxAnchors_D2_M" 285 0 basechar 0
AnchorPoint: "CtxAnchors_D2Narrow_M" 285 0 basechar 0
AnchorPoint: "CtxAnchors_M_D2" 285 0 basechar 0
AnchorPoint: "CtxAnchors_M_D1" 285 0 basechar 0
AnchorPoint: "CtxAnchors_M_D3Narrow" 290 0 basechar 0
AnchorPoint: "CtxAnchors_M_D2Narrow" 285 0 basechar 0
AnchorPoint: "DiaToBaseD" 243 0 basechar 0
AnchorPoint: "DiaToBaseU" 280 0 basechar 0
AnchorPoint: "DiaToBase4" 290 0 basechar 0
AnchorPoint: "DiaToBase3" 285 0 basechar 0
AnchorPoint: "DiaToBase2" 285 0 basechar 0
AnchorPoint: "DiaToBase1" 295 0 basechar 0
AnchorPoint: "RafeToBase" 300 0 basechar 0
AnchorPoint: "DiaToBaseO" 30 0 basechar 0
LayerCount: 2
Back
SplineSet
179 679.994 m 1
 199 600 209 600 261 600 c 2
 383 600.001 l 2
 459.057 598.31 495.269 537.017 495 464 c 2
 494.001 193 l 5
 587 193 l 5
 580 130 552 59 505 0 c 1
 25 0 l 1
 34 64 71 146 117 193 c 5
 361 193 l 5
 356 327 l 2
 353.458 374.972 337 407 293 407 c 10
 30 407 l 1
 51 511 109.268 611.992 179 679.994 c 1
EndSplineSet
Fore
SplineSet
179 679.994 m 1
 199 600 209 600 261 600 c 2
 383 600.001 l 2
 459.057 598.31 495.27 537.017 495 464 c 2
 494.001 178 l 1
 582 178 l 1
 565.438 112.717 543.877 58.6494 505 0 c 5
 25 0 l 5
 44.0264 64.5986 70.1006 121.549 110 178 c 1
 376 178 l 1
 371 342 l 2
 368.458 389.972 352 422 308 422 c 10
 37 422 l 1
 65.083 511.091 113.29 600.456 179 679.994 c 1
EndSplineSet
Validated: 33
Comment: "+AAoA%DiaToBase1+AD0A-295+AAoA%DiaToBase2+AD0A-285+AAoA%DiaToBase3+AD0A-285+AAoA%DiaToBase4+AD0A-290+AAoA%DiaToBaseO+AD0A-30+AAoA%DiaToBaseU+AD0A-280+AAoA%RafeToBase+AD0A-300" 
EndChar

StartChar: afii57666
Encoding: 1490 1490 116
Width: 421
VWidth: 1000
Flags: W
HStem: -12 21G<24.6167 94.0632>
VStem: 25.0635 375.999
AnchorPoint: "CtxAnchors_Rafe" 237.059 0 basechar 0
AnchorPoint: "CtxAnchors_D3Narrow_M" 210 0 basechar 0
AnchorPoint: "CtxAnchors_D1_M" 200 0 basechar 0
AnchorPoint: "CtxAnchors_D2_M" 205 0 basechar 0
AnchorPoint: "CtxAnchors_D2Narrow_M" 205 0 basechar 0
AnchorPoint: "CtxAnchors_M_D2" 205 0 basechar 0
AnchorPoint: "CtxAnchors_M_D1" 200 0 basechar 0
AnchorPoint: "CtxAnchors_M_D3Narrow" 210 0 basechar 0
AnchorPoint: "CtxAnchors_M_D2Narrow" 205 0 basechar 0
AnchorPoint: "DiaToBaseD" 115.5 18 basechar 0
AnchorPoint: "DiaToBaseU" 200 0 basechar 0
AnchorPoint: "DiaToBase4" 210 0 basechar 0
AnchorPoint: "DiaToBase3" 205 0 basechar 0
AnchorPoint: "DiaToBase2" 200 0 basechar 0
AnchorPoint: "DiaToBase1" 205 0 basechar 0
AnchorPoint: "RafeToBase" 220 0 basechar 0
AnchorPoint: "DiaToBaseO" 15 0 basechar 0
LayerCount: 2
Back
SplineSet
174 654.994 m 1
 237 614.5 293 576 327 531 c 0
 363.059 483.274 366.883 438.422 372.668 402 c 0
 373.226 398.489 412.898 144.708 414 137 c 1
 394.5 78.5 360.312 22.6396 322 -25 c 1
 305.5 55 291 114 276 188 c 1
 233 77 179 5 41 -12 c 1
 40.1064 45.3604 48.5928 101 69 164 c 1
 161 203.5 255 253.5 254 288.5 c 1
 244 346.5 224 384.5 176 422 c 0
 129.232 458.538 110 473 66 501.5 c 1
 92.4238 561.284 128.296 613.916 174 654.994 c 1
EndSplineSet
Fore
SplineSet
158.063 654.994 m 1
 221.063 614.5 277.062 576 311.062 531 c 0
 347.123 483.274 350.946 438.422 356.731 402 c 0
 357.29 398.489 399.962 120.208 401.062 112.5 c 1
 383.062 61 351.062 14 314.562 -25 c 1
 298.062 55 283.562 114 268.562 188 c 1
 225.563 77 163.063 5 25.0635 -12 c 1
 24.1699 45.3604 32.6562 101 53.0635 164 c 1
 145.063 203.5 247.563 253.5 246.563 288.5 c 1
 236.563 346.5 216.563 384.5 168.563 422 c 0
 121.796 458.538 94.0635 473 50.0635 501.5 c 1
 76.4873 561.284 112.359 613.916 158.063 654.994 c 1
EndSplineSet
Validated: 33
Comment: "+AAoA%DiaToBase1+AD0A-205+AAoA%DiaToBase2+AD0A-200+AAoA%DiaToBase3+AD0A-205+AAoA%DiaToBase4+AD0A-210+AAoA%DiaToBaseO+AD0A-15+AAoA%DiaToBaseU+AD0A-200+AAoA%RafeToBase+AD0A-220" 
EndChar

StartChar: afii57667
Encoding: 1491 1491 117
Width: 604
VWidth: 1000
Flags: W
HStem: 422 178<197.407 328 457 518.255>
VStem: 333 122<92.6361 422>
AnchorPoint: "CtxAnchors_D3Narrow_M" 320 0 basechar 0
AnchorPoint: "CtxAnchors_D1_M" 340 0 basechar 0
AnchorPoint: "CtxAnchors_D2_M" 350 0 basechar 0
AnchorPoint: "CtxAnchors_D2Narrow_M" 350 0 basechar 0
AnchorPoint: "CtxAnchors_M_D2" 350 0 basechar 0
AnchorPoint: "CtxAnchors_M_D1" 340 0 basechar 0
AnchorPoint: "CtxAnchors_M_D3Narrow" 320 0 basechar 0
AnchorPoint: "CtxAnchors_M_D2Narrow" 350 0 basechar 0
AnchorPoint: "DiaToBaseD" 232.5 -28.5 basechar 0
AnchorPoint: "DiaToBaseU" 330 0 basechar 0
AnchorPoint: "DiaToBase4" 320 0 basechar 0
AnchorPoint: "DiaToBase3" 350 0 basechar 0
AnchorPoint: "DiaToBase2" 340 0 basechar 0
AnchorPoint: "DiaToBase1" 370 0 basechar 0
AnchorPoint: "RafeToBase" 350 0 basechar 0
AnchorPoint: "DiaToBaseO" 30 0 basechar 0
LayerCount: 2
Back
SplineSet
25 407 m 1
 46 511 104.268 611.992 174 679.994 c 5
 194 600 204 600 256 600 c 6
 359 600 l 17
 388 633 425 669 453 679.996 c 1
 457 651 458 632 460 600 c 9
 564 600 l 17
 561 539 532 454 495 407 c 9
 455 407 l 25
 455 407 455 211 453 115 c 1
 429 54 382 -4 326 -36 c 1
 321 200 321 407 321 407 c 25
 25 407 l 1
EndSplineSet
Fore
SplineSet
180 680 m 1
 200 600 210 600 262 600 c 2
 363 600 l 17
 387.095 630.856 416.621 656.701 450 680 c 1
 453 653 454 630 456 600 c 9
 584 600 l 17
 572 540.5 544.396 474.525 514 422 c 9
 457 422 l 25
 457 422 457 192 455 102 c 1
 422.5 51.5 381 10 333 -25 c 1
 328 193 328 422 328 422 c 25
 35 422 l 1
 68.7695 518.002 117.044 600.002 180 680 c 1
EndSplineSet
Validated: 1
Substitution2: "jaltWideLetters subtable" uniFB22
Comment: "+AAoA%DiaToBase1+AD0A-370+AAoA%DiaToBase2+AD0A-340+AAoA%DiaToBase3+AD0A-350+AAoA%DiaToBase4+AD0A-320+AAoA%DiaToBaseO+AD0A-30+AAoA%DiaToBaseU+AD0A-330+AAoA%RafeToBase+AD0A-350" 
EndChar

StartChar: afii57668
Encoding: 1492 1492 118
Width: 675
VWidth: 1000
Flags: W
HStem: 422 178<221.407 485.583>
VStem: 93.7998 134.4<84.1986 252.134> 502 123<89.0173 415.552>
AnchorPoint: "CtxAnchors_D3Narrow_M" 350 0 basechar 0
AnchorPoint: "CtxAnchors_D1_M" 330 0 basechar 0
AnchorPoint: "CtxAnchors_D2_M" 350 0 basechar 0
AnchorPoint: "CtxAnchors_D2Narrow_M" 350 0 basechar 0
AnchorPoint: "CtxAnchors_M_D2" 350 0 basechar 0
AnchorPoint: "CtxAnchors_M_D1" 330 0 basechar 0
AnchorPoint: "CtxAnchors_M_D3Narrow" 350 0 basechar 0
AnchorPoint: "CtxAnchors_M_D2Narrow" 350 0 basechar 0
AnchorPoint: "DiaToBaseD" 360 -36 basechar 0
AnchorPoint: "DiaToBaseU" 335 0 basechar 0
AnchorPoint: "DiaToBase4" 350 0 basechar 0
AnchorPoint: "DiaToBase3" 350 0 basechar 0
AnchorPoint: "DiaToBase2" 330 0 basechar 0
AnchorPoint: "DiaToBase1" 350 0 basechar 0
AnchorPoint: "RafeToBase" 380 0 basechar 0
AnchorPoint: "DiaToBaseO" 45 0 basechar 0
LayerCount: 2
Back
SplineSet
639 440 m 10
 639 440 639 227 639 100 c 1
 609.5 53 563 7.5 516 -25 c 1
 511 126 508 372 508 372 c 18
 507 415 487 422 459 422 c 2
 49 422 l 1
 89 510 146 600 218 680 c 1
 238 600 248 600 300 600 c 2
 477 600 l 2
 603 600 639 534 639 440 c 10
233 331 m 5
 242 301 242 188 239 93 c 5
 204 45.5 161 7 111 -25 c 1
 107 87 106 130 111 224 c 1
 144.5 265.5 185.5 300.5 233 331 c 5
EndSplineSet
Fore
SplineSet
625 440 m 10
 625 440 625 227 625 100 c 1
 595.5 53 549 7.5 502 -25 c 1
 497 126 494 372 494 372 c 18
 493 415 473 422 445 422 c 2
 35 422 l 1
 75 510 132 600 204 680 c 1
 224 600 234 600 286 600 c 2
 463 600 l 2
 589 600 625 534 625 440 c 10
221.9 331 m 5
 231.35 301 231.35 188 228.2 93 c 5
 191.45 45.5 146.3 7 93.7998 -25 c 5
 89.5996 87 88.5498 130 93.7998 224 c 5
 128.975 265.5 172.025 300.5 221.9 331 c 5
EndSplineSet
Validated: 33
Substitution2: "jaltWideLetters subtable" uniFB23
Comment: "+AAoA%DiaToBase1+AD0A-350+AAoA%DiaToBase2+AD0A-330+AAoA%DiaToBase3+AD0A-350+AAoA%DiaToBase4+AD0A-350+AAoA%DiaToBaseO+AD0A-45+AAoA%DiaToBaseU+AD0A-335+AAoA%RafeToBase+AD0A-380" 
EndChar

StartChar: afii57669
Encoding: 1493 1493 119
Width: 364
VWidth: 1000
Flags: W
VStem: 189 125<90.2028 382.06>
AnchorPoint: "CtxAnchors_Rafe" 222.059 0 basechar 0
AnchorPoint: "CtxAnchors_D3Narrow_M" 190 0 basechar 0
AnchorPoint: "CtxAnchors_D1_M" 210 0 basechar 0
AnchorPoint: "CtxAnchors_D2_M" 190 0 basechar 0
AnchorPoint: "CtxAnchors_D2Narrow_M" 190 0 basechar 0
AnchorPoint: "CtxAnchors_M_D2" 190 0 basechar 0
AnchorPoint: "CtxAnchors_M_D1" 210 0 basechar 0
AnchorPoint: "CtxAnchors_M_D3Narrow" 190 0 basechar 0
AnchorPoint: "CtxAnchors_M_D2Narrow" 190 0 basechar 0
AnchorPoint: "DiaToBaseD" 78 -18 basechar 0
AnchorPoint: "DiaToBaseU" 200 0 basechar 0
AnchorPoint: "DiaToBase4" 190 0 basechar 0
AnchorPoint: "DiaToBase3" 190 0 basechar 0
AnchorPoint: "DiaToBase2" 210 0 basechar 0
AnchorPoint: "DiaToBase1" 230 0 basechar 0
AnchorPoint: "RafeToBase" 190 0 basechar 0
LayerCount: 2
Back
SplineSet
143 679.994 m 1
 190 643 216.618 616.758 257 570 c 16
 295 526 310.23 474.16 313 407 c 16
 317 310 317 257 317 154 c 1
 292 76 244 8 189 -36 c 1
 185 63 185 161 180 264 c 8
 177.142 322.884 167 371 131 407 c 8
 92.7549 445.245 50 468 23 494 c 1
 41 560 94 642 143 679.994 c 1
EndSplineSet
Fore
SplineSet
144 654.994 m 1
 191 618 221.346 592.529 263 545 c 0
 302 500.5 314.772 449.991 314 382 c 2
 314 382 314 208 314 102 c 1
 280 51 237.5 8.5 189 -25 c 1
 189 264 l 2
 188.605 320.997 180.487 372.552 143 407 c 0
 106 441 69.5 469.5 35 494 c 1
 62.5 557.5 102.129 617 144 654.994 c 1
EndSplineSet
Validated: 33
Comment: "+AAoA%DiaToBase1+AD0A-230+AAoA%DiaToBase2+AD0A-210+AAoA%DiaToBase3+AD0A-190+AAoA%DiaToBase4+AD0A-190+AAoA%DiaToBaseU+AD0A-200+AAoA%RafeToBase+AD0A-190" 
EndChar

StartChar: afii57670
Encoding: 1494 1494 120
Width: 393
VWidth: 1000
Flags: W
VStem: 30 338
AnchorPoint: "CtxAnchors_Rafe" 222.059 0 basechar 0
AnchorPoint: "CtxAnchors_D3Narrow_M" 180 0 basechar 0
AnchorPoint: "CtxAnchors_D1_M" 195 0 basechar 0
AnchorPoint: "CtxAnchors_D2_M" 185 0 basechar 0
AnchorPoint: "CtxAnchors_D2Narrow_M" 185 0 basechar 0
AnchorPoint: "CtxAnchors_M_D2" 185 0 basechar 0
AnchorPoint: "CtxAnchors_M_D1" 195 0 basechar 0
AnchorPoint: "CtxAnchors_M_D3Narrow" 180 0 basechar 0
AnchorPoint: "CtxAnchors_M_D2Narrow" 185 0 basechar 0
AnchorPoint: "DiaToBaseD" 58.0703 0 basechar 0
AnchorPoint: "DiaToBaseU" 195 0 basechar 0
AnchorPoint: "DiaToBase4" 180 0 basechar 0
AnchorPoint: "DiaToBase3" 185 0 basechar 0
AnchorPoint: "DiaToBase2" 195 0 basechar 0
AnchorPoint: "DiaToBase1" 200 0 basechar 0
AnchorPoint: "RafeToBase" 210 0 basechar 0
LayerCount: 2
Back
SplineSet
154 654.994 m 1
 235 615 333 556 386 495 c 1
 368.402 440 338.314 389 305 345 c 1
 271 370 242 393 209 413 c 1
 204 395 213.234 360.204 225 329 c 16
 248 268 269 228 305 154 c 1
 287.643 74.9648 264.208 25.7686 226 -25 c 1
 174 96 147.5 165 121.5 249 c 0
 110.279 285.25 107.137 318.283 121.5 358.5 c 16
 134 393.5 147 413.5 163 439.5 c 1
 126 460.5 89.5 479.5 48 501 c 1
 77.4121 564.213 113.625 616.784 154 654.994 c 1
EndSplineSet
Fore
SplineSet
136 654.994 m 1
 217 615 315 556 368 495 c 1
 350.402 440 320.314 389 287 345 c 1
 253 370 224 393 191 413 c 1
 186 395 195.234 360.204 207 329 c 16
 230 268 251 228 287 154 c 1
 269.643 74.9648 238.5 22.5 196.5 -25 c 1
 144.5 96 118 165 92 249 c 0
 80.7793 285.25 77.6367 318.283 92 358.5 c 16
 104.5 393.5 120 418 136 444 c 1
 99 465 71.5 479.5 30 501 c 1
 59.4121 564.213 95.625 616.784 136 654.994 c 1
EndSplineSet
Validated: 33
Comment: "+AAoA%DiaToBase1+AD0A-200+AAoA%DiaToBase2+AD0A-195+AAoA%DiaToBase3+AD0A-185+AAoA%DiaToBase4+AD0A-180+AAoA%DiaToBaseU+AD0A-195+AAoA%RafeToBase+AD0A-210" 
EndChar

StartChar: afii57671
Encoding: 1495 1495 121
Width: 668
VWidth: 1000
Flags: W
HStem: 424 176<215.407 429.365>
VStem: 95 119<95.767 287.125> 516 116<93.36 290.151>
AnchorPoint: "CtxAnchors_D3Narrow_M" 360 0 basechar 0
AnchorPoint: "CtxAnchors_D1_M" 330 0 basechar 0
AnchorPoint: "CtxAnchors_D2_M" 350 0 basechar 0
AnchorPoint: "CtxAnchors_D2Narrow_M" 350 0 basechar 0
AnchorPoint: "CtxAnchors_M_D2" 350 0 basechar 0
AnchorPoint: "CtxAnchors_M_D1" 330 0 basechar 0
AnchorPoint: "CtxAnchors_M_D3Narrow" 360 0 basechar 0
AnchorPoint: "CtxAnchors_M_D2Narrow" 350 0 basechar 0
AnchorPoint: "DiaToBaseD" 354 -25 basechar 0
AnchorPoint: "DiaToBaseU" 335 0 basechar 0
AnchorPoint: "DiaToBase4" 360 0 basechar 0
AnchorPoint: "DiaToBase3" 350 0 basechar 0
AnchorPoint: "DiaToBase2" 330 0 basechar 0
AnchorPoint: "DiaToBase1" 340 0 basechar 0
AnchorPoint: "RafeToBase" 360 0 basechar 0
AnchorPoint: "DiaToBaseO" 35 0 basechar 0
LayerCount: 2
Back
SplineSet
252 600 m 2
 252 600 330.69 600 381 600 c 16
 486 600 576 508 595 374 c 8
 608.696 277.403 605 225 604 124 c 1
 581 56 539 5 483 -36 c 1
 483 72 483 189 472 262 c 12
 461.121 334.199 429 399 367 417 c 4
 319.242 430.865 244 429 190 429 c 5
 190 429 191 247 191 130 c 1
 170 67 123 0 67 -36 c 1
 63 265 54 398 27 483 c 1
 55 565 107 634 170 679.994 c 1
 190 600 200 600 252 600 c 2
EndSplineSet
Fore
SplineSet
280 600 m 2
 357 600 l 18
 423 600 476 593 514 569 c 0
 583.413 525.161 610.467 462.393 623 374 c 8
 637.736 270.07 633 206 632 105 c 1
 602 54.5 567 15 516 -25 c 1
 516 83 516 184 505 257 c 8
 494.121 329.199 462 394 400 412 c 0
 352.242 425.865 268 424 214 424 c 1
 214 424 214 224 214 108 c 1
 180.5 55 141.442 12.4541 95 -25 c 1
 91 276 82 398 55 483 c 1
 89.2324 559.13 140.023 629.27 198 679.994 c 1
 218 600 228 600 280 600 c 2
EndSplineSet
Validated: 33
Comment: "+AAoA%DiaToBase1+AD0A-340+AAoA%DiaToBase2+AD0A-330+AAoA%DiaToBase3+AD0A-350+AAoA%DiaToBase4+AD0A-360+AAoA%DiaToBaseO+AD0A-35+AAoA%DiaToBaseU+AD0A-335+AAoA%RafeToBase+AD0A-360" 
EndChar

StartChar: afii57672
Encoding: 1496 1496 122
Width: 678
VWidth: 1000
Flags: W
HStem: -10 178<276.584 418.334> 448 184<350.819 492.399>
AnchorPoint: "CtxAnchors_D3Narrow_M" 345 0 basechar 0
AnchorPoint: "CtxAnchors_D1_M" 345 0 basechar 0
AnchorPoint: "CtxAnchors_D2_M" 345 0 basechar 0
AnchorPoint: "CtxAnchors_D2Narrow_M" 345 0 basechar 0
AnchorPoint: "CtxAnchors_M_D2" 345 0 basechar 0
AnchorPoint: "CtxAnchors_M_D1" 345 0 basechar 0
AnchorPoint: "CtxAnchors_M_D3Narrow" 345 0 basechar 0
AnchorPoint: "CtxAnchors_M_D2Narrow" 345 0 basechar 0
AnchorPoint: "DiaToBaseD" 381 11 basechar 0
AnchorPoint: "DiaToBaseU" 335 0 basechar 0
AnchorPoint: "DiaToBase4" 345 0 basechar 0
AnchorPoint: "DiaToBase3" 345 0 basechar 0
AnchorPoint: "DiaToBase2" 345 0 basechar 0
AnchorPoint: "DiaToBase1" 345 0 basechar 0
AnchorPoint: "RafeToBase" 370 0 basechar 0
LayerCount: 2
Back
SplineSet
24 481 m 1
 50 558 101 626 160 679.994 c 1
 196 617 216 544 234 452 c 8
 249.246 374.076 255 334 277 253 c 8
 287.339 214.935 300.96 177.698 347 180 c 0
 407 183 482 220 517 264 c 8
 557.962 315.494 543 396 493 431 c 8
 429.388 475.529 335 424 297 396 c 1
 288 485 317 546 347 586 c 8
 384.424 635.898 450.907 650.014 494 649 c 0
 579 647 656.609 604.141 680 502 c 0
 710 371 658 215 588 124 c 8
 516.68 31.2832 396 -22 326 -22 c 8
 256.408 -22 201 17 181 82 c 8
 152.358 175.085 137 237 112 322 c 8
 92.002 389.994 51 441 24 481 c 1
EndSplineSet
Fore
SplineSet
10 481 m 5
 35 546 72 604 124 655 c 5
 158 586 183 523 206 432 c 4
 222 370 236 310 250 250 c 12
 260.276 205.956 286 166 332 168 c 4
 392 171 476 220 510 258 c 4
 543 292 544 334 528 380 c 4
 513 422 460 448 408 448 c 4
 353 448 308 426 270 396 c 5
 274 465 288 526 317 583 c 5
 360 618 403 632 456 632 c 4
 567 632 648 555 648 414 c 4
 648 317 627 240 579 155 c 4
 547 99 520 65 462 34 c 4
 417 10 373 -10 314 -10 c 12
 243.772 -10 193 14 167 94 c 4
 141 172 124 249 98 322 c 12
 74.2207 388.766 40 446 10 481 c 5
EndSplineSet
Validated: 33
Comment: "+AAoA%DiaToBase1+AD0A-345+AAoA%DiaToBase2+AD0A-345+AAoA%DiaToBase3+AD0A-345+AAoA%DiaToBase4+AD0A-345+AAoA%DiaToBaseU+AD0A-335+AAoA%RafeToBase+AD0A-370" 
EndChar

StartChar: afii57673
Encoding: 1497 1497 123
Width: 333
VWidth: 1000
Flags: W
AnchorPoint: "CtxAnchors_Rafe" 222.059 0 basechar 0
AnchorPoint: "CtxAnchors_D3Narrow_M" 155 0 basechar 0
AnchorPoint: "CtxAnchors_D1_M" 160 0 basechar 0
AnchorPoint: "CtxAnchors_D2_M" 165 0 basechar 0
AnchorPoint: "CtxAnchors_D2Narrow_M" 165 0 basechar 0
AnchorPoint: "CtxAnchors_M_D2" 165 0 basechar 0
AnchorPoint: "CtxAnchors_M_D1" 160 0 basechar 0
AnchorPoint: "CtxAnchors_M_D3Narrow" 155 0 basechar 0
AnchorPoint: "CtxAnchors_M_D2Narrow" 165 0 basechar 0
AnchorPoint: "DiaToBaseD" 47 42 basechar 0
AnchorPoint: "DiaToBaseU" 155 0 basechar 0
AnchorPoint: "DiaToBase4" 155 0 basechar 0
AnchorPoint: "DiaToBase3" 165 0 basechar 0
AnchorPoint: "DiaToBase2" 160 0 basechar 0
AnchorPoint: "DiaToBase1" 160 0 basechar 0
AnchorPoint: "RafeToBase" 180 0 basechar 0
LayerCount: 2
Back
SplineSet
155 679.994 m 1
 212 625 244.714 596.777 292 535 c 16
 354 454 325 335 250 262 c 1
 199 207 115 166 59 162 c 5
 84 209 134 265 150 315 c 8
 162.687 354.646 169 378 126 419 c 8
 86.8477 456.331 63 477 24 513 c 1
 52 574 103 638 155 679.994 c 1
EndSplineSet
Fore
SplineSet
145.5 654.994 m 5
 199 605 230.213 572.743 267 532 c 4
 313.5 480.5 313.5 411.5 281 350 c 4
 260.239 310.714 232.5 267.5 196 218 c 5
 159 192.5 121.5 178 76.5 170.5 c 5
 113 231 130.5 265.5 151.5 312.5 c 12
 168.48 350.505 170.5 375.5 127.5 416.5 c 12
 91.9463 450.4 74 466 35 502 c 5
 63 563 99.5 611 145.5 654.994 c 5
EndSplineSet
Validated: 33
Comment: "+AAoA%DiaToBase1+AD0A-160+AAoA%DiaToBase2+AD0A-160+AAoA%DiaToBase3+AD0A-165+AAoA%DiaToBase4+AD0A-155+AAoA%DiaToBaseU+AD0A-155+AAoA%RafeToBase+AD0A-180" 
EndChar

StartChar: afii57674
Encoding: 1498 1498 124
Width: 583
VWidth: 1000
Flags: W
HStem: 422 178<196.84 324.933 442.502 490.33>
VStem: 323.088 126.796<-95.1728 76.2566 390.144 422>
AnchorPoint: "DiaToBaseD" 227 -37 basechar 0
LayerCount: 2
Back
SplineSet
307 407 m 9
 25 407 l 1
 41 493 107.268 611.993 177 679.995 c 5
 197 600.001 207 600.001 259 600.001 c 13
 537 600 l 1
 530 536 497 449 463 407 c 1
 429 407 l 1
 423 221 423 117 437 -90 c 1
 409 -151 358 -205 305 -238 c 1
 297 -119 303 138 307 407 c 9
EndSplineSet
Fore
SplineSet
179.433 679.994 m 1
 199.433 600 209.433 599.985 261.433 600 c 10
 553.933 600.081 l 1
 542.231 538.254 519.433 475 485.652 422 c 1
 442.502 422 l 1
 436.966 250.378 436.966 107.956 449.884 -83.043 c 1
 420.452 -135.185 373.933 -182.5 323.088 -219.603 c 1
 315.706 -109.802 321.242 173.794 324.933 422 c 9
 35 422 l 1
 70.4326 518 122.743 612.219 179.433 679.994 c 1
EndSplineSet
Validated: 33
EndChar

StartChar: afii57675
Encoding: 1499 1499 125
Width: 559
VWidth: 1000
Flags: W
HStem: 0 178<93.1213 387.517> 422 178<204.407 355.365>
AnchorPoint: "CtxAnchors_D3Narrow_M" 260 0 basechar 0
AnchorPoint: "CtxAnchors_D1_M" 245 0 basechar 0
AnchorPoint: "CtxAnchors_D2_M" 260 0 basechar 0
AnchorPoint: "CtxAnchors_D2Narrow_M" 260 0 basechar 0
AnchorPoint: "CtxAnchors_M_D2" 260 0 basechar 0
AnchorPoint: "CtxAnchors_M_D1" 245 0 basechar 0
AnchorPoint: "CtxAnchors_M_D3Narrow" 260 0 basechar 0
AnchorPoint: "CtxAnchors_M_D2Narrow" 260 0 basechar 0
AnchorPoint: "DiaToBaseD" 251 0 basechar 0
AnchorPoint: "DiaToBaseU" 250 0 basechar 0
AnchorPoint: "DiaToBase4" 260 0 basechar 0
AnchorPoint: "DiaToBase3" 260 0 basechar 0
AnchorPoint: "DiaToBase2" 245 0 basechar 0
AnchorPoint: "DiaToBase1" 270 0 basechar 0
AnchorPoint: "RafeToBase" 280 0 basechar 0
AnchorPoint: "DiaToBaseO" 30 0 basechar 0
LayerCount: 2
Back
SplineSet
314 193 m 2
 107 193 l 1
 61 146 24 64 15 0 c 1
 356 0 l 2
 389 0 403 6 425 40 c 0
 460.257 94.4883 479.129 126.912 501 188 c 16
 530 269 547.565 356.167 518 455 c 0
 483 572 394.075 600 318 600 c 2
 264 600 l 2
 212 600 202 600 182 679.994 c 1
 112.268 611.992 54 511 33 407 c 5
 259 407 l 22
 316 407 360.865 373.926 374 319 c 16
 385 273 393 193 314 193 c 2
EndSplineSet
Fore
SplineSet
332 178 m 2
 411 178 417 273 406 319 c 8
 390.308 384.621 339 422 267 422 c 10
 41 422 l 1
 71.875 517.392 125.764 604.586 187 679.994 c 1
 207 600 217 600 269 600 c 2
 301 600 l 2
 324.682 600 359.213 596.89 379.438 591 c 0
 473.909 563.488 529 475.312 529 360 c 0
 529 237 502.467 124.727 450.604 40 c 0
 429.79 6 416 0 383 0 c 2
 20 0 l 1
 34.4219 59.793 63 123 98 178 c 1
 332 178 l 2
EndSplineSet
Validated: 33
Substitution2: "jaltWideLetters subtable" uniFB24
Comment: "+AAoA%DiaToBase1+AD0A-270+AAoA%DiaToBase2+AD0A-245+AAoA%DiaToBase3+AD0A-260+AAoA%DiaToBase4+AD0A-260+AAoA%DiaToBaseO+AD0A-30+AAoA%DiaToBaseU+AD0A-250+AAoA%RafeToBase+AD0A-280" 
EndChar

StartChar: afii57676
Encoding: 1500 1500 126
Width: 543
VWidth: 1000
Flags: W
HStem: -16 21G<85.0356 113.5> 422 178<163.753 370.021>
VStem: 50 113<600.897 666.387> 372 141<357.652 541.009>
AnchorPoint: "CtxAnchors_D3Narrow_M" 260 0 basechar 0
AnchorPoint: "CtxAnchors_D1_M" 235 0 basechar 0
AnchorPoint: "CtxAnchors_D2_M" 250 0 basechar 0
AnchorPoint: "CtxAnchors_D2Narrow_M" 250 0 basechar 0
AnchorPoint: "CtxAnchors_M_D2" 250 0 basechar 0
AnchorPoint: "CtxAnchors_M_D1" 235 0 basechar 0
AnchorPoint: "CtxAnchors_M_D3Narrow" 260 0 basechar 0
AnchorPoint: "CtxAnchors_M_D2Narrow" 250 0 basechar 0
AnchorPoint: "CtxAnchors_Yerushalam" -102.5 0 basechar 0
AnchorPoint: "DiaToBaseD" 236 20 basechar 0
AnchorPoint: "DiaToBaseU" 240 0 basechar 0
AnchorPoint: "DiaToBase4" 260 0 basechar 0
AnchorPoint: "DiaToBase3" 250 0 basechar 0
AnchorPoint: "DiaToBase2" 235 0 basechar 0
AnchorPoint: "DiaToBase1" 230 0 basechar 0
AnchorPoint: "RafeToBase" 330 0 basechar 0
AnchorPoint: "DiaToBaseO" -100 0 basechar 0
LayerCount: 2
Back
SplineSet
128 828 m 5
 158 798 151 718 153 651 c 12
 153.747 625.972 148 600 192 600 c 6
 439 600 l 6
 489 600 493 555.018 493 527 c 4
 493 473 479.191 400.081 457 322 c 20
 430 227 397 135 260 52 c 12
 187.892 8.31348 114 -12 58 -25 c 5
 58 47 98 145 134 187 c 5
 190 208 246.599 217.233 298 258 c 4
 327 281 338 324.939 338 358 c 4
 338 381 337 407 295 407 c 6
 73 407 l 6
 41 407 30 417 30 460 c 4
 30 515.009 30 545.4 30 600 c 20
 30 634 30 639 -5 676 c 5
 18 737.007 74 798 128 828 c 5
EndSplineSet
Fore
SplineSet
138 822 m 1
 168 792 161 718 163 651 c 8
 163.747 625.972 158 600 202 600 c 2
 459 600 l 2
 509 600 513 555.018 513 527 c 0
 513 473 502 389 481 322 c 0
 451.462 227.758 418 135 281 52 c 8
 209.905 8.92773 148 -7 79 -16 c 1
 91.0713 51.5918 112 114 146 178 c 1
 207 198 276.976 209.555 327 252 c 0
 360 280 372 320 372 373 c 0
 372 396 371 422 329 422 c 2
 93 422 l 2
 61 422 50 432 50 475 c 0
 50 530.009 50 551.25 50 600 c 16
 50 634 50 639 15 676 c 1
 44.3145 728.461 91.4551 781.913 138 822 c 1
EndSplineSet
Validated: 33
Substitution2: "jaltWideLetters subtable" uniFB25
Comment: "+AAoA%DiaToBase1+AD0A-230+AAoA%DiaToBase2+AD0A-235+AAoA%DiaToBase3+AD0A-250+AAoA%DiaToBase4+AD0A-260+AAoA%DiaToBaseO+AD0A--100+AAoA%DiaToBaseU+AD0A-240+AAoA%RafeToBase+AD0A-330" 
EndChar

StartChar: afii57677
Encoding: 1501 1501 127
Width: 710
VWidth: 1000
Flags: W
HStem: 0 178<240.719 556.792> 422 178<213.878 532.702>
VStem: 109 104.456<207.081 420.988> 557.883 112.617<178.428 394.963>
AnchorPoint: "DiaToBaseD" 391 0 basechar 0
LayerCount: 2
Back
SplineSet
234.456 422 m 1
 236.237 368 239.089 313 252.643 248 c 8
 261.081 207.526 267.544 178 331.544 178 c 2
 535.544 178 l 6
 564.544 178 563.213 196.979 563.883 216 c 4
 565.891 273 561.949 315 552.098 370 c 4
 547.643 394.872 522.456 422 464.456 422 c 6
 234.456 422 l 1
686.5 298.5 m 0
 686.5 207 675.156 104.678 656.5 66 c 0
 636 23.5 601.5 0 546 0 c 2
 220 0 l 2
 154 0 138 46 135 106 c 0
 130 204 126 286 125 387 c 0
 125 399 129 422 85 422 c 10
 51 422 l 1
 91 517 139.828 596.835 206 680 c 1
 226 600 236 600 288 600 c 2
 546.5 600 l 2
 602 600 636.5 576.5 657 534 c 0
 675.656 495.323 686.5 391.063 686.5 298.5 c 0
EndSplineSet
Fore
SplineSet
213.456 422 m 1
 215.237 368 213.089 313 226.643 248 c 8
 235.04 207.73 241.544 178 305.544 178 c 2
 529.544 178 l 6
 558.544 178 557.213 196.979 557.883 216 c 4
 559.891 273 555.949 315 546.098 370 c 4
 541.643 394.872 516.456 422 458.456 422 c 6
 213.456 422 l 1
670.5 298.5 m 0
 670.5 207 659.156 104.678 640.5 66 c 0
 620 23.5 585.5 0 530 0 c 2
 204 0 l 2
 138 0 122 46 119 106 c 0
 114 204 110 286 109 387 c 0
 109 399 113 422 69 422 c 10
 35 422 l 1
 75 517 123.828 596.835 190 680 c 1
 210 600 220 600 272 600 c 2
 530.5 600 l 2
 586 600 620.5 576.5 641 534 c 0
 659.656 495.323 670.5 391.062 670.5 298.5 c 0
EndSplineSet
Validated: 33
Substitution2: "jaltWideLetters subtable" uniFB26
EndChar

StartChar: afii57678
Encoding: 1502 1502 128
Width: 705
VWidth: 1000
Flags: W
HStem: 0 178<310.599 554> 446 179<370.545 473.02>
AnchorPoint: "CtxAnchors_D3Narrow_M" 345 0 basechar 0
AnchorPoint: "CtxAnchors_D1_M" 345 0 basechar 0
AnchorPoint: "CtxAnchors_D2_M" 340 0 basechar 0
AnchorPoint: "CtxAnchors_D2Narrow_M" 340 0 basechar 0
AnchorPoint: "CtxAnchors_M_D2" 340 0 basechar 0
AnchorPoint: "CtxAnchors_M_D1" 345 0 basechar 0
AnchorPoint: "CtxAnchors_M_D3Narrow" 345 0 basechar 0
AnchorPoint: "CtxAnchors_M_D2Narrow" 340 0 basechar 0
AnchorPoint: "DiaToBaseD" 402 0 basechar 0
AnchorPoint: "DiaToBaseU" 340 0 basechar 0
AnchorPoint: "DiaToBase4" 345 0 basechar 0
AnchorPoint: "DiaToBase3" 340 0 basechar 0
AnchorPoint: "DiaToBase2" 345 0 basechar 0
AnchorPoint: "DiaToBase1" 360 0 basechar 0
AnchorPoint: "RafeToBase" 370 0 basechar 0
AnchorPoint: "DiaToBaseO" 5 0 basechar 0
LayerCount: 2
Back
SplineSet
164 679.994 m 1
 214 594 242 502 262 448 c 1
 331 562 355.989 628.75 446 625 c 0
 542 621 572.932 568.953 591 543 c 0
 646 464 664 282 653 193 c 1
 646 127 610 46 564 0 c 1
 226 0 l 1
 234 68 268 143 313 193 c 5
 530 193 l 5
 529 259 517 328 490 368 c 12
 463.726 406.925 434 432 388 432 c 4
 332 432 286.14 391.18 260 334 c 20
 228 264 208 201 189 124 c 1
 159 62 93 0 24 -36 c 1
 40 70 80.457 161.149 107 257 c 0
 125 322 113 343 98 376 c 0
 77.4551 421.199 39 451 30 474 c 1
 50 543 113 640 164 679.994 c 1
EndSplineSet
Fore
SplineSet
155 654.994 m 1
 206 586 245 522 271 448 c 1
 318 561 366 625 455 625 c 0
 551.083 625 582 569 600 543 c 0
 655 464 673 282 662 193 c 1
 641 124 615 67 573 0 c 1
 235 0 l 1
 252.208 65.4336 276.923 119.235 316 178 c 1
 554 178 l 1
 553.04 252 540.56 330 512.72 375 c 8
 485.787 418.534 450.319 446 402.319 446 c 0
 344.72 446 296.874 398.304 270.8 337 c 16
 237.199 258 209.359 164 191.119 87 c 1
 149 43.5 92.5 4.5 35 -25 c 1
 53 71 89 161 116 257 c 0
 134 322 122 343 107 376 c 0
 86 421 56 456 39 474 c 1
 59 543 104 614.994 155 654.994 c 1
EndSplineSet
Validated: 33
Comment: "+AAoA%DiaToBase1+AD0A-360+AAoA%DiaToBase2+AD0A-345+AAoA%DiaToBase3+AD0A-340+AAoA%DiaToBase4+AD0A-345+AAoA%DiaToBaseO+AD0A-5+AAoA%DiaToBaseU+AD0A-340+AAoA%RafeToBase+AD0A-370" 
EndChar

StartChar: afii57679
Encoding: 1503 1503 129
Width: 364
VWidth: 1000
Flags: W
VStem: 189 125<-130.25 382.06>
AnchorPoint: "DiaToBaseD" 88 0 basechar 0
LayerCount: 2
Back
SplineSet
152 654.994 m 1
 199 618 225.618 591.758 266 545 c 16
 304 501 317.772 449.991 317 382 c 2
 317 382 317 -13 317 -119 c 5
 283.45 -175.257 247.286 -209.552 197 -246 c 1
 197 264 l 2
 196.605 320.997 188.487 372.552 151 407 c 0
 114 441 77.5 469.5 43 494 c 1
 70.5 557.5 110.129 617 152 654.994 c 1
EndSplineSet
Fore
SplineSet
144 654.994 m 1
 187.5 623 221.692 592.83 263 545 c 16
 301 501 314.772 449.991 314 382 c 2
 314 382 314 -13 314 -119 c 1
 279 -167.5 239.286 -209.552 189 -246 c 1
 189 264 l 2
 188.605 320.997 180.487 372.552 143 407 c 0
 106 441 69.5 469.5 35 494 c 1
 62.5 557.5 102.129 617 144 654.994 c 1
EndSplineSet
Validated: 33
EndChar

StartChar: afii57680
Encoding: 1504 1504 130
Width: 400
VWidth: 1000
Flags: W
HStem: 0 178<69.443 234>
VStem: 234 115<180.206 361.284>
AnchorPoint: "CtxAnchors_Rafe" 222.059 0 basechar 0
AnchorPoint: "CtxAnchors_D3Narrow_M" 180 0 basechar 0
AnchorPoint: "CtxAnchors_D1_M" 165 0 basechar 0
AnchorPoint: "CtxAnchors_D2_M" 180 0 basechar 0
AnchorPoint: "CtxAnchors_D2Narrow_M" 180 0 basechar 0
AnchorPoint: "CtxAnchors_M_D2" 180 0 basechar 0
AnchorPoint: "CtxAnchors_M_D1" 165 0 basechar 0
AnchorPoint: "CtxAnchors_M_D3Narrow" 180 0 basechar 0
AnchorPoint: "CtxAnchors_M_D2Narrow" 180 0 basechar 0
AnchorPoint: "DiaToBaseD" 124 0 basechar 0
AnchorPoint: "DiaToBaseU" 165 0 basechar 0
AnchorPoint: "DiaToBase4" 180 0 basechar 0
AnchorPoint: "DiaToBase3" 180 0 basechar 0
AnchorPoint: "DiaToBase2" 165 0 basechar 0
AnchorPoint: "DiaToBase1" 175 0 basechar 0
AnchorPoint: "RafeToBase" 190 0 basechar 0
LayerCount: 2
Back
SplineSet
156 679.994 m 1
 239 632 307.981 574.224 340 456 c 0
 366 360 359 298 349 193 c 5
 343 125 316 53 279 0 c 1
 25 0 l 1
 20 61 39 143 73 193 c 1
 229 193 l 1
 232 273 227 331 191 381 c 0
 151.263 436.19 78 467 35 490 c 1
 54 556 103 635 156 679.994 c 1
EndSplineSet
Fore
SplineSet
131 654.994 m 1
 214 607 316.132 561.861 336 441 c 0
 348 368 353 281 349 193 c 1
 336.099 124.987 307.458 52.9844 279 0 c 1
 25 0 l 1
 31 67 47.2607 126.578 73 178 c 1
 234 178 l 1
 237 258 233.393 332.033 196 381 c 0
 154 436 78 467 35 490 c 1
 59.1875 554.523 92.1367 605.822 131 654.994 c 1
EndSplineSet
Validated: 33
Comment: "+AAoA%DiaToBase1+AD0A-175+AAoA%DiaToBase2+AD0A-165+AAoA%DiaToBase3+AD0A-180+AAoA%DiaToBase4+AD0A-180+AAoA%DiaToBaseU+AD0A-165+AAoA%RafeToBase+AD0A-190" 
EndChar

StartChar: afii57681
Encoding: 1505 1505 131
Width: 684
VWidth: 1000
Flags: W
HStem: -10 21G<268.015 345.806> 422 178<214.367 515.475>
VStem: 81 133<343.956 422> 525.1 128.9<283.699 415.822>
AnchorPoint: "CtxAnchors_D3Narrow_M" 360 0 basechar 0
AnchorPoint: "CtxAnchors_D1_M" 345 0 basechar 0
AnchorPoint: "CtxAnchors_D2_M" 370 0 basechar 0
AnchorPoint: "CtxAnchors_D2Narrow_M" 370 0 basechar 0
AnchorPoint: "CtxAnchors_M_D2" 370 0 basechar 0
AnchorPoint: "CtxAnchors_M_D1" 345 0 basechar 0
AnchorPoint: "CtxAnchors_M_D3Narrow" 360 0 basechar 0
AnchorPoint: "CtxAnchors_M_D2Narrow" 370 0 basechar 0
AnchorPoint: "DiaToBaseD" 376 11 basechar 0
AnchorPoint: "DiaToBaseU" 335 0 basechar 0
AnchorPoint: "DiaToBase4" 360 0 basechar 0
AnchorPoint: "DiaToBase3" 370 0 basechar 0
AnchorPoint: "DiaToBase2" 345 0 basechar 0
AnchorPoint: "DiaToBase1" 335 0 basechar 0
AnchorPoint: "RafeToBase" 370 0 basechar 0
LayerCount: 2
Back
SplineSet
271 422 m 1
 271 422 309.555 279.953 339.2 190.851 c 16
 348 164.4 374.95 154.05 429.399 175.9 c 8
 456.625 186.825 472.271 193.432 496.5 210.4 c 16
 553.149 250.075 569.1 297.8 569.1 344.95 c 8
 569.1 381.399 560.3 422 518.5 422 c 10
 271 422 l 1
49 422 m 1
 80.8193 516.367 134.442 602.933 194 679.994 c 1
 214 600 224 600 276 600 c 2
 636 600 l 2
 678 600 700 555 698 494 c 0
 694.13 375.958 684 279 631 182 c 8
 581.003 90.4951 514.5 49 428 8 c 0
 400.887 -4.85156 368 -10 333 -10 c 8
 291.03 -10 262.699 16.6885 248 56 c 16
 205 171 178 258 141 373 c 8
 132.972 397.952 130 422 95 422 c 2
 49 422 l 1
EndSplineSet
Fore
SplineSet
214 422 m 5
 214 422 252.098 283.877 281 197 c 20
 289.932 170.152 317.286 159.647 372.552 181.825 c 12
 453.389 214.265 525.1 249.366 525.1 344.95 c 12
 525.1 380.9 516.3 422 474.5 422 c 14
 214 422 l 5
5 422 m 21
 36.8193 516.367 90.4424 602.933 150 679.994 c 5
 170 600 180 600 232 600 c 6
 592 600 l 6
 634 600 656 555 654 494 c 4
 650.13 375.958 640 279 587 182 c 12
 520.709 60.6758 402.612 -10 289 -10 c 12
 247.03 -10 218.699 16.6885 204 56 c 20
 161 171 118 307 81 422 c 13
 5 422 l 21
EndSplineSet
Validated: 33
Comment: "+AAoA%DiaToBase1+AD0A-335+AAoA%DiaToBase2+AD0A-345+AAoA%DiaToBase3+AD0A-370+AAoA%DiaToBase4+AD0A-360+AAoA%DiaToBaseU+AD0A-335+AAoA%RafeToBase+AD0A-370" 
EndChar

StartChar: afii57682
Encoding: 1506 1506 132
Width: 632
VWidth: 1000
Flags: W
VStem: 222.399 113.601<178 221.166>
AnchorPoint: "DiaToBaseD" 385 40 basechar 0
AnchorPoint: "RafeToBase" 360 0 basechar 0
AnchorPoint: "DiaToBaseO" 30 0 basechar 0
LayerCount: 2
Back
SplineSet
197.601 679.994 m 1
 286.7 542 310.9 323 335.101 201 c 1
 493.5 269 425.3 402 374.7 494 c 1
 400 561 457.2 636 518.8 679.996 c 1
 572.553 620 625.386 405.382 563.9 244 c 16
 495.7 65 217.4 -63 4 -140 c 1
 16.1006 -61 55.7002 38 96.4004 94 c 1
 134.9 114 175.601 129 199.8 140 c 1
 162.4 326 86.5 403 30.4004 484 c 1
 62.2998 557 133.8 639 197.601 679.994 c 1
EndSplineSet
Fore
SplineSet
182 654.994 m 1
 271.1 517 311.8 300 336 178 c 1
 494.399 246 503 337 416.7 494 c 1
 451 558 488 608 538 654.996 c 1
 601 553 631.21 378.4 564 224 c 16
 490 54 235.4 -63 22 -140 c 1
 40.5322 -65.0244 62 0 98 69 c 1
 136.5 89 198.2 115 222.399 126 c 1
 185 312 104.5 403 48.4004 484 c 1
 83.4287 544.989 126.91 600.152 182 654.994 c 1
EndSplineSet
Validated: 33
Substitution2: "saltMiscSAlt subtable" uniFB20
Substitution2: "AltAyin subtable" uniFB20
Comment: "+AAoA%DiaToBaseO+AD0A-30+AAoA%RafeToBase+AD0A-360" 
EndChar

StartChar: afii57683
Encoding: 1507 1507 133
Width: 581
VWidth: 1000
Flags: W
VStem: 396.585 135<-120.205 364.416>
AnchorPoint: "DiaToBaseD" 309 -52 basechar 0
LayerCount: 2
Back
SplineSet
285 640 m 1
 348 612 391.396 587.552 439 553 c 0
 501 508 539 454 539 356 c 2
 539 356 539 63 539 -118 c 1
 502 -167.5 462.5 -203.5 409 -238 c 1
 409 245 l 2
 409 327 388.665 376.256 338 415 c 0
 304 441 257 466 223 479 c 1
 207 466 183.895 448.968 179 421 c 16
 172 381 214 353 257 325 c 1
 240.54 270.569 209.278 211.807 180 178 c 1
 99 211 55 270 48 348 c 0
 37.0234 470.31 183 592 285 640 c 1
EndSplineSet
Fore
SplineSet
272.585 640 m 1
 335.585 612 378.57 586.979 426.585 553 c 0
 491.585 507 531.585 447 531.585 334 c 2
 531.585 334 531.585 70 531.585 -111 c 1
 494.585 -160.5 450.085 -203.5 396.585 -238 c 1
 396.585 245 l 2
 396.585 327 376.25 376.256 325.585 415 c 0
 291.585 441 244.585 466 210.585 479 c 1
 194.585 466 171.479 448.968 166.585 421 c 16
 159.585 381 201.585 353 244.585 325 c 1
 228.125 270.569 196.862 211.807 167.585 178 c 1
 86.585 211 42.585 270 35.585 348 c 0
 24.6084 470.31 170.585 592 272.585 640 c 1
EndSplineSet
Validated: 33
EndChar

StartChar: afii57684
Encoding: 1508 1508 134
Width: 559
VWidth: 1000
Flags: W
HStem: 0 178<76.745 394>
VStem: 394 120<179.802 385.922>
AnchorPoint: "CtxAnchors_Rafe" 302.059 0 basechar 0
AnchorPoint: "CtxAnchors_D3Narrow_M" 260 0 basechar 0
AnchorPoint: "CtxAnchors_D1_M" 265 0 basechar 0
AnchorPoint: "CtxAnchors_D2_M" 270 0 basechar 0
AnchorPoint: "CtxAnchors_D2Narrow_M" 270 0 basechar 0
AnchorPoint: "CtxAnchors_M_D2" 270 0 basechar 0
AnchorPoint: "CtxAnchors_M_D1" 265 0 basechar 0
AnchorPoint: "CtxAnchors_M_D3Narrow" 260 0 basechar 0
AnchorPoint: "CtxAnchors_M_D2Narrow" 270 0 basechar 0
AnchorPoint: "DiaToBaseD" 313 -37 basechar 0
AnchorPoint: "DiaToBaseU" 270 0 basechar 0
AnchorPoint: "DiaToBase4" 260 0 basechar 0
AnchorPoint: "DiaToBase3" 270 0 basechar 0
AnchorPoint: "DiaToBase2" 265 0 basechar 0
AnchorPoint: "DiaToBase1" 275 0 basechar 0
AnchorPoint: "RafeToBase" 290 0 basechar 0
AnchorPoint: "DiaToBaseO" 80 0 basechar 0
LayerCount: 2
Back
SplineSet
247 664 m 1
 316 642 347.892 622.16 405 583 c 16
 475 535 492 511 502 407 c 0
 510.362 320.034 510 263 505 193 c 1
 496 126 469 53 430 0 c 1
 6 0 l 1
 6 63 43 154 81 193 c 1
 370 193 l 1
 373 243 370 265 368 306 c 8
 365.714 352.864 358 375 313 413 c 8
 277.631 442.867 255 454 210 472 c 1
 194 459 186.09 455.8 185 440 c 16
 183 411 215 387 258 359 c 1
 252 306 223 256 185 221 c 1
 104 254 49.5605 297.977 46 368 c 0
 40 486 145 616 247 664 c 1
EndSplineSet
Fore
SplineSet
264 642 m 1
 324 619 365.083 600.438 422 561 c 0
 485.5 517 507 467 511 385 c 0
 515 305 514 263 514 193 c 1
 500 122 479 61 449 0 c 1
 25 0 l 1
 35 66 50 123 81 178 c 1
 394 178 l 1
 394 289 l 10
 394 342.225 386 381 337 413 c 0
 296 440 264 454 219 472 c 1
 203 459 195.312 449.017 194 430 c 16
 192 401 224 387 267 359 c 1
 252 311 225 259 194 221 c 1
 113 254 59 298 55 368 c 0
 49 486 162 594 264 642 c 1
EndSplineSet
Validated: 33
Comment: "+AAoA%DiaToBase1+AD0A-275+AAoA%DiaToBase2+AD0A-265+AAoA%DiaToBase3+AD0A-270+AAoA%DiaToBase4+AD0A-260+AAoA%DiaToBaseO+AD0A-80+AAoA%DiaToBaseU+AD0A-270+AAoA%RafeToBase+AD0A-290" 
EndChar

StartChar: afii57685
Encoding: 1509 1509 135
Width: 574
VWidth: 1000
Flags: W
VStem: 327.573 111.427<-89.1329 -2.00482>
AnchorPoint: "DiaToBaseD" 310 254 basechar 0
LayerCount: 2
Back
SplineSet
147 654.994 m 1
 238.013 549 283.872 449 336.893 336 c 1
 391 386 411 439 367 499 c 1
 400.698 560.259 435.469 608 483.469 654.996 c 1
 610 492 503.711 363 371.439 255 c 1
 414.318 141 444.171 6 440 -73 c 1
 418 -122 382 -164 332.573 -204 c 1
 329.552 -51 294.472 96 229.981 235 c 8
 174.714 354.122 118.249 418 40 513 c 1
 68 575 104 616 147 654.994 c 1
EndSplineSet
Fore
SplineSet
146 654.994 m 1
 237.013 549 282.979 449 336 336 c 1
 390.106 386 410 439 366 499 c 1
 399.698 560.259 434.469 608 482.469 654.996 c 1
 620 501 506.272 357 374 249 c 1
 413 137 443.171 6 439 -73 c 1
 417 -122 377 -173 327.573 -213 c 1
 324.552 -60 289.472 87 224.981 226 c 8
 169.714 345.122 113.249 409 35 504 c 1
 63 566 103 616 146 654.994 c 1
EndSplineSet
Validated: 33
EndChar

StartChar: afii57686
Encoding: 1510 1510 136
Width: 583
VWidth: 1000
Flags: W
HStem: 0 178<100.168 393>
AnchorPoint: "CtxAnchors_D3Narrow_M" 280 0 basechar 0
AnchorPoint: "CtxAnchors_D1_M" 285 0 basechar 0
AnchorPoint: "CtxAnchors_D2_M" 275 0 basechar 0
AnchorPoint: "CtxAnchors_D2Narrow_M" 275 0 basechar 0
AnchorPoint: "CtxAnchors_M_D2" 275 0 basechar 0
AnchorPoint: "CtxAnchors_M_D1" 285 0 basechar 0
AnchorPoint: "CtxAnchors_M_D3Narrow" 280 0 basechar 0
AnchorPoint: "CtxAnchors_M_D2Narrow" 275 0 basechar 0
AnchorPoint: "DiaToBaseD" 184 -42 basechar 0
AnchorPoint: "DiaToBaseU" 290 0 basechar 0
AnchorPoint: "DiaToBase4" 280 0 basechar 0
AnchorPoint: "DiaToBase3" 275 0 basechar 0
AnchorPoint: "DiaToBase2" 285 0 basechar 0
AnchorPoint: "DiaToBase1" 280 0 basechar 0
AnchorPoint: "RafeToBase" 320 0 basechar 0
LayerCount: 2
Back
SplineSet
162 654.994 m 1
 183 535 301 471 419 363 c 1
 442 402 424 459 379 500 c 1
 406.759 566.48 440.41 614.195 485 654.996 c 1
 596 554 565 424 479 314 c 1
 514 284 557 240 559 178 c 1
 546.765 114.749 526.191 53.8721 493.5 0 c 1
 41 0 l 1
 60.5 67 86.2197 122.397 121 178 c 1
 409 178 l 1
 382 262 88 371 51 502 c 1
 79 564 114 612 162 654.994 c 1
EndSplineSet
Fore
SplineSet
146 664 m 1
 167 544.006 285 471 403 363 c 1
 426 402 408 459 363 500 c 1
 390.759 566.48 424.41 614.195 469 654.996 c 1
 580 554 549 424 463 314 c 1
 498 284 541 240 543 178 c 1
 530.765 114.749 510.191 53.8721 477.5 0 c 1
 25 0 l 1
 44.5 67 70.2197 122.397 105 178 c 1
 393 178 l 1
 366 262 72 380.006 35 511.006 c 1
 63 573.006 98 621.006 146 664 c 1
EndSplineSet
Validated: 33
Comment: "+AAoA%DiaToBase1+AD0A-280+AAoA%DiaToBase2+AD0A-285+AAoA%DiaToBase3+AD0A-275+AAoA%DiaToBase4+AD0A-280+AAoA%DiaToBaseU+AD0A-290+AAoA%RafeToBase+AD0A-320" 
EndChar

StartChar: afii57687
Encoding: 1511 1511 137
Width: 671
VWidth: 1000
Flags: W
HStem: -9 21G<278.375 319.225> 422 178<199.407 495.61>
VStem: 89.9004 127.3<-85.1671 234.124> 99.4004 121.6<-104.463 76.3396>
AnchorPoint: "CtxAnchors_D3Narrow_M" 520 0 basechar 0
AnchorPoint: "CtxAnchors_D1_M" 430 0 basechar 0
AnchorPoint: "CtxAnchors_D2_M" 480 0 basechar 0
AnchorPoint: "CtxAnchors_D2Narrow_M" 480 0 basechar 0
AnchorPoint: "CtxAnchors_M_D2" 480 0 basechar 0
AnchorPoint: "CtxAnchors_M_D1" 430 0 basechar 0
AnchorPoint: "CtxAnchors_M_D3Narrow" 520 0 basechar 0
AnchorPoint: "CtxAnchors_M_D2Narrow" 480 0 basechar 0
AnchorPoint: "DiaToBaseD" 349.5 7.5 basechar 0
AnchorPoint: "DiaToBaseU" 470 0 basechar 0
AnchorPoint: "DiaToBase4" 520 0 basechar 0
AnchorPoint: "DiaToBase3" 480 0 basechar 0
AnchorPoint: "DiaToBase2" 430 0 basechar 0
AnchorPoint: "DiaToBase1" 360 0 basechar 0
AnchorPoint: "RafeToBase" 380 0 basechar 0
AnchorPoint: "DiaToBaseO" 20 0 basechar 0
LayerCount: 2
Back
SplineSet
205 359 m 1
 209 194 209 83 209 -63 c 1
 187 -133 133 -199 81 -238 c 1
 71 -96 72 34 71 205 c 1
 96 273 149 320 205 359 c 1
27 407 m 1
 45 506 114 611 195 679.994 c 1
 215 600 225 600 277 600 c 2
 569 600 l 2
 626 600 653 566 656 514 c 0
 661.249 423.014 625.581 267.416 547 152 c 0
 483 58 362 10 271 -9 c 1
 274 58 297 142 331 193 c 1
 367 204 429.434 224.171 454.268 238 c 0
 483 254 507 310 501 366 c 8
 498.1 393.075 476.486 407 444.486 407 c 2
 27 407 l 1
EndSplineSet
Fore
SplineSet
217.2 350 m 1xe0
 221 185 221 54 221 -92 c 1
 187 -146 151 -189 99.4004 -238 c 1xd0
 89.9004 -96 90.8506 52 89.9004 223 c 1
 124 271 166 312 217.2 350 c 1xe0
35 422 m 1
 71 517 116 593 182 679.994 c 1
 202 600 212 600 264 600 c 2
 559.1 600 l 2
 613.25 600 641.75 566.078 641.75 514 c 0
 641.75 391 624 258 548 156 c 0
 481.112 66.2295 362.45 10 276 -9 c 1
 280.75 60 295 113 322.55 174 c 1
 371 188 415.244 204.327 451.6 231 c 0
 482.95 254 509.684 308.51 503.015 374.029 c 8
 499.894 404.695 475.768 422 440.2 422 c 2
 35 422 l 1
EndSplineSet
Validated: 33
Comment: "+AAoA%DiaToBase1+AD0A-360+AAoA%DiaToBase2+AD0A-430+AAoA%DiaToBase3+AD0A-480+AAoA%DiaToBase4+AD0A-520+AAoA%DiaToBaseO+AD0A-20+AAoA%DiaToBaseU+AD0A-470+AAoA%RafeToBase+AD0A-380" 
EndChar

StartChar: afii57688
Encoding: 1512 1512 138
Width: 572
VWidth: 1000
Flags: W
HStem: 422 177.994<221.407 353.509>
VStem: 402 120<88.835 369.923>
AnchorPoint: "CtxAnchors_D3Narrow_M" 320 0 basechar 0
AnchorPoint: "CtxAnchors_D1_M" 385 0 basechar 0
AnchorPoint: "CtxAnchors_D2_M" 350 0 basechar 0
AnchorPoint: "CtxAnchors_D2Narrow_M" 350 0 basechar 0
AnchorPoint: "CtxAnchors_M_D2" 350 0 basechar 0
AnchorPoint: "CtxAnchors_M_D1" 385 0 basechar 0
AnchorPoint: "CtxAnchors_M_D3Narrow" 320 0 basechar 0
AnchorPoint: "CtxAnchors_M_D2Narrow" 350 0 basechar 0
AnchorPoint: "DiaToBaseD" 259.5 -37.5 basechar 0
AnchorPoint: "DiaToBaseU" 330 0 basechar 0
AnchorPoint: "DiaToBase4" 320 0 basechar 0
AnchorPoint: "DiaToBase3" 350 0 basechar 0
AnchorPoint: "DiaToBase2" 385 0 basechar 0
AnchorPoint: "DiaToBase1" 440 0 basechar 0
AnchorPoint: "RafeToBase" 300 0 basechar 0
AnchorPoint: "DiaToBaseO" 40 0 basechar 0
LayerCount: 2
Back
SplineSet
265 600 m 2
 312 600 l 2
 391 600 471.306 555.861 489 469 c 0
 500 415 513 280 503 144 c 1
 494 80 435 0 376 -36 c 1
 370 44 378.435 167.031 370 283 c 0
 362 393 294 407 263 407 c 2
 25 407 l 1
 42 491 106 609 183 679.994 c 5
 203 600 213 600 265 600 c 2
EndSplineSet
Fore
SplineSet
35 421.994 m 1
 75 509.994 132 599.994 204 679.994 c 1
 224 599.994 234 599.994 286 599.994 c 2
 335 600 l 2
 414 600 494.306 555.861 512 469 c 0
 523 415 522 237 522 100 c 1
 491 52 449 8.5 402 -25 c 1
 397 72 399 216 395.332 297.999 c 0
 390.404 408.156 315 422.001 284 422 c 2
 35 421.994 l 1
EndSplineSet
Validated: 33
Substitution2: "jaltWideLetters subtable" uniFB27
Comment: "+AAoA%DiaToBase1+AD0A-440+AAoA%DiaToBase2+AD0A-385+AAoA%DiaToBase3+AD0A-350+AAoA%DiaToBase4+AD0A-320+AAoA%DiaToBaseO+AD0A-40+AAoA%DiaToBaseU+AD0A-330+AAoA%RafeToBase+AD0A-300" 
EndChar

StartChar: afii57689
Encoding: 1513 1513 139
Width: 745
VWidth: 1000
Flags: W
AnchorPoint: "CtxAnchors_D3Narrow_M" 370 0 basechar 0
AnchorPoint: "CtxAnchors_D1_M" 360 0 basechar 0
AnchorPoint: "CtxAnchors_D2_M" 370 0 basechar 0
AnchorPoint: "CtxAnchors_D2Narrow_M" 370 0 basechar 0
AnchorPoint: "CtxAnchors_M_D2" 370 0 basechar 0
AnchorPoint: "CtxAnchors_M_D1" 360 0 basechar 0
AnchorPoint: "CtxAnchors_M_D3Narrow" 370 0 basechar 0
AnchorPoint: "CtxAnchors_M_D2Narrow" 370 0 basechar 0
AnchorPoint: "DiaToBaseD" 474 25.5 basechar 0
AnchorPoint: "DiaToBaseU" 350 0 basechar 0
AnchorPoint: "DiaToBase4" 370 0 basechar 0
AnchorPoint: "DiaToBase3" 370 0 basechar 0
AnchorPoint: "DiaToBase2" 360 0 basechar 0
AnchorPoint: "DiaToBase1" 350 0 basechar 0
AnchorPoint: "RafeToBase" 400 0 basechar 0
LayerCount: 2
Back
SplineSet
151 654.994 m 1
 203 612 241 440.526 261.5 332.886 c 1
 338.5 376.756 339 433 298 500 c 1
 329.175 560.62 361 608 404 654.996 c 1
 530 474 445 321.526 279 240.526 c 1
 286.548 202.785 292 170 331 170 c 0
 355 170 377.382 175.503 401 186 c 0
 446 206 498.939 236.607 533 270 c 0
 565.886 302.241 570.729 345.82 564 395 c 0
 557.5 442.5 541.5 469.5 523 498 c 1
 552.399 558 595 615 637 654.997 c 1
 736 487 678.421 237.87 572 125 c 0
 493.892 42.1582 341.088 -15.6982 281 -12 c 0
 216 -8 196 78 181 141 c 8
 146.159 287.331 88 451 40 500 c 1
 68 564 109 617 151 654.994 c 1
EndSplineSet
Fore
SplineSet
141 654.994 m 5
 193 612 231 440.526 251.5 332.886 c 5
 328.5 376.756 322.5 434 281.5 501 c 5
 313 558 352 608 404 654.996 c 5
 530 474 435 321.526 269 240.526 c 5
 276.548 202.785 282 170 321 170 c 4
 345 170 371.882 183.003 395.5 193.5 c 4
 440.5 213.5 488.439 244.107 522.5 277.5 c 4
 555.386 309.741 560.729 345.82 554 395 c 4
 547.5 442.5 531.5 469.5 513 498 c 5
 550 560 593 610 647 654.997 c 5
 680.751 597.723 700.675 531.02 700 463.5 c 4
 698.694 332.97 637.14 199.39 567 125 c 4
 488.892 42.1582 321.088 -15.6982 261 -12 c 4
 196 -8 176 78 161 141 c 12
 126.159 287.331 68 451 20 500 c 5
 49 559 99 617 141 654.994 c 5
EndSplineSet
Validated: 33
Comment: "+AAoA%DiaToBase1+AD0A-350+AAoA%DiaToBase2+AD0A-360+AAoA%DiaToBase3+AD0A-370+AAoA%DiaToBase4+AD0A-370+AAoA%DiaToBaseU+AD0A-350+AAoA%RafeToBase+AD0A-400" 
EndChar

StartChar: afii57690
Encoding: 1514 1514 140
Width: 713
VWidth: 1000
Flags: W
HStem: 0 178<101.291 205> 422 178<303 508.549>
VStem: 558 110<88.148 270.423>
AnchorPoint: "CtxAnchors_D3Narrow_M" 370 0 basechar 0
AnchorPoint: "CtxAnchors_D1_M" 395 0 basechar 0
AnchorPoint: "CtxAnchors_D2_M" 370 0 basechar 0
AnchorPoint: "CtxAnchors_D2Narrow_M" 370 0 basechar 0
AnchorPoint: "CtxAnchors_M_D2" 370 0 basechar 0
AnchorPoint: "CtxAnchors_M_D1" 395 0 basechar 0
AnchorPoint: "CtxAnchors_M_D3Narrow" 370 0 basechar 0
AnchorPoint: "CtxAnchors_M_D2Narrow" 370 0 basechar 0
AnchorPoint: "DiaToBaseD" 429 -22.5 basechar 0
AnchorPoint: "DiaToBaseU" 390 0 basechar 0
AnchorPoint: "DiaToBase4" 370 0 basechar 0
AnchorPoint: "DiaToBase3" 370 0 basechar 0
AnchorPoint: "DiaToBase2" 395 0 basechar 0
AnchorPoint: "DiaToBase1" 400 0 basechar 0
AnchorPoint: "RafeToBase" 400 0 basechar 0
AnchorPoint: "DiaToBaseO" 45 0 basechar 0
LayerCount: 2
Back
SplineSet
312 407 m 9
 447 407 l 2
 482 407 504.826 376.16 508 340 c 10
 508 340 529 122 541 -36 c 1
 594 5 649 90 663 148 c 1
 661 287 644 440.002 644 440.002 c 17
 633 591 577 600.001 482 600.002 c 1
 268 600 l 2
 216 600 206 600 186 679.994 c 1
 113 622 53 496 28 407 c 1
 154 407 l 1
 179 348 206 267 208 193 c 1
 110 193 l 5
 70 148 39 70 34 0 c 5
 278 0 l 1
 320 53 348 121 352 193 c 1
 340 278 325 347 312 407 c 9
EndSplineSet
Fore
SplineSet
303 422 m 17
 313 353 325 261 334 178 c 1
 322 117 295.167 48.6396 260 0 c 1
 30 0 l 1
 49 64 72 125 106 178 c 1
 205 178 l 1
 198.589 249.663 179.387 360.026 160 422 c 1
 45 422 l 1
 83 515 134 600 198 679.994 c 1
 218 600 228 600 280 600 c 2
 487 600.002 l 2
 582 600.001 638 591 649 440.002 c 10
 649 440.002 668 238 668 100 c 1
 635 48 605 15 558 -25 c 1
 546 133 524 355 524 355 c 18
 520.826 391.16 498 422 463 422 c 2
 303 422 l 17
EndSplineSet
Validated: 1
Substitution2: "jaltWideLetters subtable" uniFB28
Comment: "+AAoA%DiaToBase1+AD0A-400+AAoA%DiaToBase2+AD0A-395+AAoA%DiaToBase3+AD0A-370+AAoA%DiaToBase4+AD0A-370+AAoA%DiaToBaseO+AD0A-45+AAoA%DiaToBaseU+AD0A-390+AAoA%RafeToBase+AD0A-400" 
EndChar

StartChar: endash
Encoding: 8211 8211 150
Width: 638
VWidth: 1000
Flags: W
HStem: 232 136<97 546>
VStem: 45 553<232 368>
LayerCount: 2
Back
SplineSet
42 294 m 5
 542 294 l 5
 535.673 262.113 525.15 233.907 510 210 c 5
 10 210 l 5
 15.7133 239.754 24.9451 268.232 42 294 c 5
EndSplineSet
Fore
SplineSet
97 368 m 1
 598 368 l 1
 588 316 571 271 546 232 c 1
 45 232 l 1
 54 280 69 326 97 368 c 1
EndSplineSet
Validated: 1
EndChar

StartChar: emdash
Encoding: 8212 8212 151
Width: 938
VWidth: 1048
Flags: W
HStem: 232 136<97 846>
LayerCount: 2
Back
SplineSet
42 294 m 1
 842 294 l 1
 835.673 262.113 825.149 233.907 810 210 c 1
 10 210 l 1
 15.7133 239.754 24.9451 268.232 42 294 c 1
EndSplineSet
Fore
SplineSet
97 368 m 1
 898 368 l 1
 888 316 871 271 846 232 c 1
 45 232 l 1
 54 280 69 326 97 368 c 1
EndSplineSet
Validated: 1
EndChar

StartChar: afii00208
Encoding: 8213 8213 152
Width: 1138
VWidth: 1048
Flags: W
HStem: 232 136<97 1046>
LayerCount: 2
Back
SplineSet
42 294 m 1
 1042 294 l 5
 1035.67 262.113 1025.15 233.907 1010 210 c 5
 10 210 l 1
 15.7133 239.754 24.9451 268.232 42 294 c 1
EndSplineSet
Fore
SplineSet
97 368 m 1
 1098 368 l 1
 1088 316 1071 271 1046 232 c 1
 45 232 l 1
 54 280 69 326 97 368 c 1
EndSplineSet
Validated: 1
EndChar

StartChar: afii57705
Encoding: 64287 64287 157
Width: 666
VWidth: 1000
Flags: W
LayerCount: 2
Back
SplineSet
512.5 654.994 m 5
 566 605 597.213 572.743 634 532 c 4
 680.5 480.5 680.5 411.5 648 350 c 4
 627.239 310.714 599.5 267.5 563 218 c 5
 526 192.5 488.5 178 443.5 170.5 c 5
 480 231 497.5 265.5 518.5 312.5 c 12
 535.48 350.505 537.5 375.5 494.5 416.5 c 12
 458.946 450.4 441 466 402 502 c 5
 430 563 466.5 611 512.5 654.994 c 5
166.5 654.994 m 5
 220 605 251.213 572.743 288 532 c 4
 334.5 480.5 334.5 411.5 302 350 c 4
 281.239 310.714 253.5 267.5 217 218 c 5
 180 192.5 142.5 178 97.5 170.5 c 5
 134 231 151.5 265.5 172.5 312.5 c 12
 189.48 350.505 191.5 375.5 148.5 416.5 c 12
 112.946 450.4 95 466 56 502 c 5
 84 563 120.5 611 166.5 654.994 c 5
460.494 20.9971 m 1
 185.883 20.9971 l 1
 190.184 56.1104 199.881 85.1943 217.504 115.867 c 1
 492.117 115.867 l 1
 487.814 80.7529 478.119 51.6689 460.494 20.9971 c 1
EndSplineSet
Fore
Refer: 101 1463 N 1 0 0 1 307.5 165 2
Refer: 123 1497 N 1 0 0 1 0 0 2
Refer: 123 1497 N 1 0 0 1 333 0 2
Validated: 1
Ligature2: "ccmpYiddish3 subtable" afii57673 afii57673 afii57798
Ligature2: "ccmpYiddish3 subtable" afii57718 afii57798
Ligature2: "ccmpYiddish_dflt subtable" afii57718 afii57798
LCarets2: 2 0 0 
EndChar

StartChar: uniFB20
Encoding: 64288 64288 158
Width: 622
VWidth: 1000
Flags: W
HStem: 0 178<114.18 215 322.461 390.861>
AnchorPoint: "CtxAnchors_D3Narrow_M" 310 0 basechar 0
AnchorPoint: "CtxAnchors_D1_M" 315 0 basechar 0
AnchorPoint: "CtxAnchors_D2_M" 305 0 basechar 0
AnchorPoint: "CtxAnchors_D2Narrow_M" 305 0 basechar 0
AnchorPoint: "CtxAnchors_M_D2" 305 0 basechar 0
AnchorPoint: "CtxAnchors_M_D1" 315 0 basechar 0
AnchorPoint: "CtxAnchors_M_D3Narrow" 310 0 basechar 0
AnchorPoint: "CtxAnchors_M_D2Narrow" 305 0 basechar 0
AnchorPoint: "DiaToBaseD" 376 46 basechar 0
AnchorPoint: "DiaToBaseU" 300 0 basechar 0
AnchorPoint: "DiaToBase4" 310 0 basechar 0
AnchorPoint: "DiaToBase3" 305 0 basechar 0
AnchorPoint: "DiaToBase2" 315 0 basechar 0
AnchorPoint: "DiaToBase1" 310 0 basechar 0
AnchorPoint: "RafeToBase" 350 0 basechar 0
LayerCount: 2
Back
SplineSet
345.682 184.657 m 1
 321.324 307.759 280.502 519.475 193 654.994 c 1
 137.91 600.152 94.4287 544.989 59.4004 484 c 1
 123 390 187 318 221 178 c 9
 136 178 l 17
 97 124 69 66 50 0 c 9
 262 0 l 2
 335 0 388 15 421 30 c 0
 491.824 62.1934 551.277 128.511 580 208 c 0
 639.064 371.456 612 553 549 654.996 c 1
 499 608 462 558 427.7 494 c 1
 514 337 505 214 345.682 184.657 c 1
EndSplineSet
Fore
SplineSet
326 182.25 m 1
 488.318 195.593 494 337 407.7 494 c 1
 442 558 479 608 529 654.996 c 1
 592 553 619.064 371.456 560 208 c 0
 531.277 128.511 471.824 62.1934 401 30 c 0
 368 15 315 0 242 0 c 2
 30 0 l 17
 49 66 77 124 116 178 c 9
 215 178 l 17
 181 310 116 393 39.4004 484 c 1
 74.4287 544.989 117.91 600.152 173 654.994 c 1
 260.502 519.475 301.643 305.352 326 182.25 c 1
EndSplineSet
Validated: 33
Comment: "+AAoA%DiaToBase1+AD0A-310+AAoA%DiaToBase2+AD0A-315+AAoA%DiaToBase3+AD0A-305+AAoA%DiaToBase4+AD0A-310+AAoA%DiaToBaseU+AD0A-300+AAoA%RafeToBase+AD0A-350" 
EndChar

StartChar: uniFB29
Encoding: 64297 64297 159
Width: 718
VWidth: 1068
Flags: W
HStem: 265.37 129.359<130.069 296.9 420.1 585.454>
VStem: 296.9 123.2<394.729 552.943>
LayerCount: 2
Fore
SplineSet
581.219 265.37 m 1
 92 265.37 l 1
 100.799 311.191 108.517 355.047 134.781 394.729 c 1
 296.9 394.729 l 1
 296.9 548.719 l 1
 333.716 572.05 370.994 582.255 420.1 592 c 1
 420.1 394.729 l 1
 625.5 394.729 l 1
 615.755 345.624 604.551 302.185 581.219 265.37 c 1
EndSplineSet
Validated: 1
EndChar

StartChar: uniFB4F
Encoding: 64335 64335 192
Width: 685
VWidth: 1000
Flags: W
VStem: 50 113<554.808 644.24>
LayerCount: 2
Back
SplineSet
60 475 m 4
 60 530.009 60 551.25 60 600 c 20
 60 634 60 639 25 676 c 5
 54.3145 728.461 101.455 781.913 148 822 c 5
 178 792 173 681.029 173 614 c 4
 173 589.667 185.158 570.521 208.333 553.559 c 4
 302 485 379 422 474 338 c 5
 525 410 498 465 443 506 c 5
 473 568 513 617 556 654.997 c 5
 678 540 661 419 532 288 c 5
 594 232 635 190 685 130 c 5
 663 68 632.979 18.7979 597 -26 c 5
 408 196 261.794 309.858 97.667 412.82 c 4
 74 427.667 60 449.667 60 475 c 4
EndSplineSet
Fore
SplineSet
50 447.441 m 4
 50 502.45 50 540.502 50 600 c 20
 50 634 50 639 15 676 c 5
 44.3145 728.461 91.4551 781.913 138 822 c 5
 168 792 163 691 163 586.441 c 4
 163 562.108 174.424 541.91 198.333 526 c 4
 290 465 371 405.25 460 332.25 c 5
 514 407.5 494 456 433 506 c 5
 463 568 503 617 546 654.997 c 5
 671 533 649 422 517 283 c 5
 583 227 626 186 675 130 c 5
 653 68 622.979 18.7979 587 -26 c 5
 421 163 252 282 87.667 385.261 c 4
 64.0107 400.125 50 422.108 50 447.441 c 4
EndSplineSet
Validated: 33
Ligature2: "dligAlephLamed subtable" afii57664 afii57676
Ligature2: "ccmpAlephLamed subtable" afii57664 afii57676
LCarets2: 1 0 
EndChar

StartChar: afii57799
Encoding: 1456 1456 194
Width: 0
VWidth: 1000
Flags: HMW
AnchorPoint: "CtxAnchors_M_D1" -81.9365 0 mark 0
AnchorPoint: "ColumnToBaseMark" -132 -93.5 basemark 0
AnchorPoint: "DotToBaseMark" -116 -93.5 basemark 0
AnchorPoint: "BarToBaseNarrowMark" -79 -93.5 basemark 0
AnchorPoint: "BarToBaseMark" -96 -93.5 basemark 0
AnchorPoint: "2DotsToBaseMark" 63 -93.5 mark 0
AnchorPoint: "DiaToBase1" 0 0 mark 0
LayerCount: 2
Back
SplineSet
-52.7051 -88.7061 m 5
 -39.1748 -65.9609 -22.7441 -49.5312 0 -36 c 5
 22.7441 -49.5312 39.1748 -65.9609 52.7051 -88.7061 c 5
 39.1748 -111.45 22.7441 -127.88 0 -141.412 c 5
 -22.7441 -127.88 -39.1748 -111.45 -52.7051 -88.7061 c 5
-52.7051 -247.294 m 1
 -39.1748 -224.55 -22.7441 -208.12 0 -194.588 c 1
 22.7441 -208.12 39.1748 -224.55 52.7051 -247.294 c 1
 39.1748 -270.039 22.7441 -286.469 0 -300 c 1
 -22.7441 -286.469 -39.1748 -270.039 -52.7051 -247.294 c 1
EndSplineSet
Fore
SplineSet
-63 -89 m 1
 -47 -61 -27 -42 0 -25 c 1
 27 -42 47 -61 63 -89 c 1
 47 -116 27 -136 0 -152 c 1
 -27 -136 -47 -116 -63 -89 c 1
-63 -237 m 1
 -47 -209 -27 -190 0 -173 c 1
 27 -190 47 -209 63 -237 c 1
 47 -264 27 -284 0 -300 c 1
 -27 -284 -47 -264 -63 -237 c 1
EndSplineSet
Validated: 1
Comment: "+AAoA%BarToBaseMark+AD0A-33+AAoA%BarToBaseNarrowMark+AD0A-16+AAoA%ColumnToBaseMark+AD0A-69+AAoA%DotToBaseMark+AD0A-53" 
EndChar

StartChar: afii57801
Encoding: 1457 1457 195
Width: 0
VWidth: 1000
Flags: HMW
AnchorPoint: "ColumnToBaseMark" -305.67 -93.5 basemark 0
AnchorPoint: "DotToBaseMark" -289.67 -93.5 basemark 0
AnchorPoint: "BarToBaseMark" -269.67 -93.5 basemark 0
AnchorPoint: "2DotsToBaseMark" 236.67 -93.5 mark 0
AnchorPoint: "DiaToBase3" 0 0 mark 0
LayerCount: 2
Back
SplineSet
-131.765 -207.295 m 1
 -118.232 -184.55 -101.804 -168.12 -79.0586 -154.589 c 1
 -56.3135 -168.12 -39.8848 -184.55 -26.3525 -207.295 c 1
 -39.8848 -230.039 -56.3135 -246.469 -79.0586 -260 c 1
 -101.804 -246.469 -118.232 -230.039 -131.765 -207.295 c 1
-200.941 -88.7061 m 1
 -187.41 -65.9619 -170.979 -49.5322 -148.234 -36 c 1
 -125.491 -49.5322 -109.061 -65.9619 -95.5293 -88.7061 c 1
 -109.061 -111.451 -125.491 -127.881 -148.234 -141.412 c 1
 -170.979 -127.881 -187.41 -111.451 -200.941 -88.7061 c 1
-62.5889 -88.7061 m 1
 -49.0566 -65.9619 -32.627 -49.5322 -9.88281 -36 c 1
 12.8623 -49.5322 29.292 -65.9619 42.8232 -88.7061 c 1
 29.292 -111.451 12.8623 -127.881 -9.88281 -141.412 c 1
 -32.627 -127.881 -49.0566 -111.451 -62.5889 -88.7061 c 1
95.5293 -207.295 m 1
 109.062 -184.55 125.49 -168.12 148.235 -154.589 c 1
 170.98 -168.12 187.409 -184.55 200.941 -207.295 c 1
 187.409 -230.039 170.98 -246.469 148.235 -260 c 1
 125.49 -246.469 109.062 -230.039 95.5293 -207.295 c 1
95.5293 -88.7061 m 1
 109.062 -65.9619 125.49 -49.5322 148.235 -36 c 1
 170.98 -49.5322 187.409 -65.9619 200.941 -88.7061 c 5
 187.409 -111.451 170.98 -127.881 148.235 -141.412 c 1
 125.49 -127.881 109.062 -111.451 95.5293 -88.7061 c 1
EndSplineSet
Fore
SplineSet
-236.67 -88.9961 m 1
 -220.67 -60.9961 -200.67 -41.9961 -173.67 -24.9961 c 1
 -146.67 -41.9961 -126.67 -60.9961 -110.67 -88.9961 c 1
 -126.67 -115.996 -146.67 -135.996 -173.67 -151.996 c 1
 -200.67 -135.996 -220.67 -115.996 -236.67 -88.9961 c 1
-69.3271 -88.998 m 1
 -53.3271 -60.998 -33.3271 -41.998 -6.32715 -24.998 c 1
 20.6729 -41.998 40.6729 -60.998 56.6729 -88.998 c 1
 40.6729 -115.998 20.6729 -135.998 -6.32715 -151.998 c 1
 -33.3271 -135.998 -53.3271 -115.998 -69.3271 -88.998 c 1
-152.998 -236.998 m 1
 -136.998 -208.998 -116.998 -189.998 -89.998 -172.998 c 1
 -62.998 -189.998 -42.998 -208.998 -26.998 -236.998 c 1
 -42.998 -263.998 -62.998 -283.998 -89.998 -299.998 c 1
 -116.998 -283.998 -136.998 -263.998 -152.998 -236.998 c 1
110.67 -88.998 m 1
 126.67 -60.998 146.67 -41.998 173.67 -24.998 c 1
 200.67 -41.998 220.67 -60.998 236.67 -88.998 c 1
 220.67 -115.998 200.67 -135.998 173.67 -151.998 c 1
 146.67 -135.998 126.67 -115.998 110.67 -88.998 c 1
110.67 -236.998 m 1
 126.67 -208.998 146.67 -189.998 173.67 -172.998 c 1
 200.67 -189.998 220.67 -208.998 236.67 -236.998 c 1
 220.67 -263.998 200.67 -283.998 173.67 -299.998 c 1
 146.67 -283.998 126.67 -263.998 110.67 -236.998 c 1
EndSplineSet
Validated: 1
Substitution2: "WideMarkToNarrow subtable" hatafsegol.narrow
EndChar

StartChar: afii57636
Encoding: 8362 8362 196
Width: 1001
VWidth: 1000
Flags: W
HStem: 439 161<258 386.348>
VStem: 134.113 123.887<-25 282.162> 340 131.113<224.074 352> 584.113 123.887<244 339.348>
LayerCount: 2
Back
SplineSet
366.887 -10.5 m 6
 300.887 -10.5 284.887 35.5 281.887 95.5 c 4
 276.979 193.627 272.887 251 271.887 352 c 5
 322 350 362 345 403 330 c 5
 404 291 405.887 259 411.887 228 c 12
 418.657 193.022 435 174 479.887 167 c 4
 528.078 159.485 585.354 166.933 641 186 c 4
 784 235 735 383 689 475 c 5
 723 544 773 611 826 654.998 c 5
 869 568 904.452 395.761 851.887 244 c 20
 809.81 122.52 727.887 -10.5 416.887 -10.5 c 6
 366.887 -10.5 l 6
251.887 600 m 6
 251.887 600 356.197 600 422.887 600 c 20
 527.887 600 617.887 508 636.887 374 c 4
 639.006 359.057 639.387 355.5 639.887 346 c 5
 609 301 571 267 516 244 c 5
 504 339 470.887 399 408.887 417 c 4
 361.129 430.865 277 439 189.887 439 c 5
 189.887 439 190.887 247 190.887 130 c 5
 165 66 120 12 66 -25 c 5
 62 276 53.8867 398 26.8867 483 c 5
 63 552 114 615 174 664 c 5
 190 610 199.887 600 251.887 600 c 6
EndSplineSet
Fore
SplineSet
435 -10.5 m 2
 369 -10.5 353 35.5 350 95.5 c 0
 345.093 193.627 341 251 340 352 c 1
 390.113 344 434.113 330 471.113 310 c 1
 472.113 271 475.113 226 481.113 195 c 8
 487.225 163.426 499.938 138.206 545.113 143 c 0
 592.227 148 657.113 169 705.113 195 c 0
 838.029 266.996 824.113 345 757.113 475 c 1
 791.113 544 841.113 611 894.113 654.998 c 1
 937.113 568 972.565 395.761 920 244 c 16
 877.923 122.52 796.113 -10.5 485 -10.5 c 8
 435 -10.5 l 2
320 600 m 2
 320 600 375.319 600 424.113 600 c 0
 601.113 600 686 508 705 374 c 0
 707.119 359.057 707.5 355.5 708 346 c 1
 677.113 301 639.113 267 584.113 244 c 1
 572.113 339 539 399 477 417 c 0
 429.242 430.865 345.113 439 258 439 c 1
 258 439 259 247 259 130 c 1
 233.113 66 188.113 12 134.113 -25 c 1
 130.113 276 122 398 95 483 c 1
 131.113 552 182.113 615 242.113 664 c 1
 258.113 610 268 600 320 600 c 2
EndSplineSet
Validated: 33
EndChar

StartChar: SF110000
Encoding: 9474 9474 197
Width: 610
VWidth: 1000
Flags: W
VStem: 245 120<-300 960>
LayerCount: 2
Fore
SplineSet
365 960 m 1
 365 -300 l 1
 245 -300 l 1
 245 960 l 1
 365 960 l 1
EndSplineSet
Validated: 1
EndChar

StartChar: uni25CC
Encoding: 9676 9676 198
Width: 604
VWidth: 1000
Flags: W
HStem: 27.9404 73.5306<266.066 336.286> 59.5098 73.5292<148.42 218.64 383.714 453.935> 145.588 73.529<62.3403 132.561 469.792 540.012> 263.234 73.532<30.7711 100.992 501.36 571.581> 380.883 73.529<62.3403 132.561 469.792 540.012> 466.961 73.529<148.42 218.64 383.714 453.935> 498.529 73.531<266.066 336.286>
VStem: 29.1172 73.5288<264.888 335.112> 60.6865 73.5285<147.242 217.463 382.537 452.758> 146.766 73.528<61.1636 131.385 468.615 538.836> 264.412 73.528<29.5943 99.8172 500.183 570.406> 382.06 73.529<61.1636 131.385 468.615 538.836> 468.138 73.528<147.242 217.463 382.537 452.758> 499.706 73.529<264.888 335.112>
AnchorPoint: "CtxAnchors_Rafe" 500 0 basechar 0
AnchorPoint: "CtxAnchors_D3Narrow_M" 301 0 basechar 0
AnchorPoint: "CtxAnchors_D2Narrow_M" 301 0 basechar 0
AnchorPoint: "CtxAnchors_D2_M" 301 0 basechar 0
AnchorPoint: "CtxAnchors_D1_M" 301 0 basechar 0
AnchorPoint: "CtxAnchors_M_D3Narrow" 301 0 basechar 0
AnchorPoint: "CtxAnchors_M_D2Narrow" 301 0 basechar 0
AnchorPoint: "CtxAnchors_M_D2" 301 0 basechar 0
AnchorPoint: "CtxAnchors_M_D1" 301 0 basechar 0
AnchorPoint: "DiaToBaseU" 301 0 basechar 0
AnchorPoint: "DiaToBase4" 301 0 basechar 0
AnchorPoint: "DiaToBase3" 301 0 basechar 0
AnchorPoint: "DiaToBase2" 301 0 basechar 0
AnchorPoint: "DiaToBase1" 301 0 basechar 0
AnchorPoint: "RafeToBase" 301 0 basechar 0
AnchorPoint: "DiaToBaseO" 0 0 basechar 0
AnchorPoint: "DiaToBaseD" 301 0 basechar 0
LayerCount: 2
Fore
SplineSet
504.902 454.412 m 0x3878
 525.196 454.412 541.666 437.94 541.666 417.646 c 0
 541.666 397.354 525.196 380.883 504.902 380.883 c 0
 484.608 380.883 468.138 397.354 468.138 417.646 c 0
 468.138 437.94 484.608 454.412 504.902 454.412 c 0x3878
418.823 133.039 m 0x7870
 439.117 133.039 455.589 116.568 455.589 96.2744 c 0
 455.589 75.9805 439.117 59.5098 418.823 59.5098 c 0
 398.529 59.5098 382.06 75.9805 382.06 96.2744 c 0
 382.06 116.568 398.529 133.039 418.823 133.039 c 0x7870
97.4512 219.117 m 0
 117.745 219.117 134.215 202.646 134.215 182.354 c 0
 134.215 162.06 117.745 145.588 97.4512 145.588 c 0
 77.1572 145.588 60.6865 162.06 60.6865 182.354 c 0x38f0
 60.6865 202.646 77.1572 219.117 97.4512 219.117 c 0
183.529 540.49 m 0x3c70
 203.823 540.49 220.294 524.02 220.294 503.726 c 0
 220.294 483.432 203.823 466.961 183.529 466.961 c 0
 163.235 466.961 146.766 483.432 146.766 503.726 c 0
 146.766 524.02 163.235 540.49 183.529 540.49 c 0x3c70
97.4512 454.412 m 0
 117.745 454.412 134.215 437.94 134.215 417.646 c 0
 134.215 397.354 117.745 380.883 97.4512 380.883 c 0
 77.1572 380.883 60.6865 397.354 60.6865 417.646 c 0x38f0
 60.6865 437.94 77.1572 454.412 97.4512 454.412 c 0
183.529 133.039 m 0x7870
 203.823 133.039 220.294 116.568 220.294 96.2744 c 0
 220.294 75.9805 203.823 59.5098 183.529 59.5098 c 0
 163.235 59.5098 146.766 75.9805 146.766 96.2744 c 0
 146.766 116.568 163.235 133.039 183.529 133.039 c 0x7870
504.902 219.117 m 0
 525.196 219.117 541.666 202.646 541.666 182.354 c 0
 541.666 162.06 525.196 145.588 504.902 145.588 c 0
 484.608 145.588 468.138 162.06 468.138 182.354 c 0x3878
 468.138 202.646 484.608 219.117 504.902 219.117 c 0
418.823 540.49 m 0x3c70
 439.117 540.49 455.589 524.02 455.589 503.726 c 0
 455.589 483.432 439.117 466.961 418.823 466.961 c 0
 398.529 466.961 382.06 483.432 382.06 503.726 c 0
 382.06 524.02 398.529 540.49 418.823 540.49 c 0x3c70
301.177 101.471 m 0xb870
 321.471 101.471 337.94 85 337.94 64.7061 c 0
 337.94 44.4121 321.471 27.9404 301.177 27.9404 c 0
 280.883 27.9404 264.412 44.4121 264.412 64.7061 c 0
 264.412 85 280.883 101.471 301.177 101.471 c 0xb870
536.471 336.766 m 0
 556.766 336.766 573.235 320.294 573.235 300 c 0
 573.235 279.706 556.766 263.234 536.471 263.234 c 0
 516.177 263.234 499.706 279.706 499.706 300 c 0x3874
 499.706 320.294 516.177 336.766 536.471 336.766 c 0
301.177 572.06 m 0x3a70
 321.471 572.06 337.94 555.588 337.94 535.294 c 0
 337.94 515 321.471 498.529 301.177 498.529 c 0
 280.883 498.529 264.412 515 264.412 535.294 c 0
 264.412 555.588 280.883 572.06 301.177 572.06 c 0x3a70
65.8828 336.766 m 0
 86.1768 336.766 102.646 320.294 102.646 300 c 0
 102.646 279.706 86.1768 263.234 65.8828 263.234 c 0
 45.5889 263.234 29.1172 279.706 29.1172 300 c 0x3970
 29.1172 320.294 45.5889 336.766 65.8828 336.766 c 0
EndSplineSet
Validated: 1
Comment: "%DiaToBase1+AD0A-301+AAoA%DiaToBase2+AD0A-301+AAoA%DiaToBase3+AD0A-301+AAoA%DiaToBase4+AD0A-301+AAoA%DiaToBaseO+AD0A-0+AAoA%DiaToBaseU+AD0A-301+AAoA%DiaToBaseD+AD0A-301+AAoA%RafeToBase+AD0A-301" 
EndChar

StartChar: uniFB1E
Encoding: 64286 64286 203
Width: 0
VWidth: 1000
Flags: W
VStem: -149.36 292.192
AnchorPoint: "CtxAnchors_Rafe" 0 0 mark 0
AnchorPoint: "RafeToBase" 0 0 mark 0
LayerCount: 2
Back
SplineSet
113.436 679.994 m 5
 -143.059 679.986 l 5
 -138.941 711.986 -128.059 740.994 -111.555 769.864 c 5
 143.059 769.864 l 5
 138.756 734.75 130.441 708.494 113.436 679.994 c 5
EndSplineSet
Fore
SplineSet
142.832 705.5 m 5
 70.0645 628.547 -78.2852 648.697 -149.36 721.786 c 5
 -136.936 753.347 -116.811 781.297 -89.7852 806.647 c 5
 -38.0352 763.097 33.2646 718.897 140.215 813.797 c 5
 148.265 778.697 148.265 746.847 142.832 705.5 c 5
EndSplineSet
Validated: 33
EndChar

StartChar: Euro
Encoding: 8364 8364 204
Width: 625
VWidth: 1000
Flags: W
TeX: 69 0
HStem: -16.625 147.625<357.6 519.551> 233 78<243.983 417.6> 370.4 78<212.557 464.908> 542 156<404.914 564.874>
VStem: 70 510<233 698>
LayerCount: 2
Back
SplineSet
129.7 448.4 m 1
 110 425 98.5 400 89.6084 370.4 c 1
 422.908 370.4 l 1
 441 394.5 453.5 418.5 463 448.4 c 1
 129.7 448.4 l 1
68.0918 311 m 1
 49 285 37.5 262.5 28 233 c 1
 375.6 233 l 1
 394 254.5 407 282 415.692 311 c 1
 68.0918 311 l 1
187 493 m 0
 223 530 300.635 546.709 385.319 546.709 c 0
 409.426 546.709 460.564 544.553 480.93 540.104 c 1
 495.992 564.166 547.129 656.243 555.399 694.178 c 1
 469.897 718.386 367.587 711.703 313.949 691 c 0
 187 642 73 497 56 394.92 c 0
 35.2621 270.395 69.0811 142.61 143.84 75.3271 c 8
 224.748 2.50879 326.999 -16.625 407.364 -16.625 c 0
 431.667 -16.625 452 -15.6667 471.5 -11 c 1
 485.101 44.7354 492.101 89.7354 491.101 140.735 c 1
 466.667 133.667 445.333 131 417 131 c 0
 339 131 242.907 167.848 208 223 c 0
 180.84 265.912 166 317.457 166 375 c 0
 166 417.805 169.077 474.579 187 493 c 0
EndSplineSet
Fore
SplineSet
229 493 m 0
 220.766 484.537 215.665 467.979 212.557 448.4 c 1
 505 448.4 l 1
 495.5 418.5 483 394.5 464.908 370.4 c 1
 208.032 370.4 l 1
 208.317 349.77 210.523 329.929 214.53 311 c 1
 457.692 311 l 1
 449 282 436 254.5 417.6 233 c 1
 243.983 233 l 1
 245.916 229.617 247.922 226.283 250 223 c 0
 284.907 167.848 381 131 459 131 c 0
 487.333 131 516.5 133 542.5 139 c 1
 536.5 86 525.5 37.5 504.5 -13 c 1
 489.5 -16 470.5 -16.625 449.363 -16.625 c 0
 368.999 -16.625 266.748 2.50879 185.84 75.3271 c 0
 144.21 112.794 115.275 169.022 101.387 233 c 1
 70 233 l 1
 76.3701 252.781 83.6396 269.414 93.4932 286.065 c 1
 90.5273 321.557 91.915 358.379 98 394.92 c 0
 115 497 229 642 355.949 691 c 0
 409.587 711.703 499.5 717 580 698 c 1
 561.5 641 536 587.5 506.5 542 c 1
 479.5 545.5 451.426 546.709 427.319 546.709 c 0
 342.635 546.709 265 530 229 493 c 0
EndSplineSet
Validated: 33
EndChar

StartChar: uni0000
Encoding: 0 0 205
Width: 950
VWidth: 1000
Flags: W
HStem: -150 150<225 725> 600 150<225 725>
VStem: 75 150<0 600> 725 150<0 600>
LayerCount: 2
Fore
SplineSet
75 750 m 1
 875 750 l 1
 875 -150 l 1
 75 -150 l 1
 75 750 l 1
225 600 m 1
 225 0 l 5
 725 0 l 5
 725 600 l 1
 225 600 l 1
EndSplineSet
Validated: 1
EndChar

StartChar: ellipsis
Encoding: 8230 8230 206
Width: 1089
VWidth: 1000
Flags: W
HStem: -20 232<205 218 553 566 901 914>
VStem: 95 228<94 96> 443 228<94 96> 791 228<94 96>
CounterMasks: 1 00
LayerCount: 2
Back
SplineSet
750 212 m 5
 800.979 178.627 833.395 145.741 868 94 c 5
 838.087 48.2041 801.569 8.79102 763 -20 c 5
 713.499 8.70215 672.126 48.4512 640 96 c 5
 669.141 141.499 709.994 187.876 750 212 c 5
445 212 m 5
 495.979 178.627 528.395 145.741 563 94 c 5
 533.087 48.2041 496.569 8.79102 458 -20 c 5
 408.499 8.70215 367.126 48.4512 335 96 c 5
 364.141 141.499 404.994 187.876 445 212 c 5
140 212 m 5
 190.979 178.627 223.395 145.741 258 94 c 5
 228.087 48.2041 191.569 8.79102 153 -20 c 5
 103.499 8.70215 62.126 48.4512 30 96 c 5
 59.1406 141.499 99.9941 187.876 140 212 c 5
EndSplineSet
Fore
Refer: 13 46 S 1 0 0 1 736 0 2
Refer: 13 46 N 1 0 0 1 388 0 2
Refer: 13 46 N 1 0 0 1 40 0 2
Validated: 1
EndChar

StartChar: uni05BA
Encoding: 1466 1466 208
Width: 0
VWidth: 1000
Flags: W
HStem: 629.408 127
VStem: -62.998 126
LayerCount: 2
Fore
SplineSet
-62.998 692.408 m 5
 -46.998 720.408 -26.998 739.408 0.00195312 756.408 c 5
 27.002 739.408 47.002 720.408 63.002 692.408 c 5
 47.002 665.408 27.002 645.408 0.00195312 629.408 c 5
 -26.998 645.408 -46.998 665.408 -62.998 692.408 c 5
EndSplineSet
Validated: 1
EndChar

StartChar: uni05C5
Encoding: 1477 1477 209
Width: 0
VWidth: 1000
Flags: W
HStem: -157.002 127
VStem: -62.998 126
LayerCount: 2
Fore
SplineSet
-62.998 -94.002 m 1
 -46.998 -66.002 -26.998 -47.002 0.00195312 -30.002 c 1
 27.002 -47.002 47.002 -66.002 63.002 -94.002 c 1
 47.002 -121.002 27.002 -141.002 0.00195312 -157.002 c 1
 -26.998 -141.002 -46.998 -121.002 -62.998 -94.002 c 1
EndSplineSet
Validated: 1
EndChar

StartChar: uni05C7
Encoding: 1479 1479 210
Width: 0
VWidth: 1000
Flags: W
HStem: -144 94.8701<-105.48 -50.4355 44.4365 105.483>
VStem: -50.4355 94.872<-298.87 -144>
AnchorPoint: "CtxAnchors_M_D2" -71.4365 0 mark 0
AnchorPoint: "ColumnToBaseMark" -181.117 -93.5 basemark 0
AnchorPoint: "DotToBaseMark" -166.117 -93.5 basemark 0
AnchorPoint: "BarToBaseMark" 133.117 -93.5 mark 0
AnchorPoint: "DiaToBase2" 0 0 mark 0
LayerCount: 2
Back
SplineSet
-158.117 -144 m 1
 -153.815 -108.887 -144.12 -79.8027 -126.493 -49.1299 c 1
 158.117 -49.1299 l 5
 153.815 -84.2441 144.121 -113.328 126.496 -144 c 13
 47.4365 -144 l 1
 47.4365 -254.684 l 1
 30.9199 -257.455 16.7471 -258.636 0.000976562 -258.636 c 0
 -16.7461 -258.636 -30.9199 -257.455 -47.4355 -254.684 c 1
 -47.4355 -144 l 1
 -158.117 -144 l 1
EndSplineSet
Fore
SplineSet
-133.117 -144 m 1
 -128.815 -108.887 -119.12 -79.8027 -101.493 -49.1299 c 1
 133.117 -49.1299 l 1
 128.815 -84.2441 119.121 -113.328 101.496 -144 c 9
 44.4365 -144 l 1
 44.4365 -295.684 l 1
 27.9199 -298.455 13.7471 -299.636 -2.99902 -299.636 c 0
 -19.7461 -299.636 -33.9199 -298.455 -50.4355 -295.684 c 1
 -50.4355 -144 l 1
 -133.117 -144 l 1
EndSplineSet
Validated: 1
EndChar

StartChar: uniE806
Encoding: 59398 59398 216
Width: 0
VWidth: 1000
Flags: W
HStem: -287 249<26.1279 121>
VStem: 26.1279 94.8721<-290.186 -34.8133>
AnchorPoint: "ColumnToBaseMark" -309.17 -93.5 basemark 0
AnchorPoint: "DotToBaseNarrowMark" -299.17 -93.5 basemark 0
AnchorPoint: "BarToBaseNarrowMark" -294.17 -93.5 basemark 0
AnchorPoint: "2DotsToBaseNarrowMark" 278.17 -93.5 mark 0
AnchorPoint: "DiaToBase4" 0 0 mark 0
LayerCount: 2
Fore
SplineSet
121 -287 m 5
 104.483 -289.771 90.3105 -290.952 73.5645 -290.952 c 4
 56.8174 -290.952 42.6436 -289.771 26.1279 -287 c 5
 26.1279 -38 l 5
 42.6436 -35.2285 56.8174 -34.0479 73.5645 -34.0479 c 4
 90.3105 -34.0479 104.483 -35.2285 121 -38 c 5
 121 -287 l 5
-278.17 -88.9961 m 1
 -262.17 -60.9961 -242.17 -41.9961 -215.17 -24.9961 c 1
 -188.17 -41.9961 -168.17 -60.9961 -152.17 -88.9961 c 1
 -168.17 -115.996 -188.17 -135.996 -215.17 -151.996 c 1
 -242.17 -135.996 -262.17 -115.996 -278.17 -88.9961 c 1
-130.827 -88.998 m 1
 -114.827 -60.998 -94.8271 -41.998 -67.8271 -24.998 c 1
 -40.8271 -41.998 -20.8271 -60.998 -4.82715 -88.998 c 1
 -20.8271 -115.998 -40.8271 -135.998 -67.8271 -151.998 c 1
 -94.8271 -135.998 -114.827 -115.998 -130.827 -88.998 c 1
-204.498 -236.998 m 1
 -188.498 -208.998 -168.498 -189.998 -141.498 -172.998 c 1
 -114.498 -189.998 -94.498 -208.998 -78.498 -236.998 c 1
 -94.498 -263.998 -114.498 -283.998 -141.498 -299.998 c 1
 -168.498 -283.998 -188.498 -263.998 -204.498 -236.998 c 1
152.17 -88.998 m 1
 168.17 -60.998 188.17 -41.998 215.17 -24.998 c 1
 242.17 -41.998 262.17 -60.998 278.17 -88.998 c 1
 262.17 -115.998 242.17 -135.998 215.17 -151.998 c 1
 188.17 -135.998 168.17 -115.998 152.17 -88.998 c 1
152.17 -236.998 m 1
 168.17 -208.998 188.17 -189.998 215.17 -172.998 c 1
 242.17 -189.998 262.17 -208.998 278.17 -236.998 c 1
 262.17 -263.998 242.17 -283.998 215.17 -299.998 c 1
 188.17 -283.998 168.17 -263.998 152.17 -236.998 c 1
EndSplineSet
Validated: 1
Ligature2: "ccmpCustomPrecomp subtable" afii57801 afii301 afii57839
LCarets2: 2 0 0 
EndChar

StartChar: uniE807
Encoding: 59399 59399 217
Width: 0
VWidth: 1000
Flags: W
HStem: -287 249<23.1279 118> -144.003 94.8702<-247.508 -36.5443>
VStem: 23.1279 94.8721<-290.186 -34.8133>
AnchorPoint: "ColumnToBaseMark" -307.143 -93.5 basemark 0
AnchorPoint: "2DotsToBaseNarrowMark" 275.143 -93.5 mark 0
AnchorPoint: "DiaToBase4" 0 0 mark 0
LayerCount: 2
Fore
SplineSet
118 -287 m 1xa0
 101.483 -289.771 87.3105 -290.952 70.5645 -290.952 c 0
 53.8174 -290.952 39.6436 -289.771 23.1279 -287 c 1
 23.1279 -38 l 1
 39.6436 -35.2285 53.8174 -34.0479 70.5645 -34.0479 c 0
 87.3105 -34.0479 101.483 -35.2285 118 -38 c 1
 118 -287 l 1xa0
149.143 -88.998 m 5
 165.143 -60.998 185.143 -41.998 212.143 -24.998 c 5
 239.143 -41.998 259.143 -60.998 275.143 -88.998 c 5
 259.143 -115.998 239.143 -135.998 212.143 -151.998 c 5
 185.143 -135.998 165.143 -115.998 149.143 -88.998 c 5
149.143 -236.998 m 5
 165.143 -208.998 185.143 -189.998 212.143 -172.998 c 5
 239.143 -189.998 259.143 -208.998 275.143 -236.998 c 5
 259.143 -263.998 239.143 -283.998 212.143 -299.998 c 5
 185.143 -283.998 165.143 -263.998 149.143 -236.998 c 5
-40.5312 -144.003 m 1x60
 -275.143 -144.003 l 1
 -270.842 -108.89 -261.146 -79.8057 -243.521 -49.1328 c 1
 -8.90918 -49.1328 l 1
 -13.2119 -84.2471 -22.9062 -113.331 -40.5312 -144.003 c 1x60
EndSplineSet
Validated: 1
Ligature2: "ccmpCustomPrecomp subtable" afii57800 afii301 afii57839
LCarets2: 2 0 0 
EndChar

StartChar: uniE808
Encoding: 59400 59400 218
Width: 0
VWidth: 1000
Flags: W
HStem: -287 249<28.1279 123> -144 94.8701<-252.508 -189.463 -94.5908 -31.5443>
VStem: -189.463 94.8722<-257.87 -144> 28.1279 94.8721<-290.186 -34.8133>
AnchorPoint: "ColumnToBaseMark" -312.145 -93.5 basemark 0
AnchorPoint: "2DotsToBaseNarrowMark" 280.145 -93.5 mark 0
AnchorPoint: "DiaToBase4" 0 0 mark 0
LayerCount: 2
Fore
SplineSet
123 -287 m 1xb0
 106.483 -289.771 92.3105 -290.952 75.5645 -290.952 c 0
 58.8174 -290.952 44.6436 -289.771 28.1279 -287 c 1
 28.1279 -38 l 1
 44.6436 -35.2285 58.8174 -34.0479 75.5645 -34.0479 c 0
 92.3105 -34.0479 106.483 -35.2285 123 -38 c 1
 123 -287 l 1xb0
-280.145 -144 m 1x70
 -275.843 -108.887 -266.146 -79.8027 -248.521 -49.1299 c 1
 -3.91016 -49.1299 l 1
 -8.21191 -84.2441 -17.9062 -113.328 -35.5312 -144 c 9
 -94.5908 -144 l 1
 -94.5908 -254.684 l 1
 -111.106 -257.455 -125.279 -258.636 -142.025 -258.636 c 0
 -158.772 -258.636 -172.947 -257.455 -189.463 -254.684 c 1
 -189.463 -144 l 1
 -280.145 -144 l 1x70
154.145 -88.998 m 5
 170.145 -60.998 190.145 -41.998 217.145 -24.998 c 5
 244.145 -41.998 264.145 -60.998 280.145 -88.998 c 5
 264.145 -115.998 244.145 -135.998 217.145 -151.998 c 5
 190.145 -135.998 170.145 -115.998 154.145 -88.998 c 5
154.145 -236.998 m 5
 170.145 -208.998 190.145 -189.998 217.145 -172.998 c 5
 244.145 -189.998 264.145 -208.998 280.145 -236.998 c 5
 264.145 -263.998 244.145 -283.998 217.145 -299.998 c 5
 190.145 -283.998 170.145 -263.998 154.145 -236.998 c 5
EndSplineSet
Validated: 1
Ligature2: "ccmpCustomPrecomp subtable" afii57802 afii301 afii57839
LCarets2: 2 0 0 
EndChar

StartChar: hatafsegol.narrow
Encoding: 1114112 -1 224
Width: 0
VWidth: 0
Flags: W
HStem: -299.998 275
AnchorPoint: "CtxAnchors_M_D3Narrow" -62.9365 0 mark 0
AnchorPoint: "ColumnToBaseMark" -238 -93.5 basemark 0
AnchorPoint: "DotToBaseNarrowMark" -228 -93.5 basemark 0
AnchorPoint: "BarToBaseNarrowMark" -223 -93.5 basemark 0
AnchorPoint: "2DotsToBaseNarrowMark" 207.733 -93.5 mark 0
LayerCount: 2
Fore
SplineSet
81.7334 -236.998 m 0
 97.7334 -208.998 117.733 -189.998 144.733 -172.998 c 0
 171.733 -189.998 191.733 -208.998 207.733 -236.998 c 0
 191.733 -263.998 171.733 -283.998 144.733 -299.998 c 0
 117.733 -283.998 97.7334 -263.998 81.7334 -236.998 c 0
81.7334 -88.998 m 0
 97.7334 -60.998 117.733 -41.998 144.733 -24.998 c 0
 171.733 -41.998 191.733 -60.998 207.733 -88.998 c 0
 191.733 -115.998 171.733 -135.998 144.733 -151.998 c 0
 117.733 -135.998 97.7334 -115.998 81.7334 -88.998 c 0
-59.6572 -88.998 m 0
 -43.6572 -60.998 -23.6572 -41.998 3.34277 -24.998 c 0
 30.3428 -41.998 50.3428 -60.998 66.3428 -88.998 c 0
 50.3428 -115.998 30.3428 -135.998 3.34277 -151.998 c 0
 -23.6572 -135.998 -43.6572 -115.998 -59.6572 -88.998 c 0
-133.328 -236.998 m 0
 -117.328 -208.998 -97.3281 -189.998 -70.3281 -172.998 c 0
 -43.3281 -189.998 -23.3281 -208.998 -7.32812 -236.998 c 0
 -23.3281 -263.998 -43.3281 -283.998 -70.3281 -299.998 c 0
 -97.3281 -283.998 -117.328 -263.998 -133.328 -236.998 c 0
-207 -88.9961 m 0
 -191 -60.9961 -171 -41.9961 -144 -24.9961 c 0
 -117 -41.9961 -97 -60.9961 -81 -88.9961 c 0
 -97 -115.996 -117 -135.996 -144 -151.996 c 0
 -171 -135.996 -191 -115.996 -207 -88.9961 c 0
EndSplineSet
Validated: 1
EndChar

StartChar: hatafpatah.narrow
Encoding: 1114113 -1 225
Width: 0
VWidth: 0
Flags: W
HStem: -144.003 94.8702<-176.365 34.5982>
AnchorPoint: "CtxAnchors_M_D3Narrow" -63.4365 0 mark 0
AnchorPoint: "ColumnToBaseMark" -236 -93.5 basemark 0
AnchorPoint: "2DotsToBaseNarrowMark" 204.707 -93.5 mark 0
LayerCount: 2
Fore
SplineSet
78.707 -236.998 m 0
 94.707 -208.998 114.707 -189.998 141.707 -172.998 c 0
 168.707 -189.998 188.707 -208.998 204.707 -236.998 c 0
 188.707 -263.998 168.707 -283.998 141.707 -299.998 c 0
 114.707 -283.998 94.707 -263.998 78.707 -236.998 c 0
78.707 -88.998 m 0
 94.707 -60.998 114.707 -41.998 141.707 -24.998 c 0
 168.707 -41.998 188.707 -60.998 204.707 -88.998 c 0
 188.707 -115.998 168.707 -135.998 141.707 -151.998 c 0
 114.707 -135.998 94.707 -115.998 78.707 -88.998 c 0
30.6113 -144.003 m 0
 -204 -144.003 l 0
 -199.699 -108.89 -190.003 -79.8057 -172.378 -49.1328 c 0
 62.2334 -49.1328 l 0
 57.9307 -84.2471 48.2363 -113.331 30.6113 -144.003 c 0
EndSplineSet
Validated: 1
EndChar

StartChar: hatafqamats.narrow
Encoding: 1114114 -1 226
Width: 0
VWidth: 0
Flags: W
HStem: -144 94.8701<-181.363 -118.318 -23.4463 39.6002>
VStem: -118.318 94.8717<-257.87 -144>
AnchorPoint: "CtxAnchors_M_D3Narrow" -63.4365 0 mark 0
AnchorPoint: "ColumnToBaseMark" -241 -93.5 basemark 0
AnchorPoint: "2DotsToBaseNarrowMark" 209.709 -93.5 mark 0
LayerCount: 2
Fore
SplineSet
83.709 -236.998 m 0
 99.709 -208.998 119.709 -189.998 146.709 -172.998 c 0
 173.709 -189.998 193.709 -208.998 209.709 -236.998 c 0
 193.709 -263.998 173.709 -283.998 146.709 -299.998 c 0
 119.709 -283.998 99.709 -263.998 83.709 -236.998 c 0
83.709 -88.998 m 0
 99.709 -60.998 119.709 -41.998 146.709 -24.998 c 0
 173.709 -41.998 193.709 -60.998 209.709 -88.998 c 0
 193.709 -115.998 173.709 -135.998 146.709 -151.998 c 0
 119.709 -135.998 99.709 -115.998 83.709 -88.998 c 0
-209 -144 m 0
 -204.698 -108.887 -195.001 -79.8027 -177.376 -49.1299 c 0
 67.2344 -49.1299 l 0
 62.9326 -84.2441 53.2383 -113.328 35.6133 -144 c 0
 -23.4463 -144 l 0
 -23.4463 -254.684 l 0
 -39.9619 -257.455 -54.1348 -258.636 -70.8809 -258.636 c 0
 -87.6279 -258.636 -101.803 -257.455 -118.318 -254.684 c 0
 -118.318 -144 l 0
 -209 -144 l 0
EndSplineSet
Validated: 1
EndChar

StartChar: segol.narrow
Encoding: 1114115 -1 227
Width: 0
VWidth: 0
Flags: W
HStem: -299.998 275
VStem: -136 273.343
AnchorPoint: "CtxAnchors_M_D2Narrow" -62.9365 0 mark 0
AnchorPoint: "ColumnToBaseMark" -167 -93.5 basemark 0
AnchorPoint: "DotToBaseNarrowMark" -157 -93.5 basemark 0
AnchorPoint: "BarToBaseNarrowMark" -152 -93.5 basemark 0
AnchorPoint: "DotToBaseNarrowMark" 137.343 -93.5 mark 0
LayerCount: 2
Fore
SplineSet
11.3428 -88.998 m 0
 27.3428 -60.998 47.3428 -41.998 74.3428 -24.998 c 0
 101.343 -41.998 121.343 -60.998 137.343 -88.998 c 0
 121.343 -115.998 101.343 -135.998 74.3428 -151.998 c 0
 47.3428 -135.998 27.3428 -115.998 11.3428 -88.998 c 0
-62.3281 -236.998 m 0
 -46.3281 -208.998 -26.3281 -189.998 0.671875 -172.998 c 0
 27.6719 -189.998 47.6719 -208.998 63.6719 -236.998 c 0
 47.6719 -263.998 27.6719 -283.998 0.671875 -299.998 c 0
 -26.3281 -283.998 -46.3281 -263.998 -62.3281 -236.998 c 0
-136 -88.9961 m 0
 -120 -60.9961 -100 -41.9961 -73 -24.9961 c 0
 -46 -41.9961 -26 -60.9961 -10 -88.9961 c 0
 -26 -115.996 -46 -135.996 -73 -151.996 c 0
 -100 -135.996 -120 -115.996 -136 -88.9961 c 0
EndSplineSet
Validated: 1
EndChar

StartChar: tsere.narrow
Encoding: 1114116 -1 228
Width: 0
VWidth: 0
Flags: W
HStem: -151.998 127
VStem: -136 273.343
AnchorPoint: "CtxAnchors_M_D2Narrow" -62.9365 0 mark 0
AnchorPoint: "ColumnToBaseMark" -167 -93.5 basemark 0
AnchorPoint: "DotToBaseNarrowMark" -157 -93.5 basemark 0
AnchorPoint: "BarToBaseNarrowMark" -152 -93.5 basemark 0
AnchorPoint: "DotToBaseNarrowMark" 137.343 -93.5 mark 0
LayerCount: 2
Fore
SplineSet
11.3428 -88.998 m 0
 27.3428 -60.998 47.3428 -41.998 74.3428 -24.998 c 0
 101.343 -41.998 121.343 -60.998 137.343 -88.998 c 0
 121.343 -115.998 101.343 -135.998 74.3428 -151.998 c 0
 47.3428 -135.998 27.3428 -115.998 11.3428 -88.998 c 0
-136 -88.9961 m 0
 -120 -60.9961 -100 -41.9961 -73 -24.9961 c 0
 -46 -41.9961 -26 -60.9961 -10 -88.9961 c 0
 -26 -115.996 -46 -135.996 -73 -151.996 c 0
 -100 -135.996 -120 -115.996 -136 -88.9961 c 0
EndSplineSet
Validated: 1
Comment: "+AAoA%BarToBaseNarrowMark+AD0A-16+AAoA%ColumnToBaseMark+AD0A-31+AAoA%DotToBaseNarrowMark+AD0A-21" 
EndChar

StartChar: patah.narrow
Encoding: 1114117 -1 229
Width: 0
VWidth: 0
Flags: W
HStem: -144.003 94.8702<-105.365 105.598>
VStem: -133 266.233
AnchorPoint: "CtxAnchors_M_D2Narrow" -63.4365 0 mark 0
AnchorPoint: "ColumnToBaseMark" -165 -93.5 basemark 0
AnchorPoint: "BarToBaseNarrowMark" 133.233 -93.5 mark 0
LayerCount: 2
Fore
SplineSet
101.611 -144.003 m 0
 -133 -144.003 l 0
 -128.699 -108.89 -119.003 -79.8057 -101.378 -49.1328 c 0
 133.233 -49.1328 l 0
 128.931 -84.2471 119.236 -113.331 101.611 -144.003 c 0
EndSplineSet
Validated: 1
Comment: "+AAoA%ColumnToBaseMark+AD0A-32" 
EndChar

StartChar: qamats.narrow
Encoding: 1114118 -1 230
Width: 0
VWidth: 0
Flags: W
HStem: -144 94.8701<-110.363 -47.3184 47.5537 110.6>
VStem: -47.3184 94.8721<-257.87 -144>
AnchorPoint: "CtxAnchors_M_D2Narrow" -63.4365 0 mark 0
AnchorPoint: "ColumnToBaseMark" -170 -93.5 basemark 0
AnchorPoint: "BarToBaseNarrowMark" 138.234 -93.5 mark 0
LayerCount: 2
Fore
SplineSet
-138 -144 m 0
 -133.698 -108.887 -124.001 -79.8027 -106.376 -49.1299 c 0
 138.234 -49.1299 l 0
 133.933 -84.2441 124.238 -113.328 106.613 -144 c 0
 47.5537 -144 l 0
 47.5537 -254.684 l 0
 31.0381 -257.455 16.8652 -258.636 0.119141 -258.636 c 0
 -16.6279 -258.636 -30.8027 -257.455 -47.3184 -254.684 c 0
 -47.3184 -144 l 0
 -138 -144 l 0
EndSplineSet
Validated: 1
EndChar

StartChar: uniE809
Encoding: 59401 59401 239
Width: 0
VWidth: 1000
Flags: W
HStem: -272.06 73.5303<-35.1099 35.1101> -192.06 73.5303<-115.11 -44.8899 44.8901 115.11> -112.06 73.5303<-35.1099 35.1101>
VStem: -116.764 73.5273<-190.406 -120.183> -36.7637 73.5273<-270.406 -200.183 -110.406 -40.1831> 43.2363 73.5273<-190.406 -120.183>
CounterMasks: 1 fc
AnchorPoint: "CtxAnchors_Rafe" 0 0 mark 0
AnchorPoint: "CtxAnchors_D3Narrow_M" 0 0 mark 0
AnchorPoint: "CtxAnchors_D2Narrow_M" 0 0 mark 0
AnchorPoint: "CtxAnchors_D2_M" 0 0 mark 0
AnchorPoint: "CtxAnchors_D1_M" 0 0 mark 0
AnchorPoint: "CtxAnchors_M_D3Narrow" 0 0 mark 0
AnchorPoint: "CtxAnchors_M_D2Narrow" 0 0 mark 0
AnchorPoint: "CtxAnchors_M_D2" 0 0 mark 0
AnchorPoint: "CtxAnchors_M_D1" 0 0 mark 0
LayerCount: 2
Fore
SplineSet
-79.999 -118.529 m 4
 -59.7051 -118.529 -43.2363 -135 -43.2363 -155.294 c 4
 -43.2363 -175.588 -59.7051 -192.06 -79.999 -192.06 c 4
 -100.293 -192.06 -116.764 -175.588 -116.764 -155.294 c 4
 -116.764 -135 -100.293 -118.529 -79.999 -118.529 c 4
0.000976562 -198.529 m 4
 20.2949 -198.529 36.7637 -215 36.7637 -235.294 c 4
 36.7637 -255.588 20.2949 -272.06 0.000976562 -272.06 c 4
 -20.293 -272.06 -36.7637 -255.588 -36.7637 -235.294 c 4
 -36.7637 -215 -20.293 -198.529 0.000976562 -198.529 c 4
80.001 -118.529 m 4
 100.295 -118.529 116.764 -135 116.764 -155.294 c 4
 116.764 -175.588 100.295 -192.06 80.001 -192.06 c 4
 59.707 -192.06 43.2363 -175.588 43.2363 -155.294 c 4
 43.2363 -135 59.707 -118.529 80.001 -118.529 c 4
0.000976562 -38.5293 m 4
 20.2949 -38.5293 36.7637 -55 36.7637 -75.2939 c 4
 36.7637 -95.5879 20.2949 -112.06 0.000976562 -112.06 c 4
 -20.293 -112.06 -36.7637 -95.5879 -36.7637 -75.2939 c 4
 -36.7637 -55 -20.293 -38.5293 0.000976562 -38.5293 c 4
EndSplineSet
Validated: 1
EndChar

